SplineFontDB: 2.0
FontName: THKodchasal-Bold
FullName: THKodchasal-Bold
FamilyName: TH Kodchasal
Weight: Bold
Copyright: Copyright (c) 2006 by Department of Intellectual Property (DIP), Ministry of Commerce and Software Industry Promotion Agency (Public Organization) (SIPA). All rights reserved.
Version: 1.1
ItalicAngle: 0
UnderlinePosition: -35
UnderlineWidth: 30
Ascent: 800
Descent: 200
Order2: 1
XUID: [1021 375 425136265 3044999]
FSType: 0
OS2Version: 3
OS2_WeightWidthSlopeOnly: 0
OS2_UseTypoMetrics: 1
CreationTime: 1157457032
ModificationTime: 1196157682
PfmFamily: 17
TTFWeight: 700
TTFWidth: 5
LineGap: 60
VLineGap: 0
Panose: 2 0 5 6 0 0 0 2 0 4
OS2TypoAscent: 0
OS2TypoAOffset: 1
OS2TypoDescent: 0
OS2TypoDOffset: 1
OS2TypoLinegap: 0
OS2WinAscent: 18
OS2WinAOffset: 1
OS2WinDescent: 4
OS2WinDOffset: 1
HheadAscent: -111
HheadAOffset: 1
HheadDescent: 316
HheadDOffset: 1
OS2SubXSize: 700
OS2SubYSize: 650
OS2SubXOff: 0
OS2SubYOff: 140
OS2SupXSize: 700
OS2SupYSize: 650
OS2SupXOff: 0
OS2SupYOff: 477
OS2StrikeYSize: 30
OS2StrikeYPos: 250
OS2FamilyClass: 773
OS2Vendor: 'IPTH'
Lookup: 4 0 0 "'frac' Diagonal Fractions in Latin lookup 0"  {"'frac' Diagonal Fractions in Latin lookup 0 subtable"  } ['frac' ('latn' <'dflt' > ) ]
Lookup: 6 0 0 "'liga' Standard Ligatures in Latin lookup 1"  {"'liga' Standard Ligatures in Latin lookup 1 subtable"  } ['liga' ('latn' <'dflt' > ) ]
Lookup: 6 0 0 "'liga' Standard Ligatures in Latin lookup 2"  {"'liga' Standard Ligatures in Latin lookup 2 subtable"  } ['liga' ('latn' <'dflt' > ) ]
Lookup: 6 0 0 "'liga' Standard Ligatures in Latin lookup 3"  {"'liga' Standard Ligatures in Latin lookup 3 subtable"  } ['liga' ('latn' <'dflt' > ) ]
Lookup: 6 0 0 "'liga' Standard Ligatures in Latin lookup 4"  {"'liga' Standard Ligatures in Latin lookup 4 subtable"  } ['liga' ('latn' <'dflt' > ) ]
Lookup: 6 0 0 "'liga' Standard Ligatures in Latin lookup 5"  {"'liga' Standard Ligatures in Latin lookup 5 subtable"  } ['liga' ('latn' <'dflt' > ) ]

StartChar: .notdef
Encoding: 65536 -1 0
Width: 736
VWidth: 1473
Flags: W
HStem: 0 52<143 592> 972 52<143 592>
VStem: 93 50<52 972> 592 50<52 972>
Fore
592 52 m 1,0,-1
 592 972 l 1,1,-1
 143 972 l 1,2,-1
 143 52 l 1,3,-1
 592 52 l 1,0,-1
642 0 m 1,4,-1
 93 0 l 1,5,-1
 93 1024 l 1,6,-1
 642 1024 l 1,7,-1
 642 0 l 1,4,-1
EndSplineSet
EndChar
StartChar: numbersign
Encoding: 35 35 4
Width: 698
VWidth: 1473
Flags: W
HStem: -9 21G<183.5 194 395.5 409> 211 75<100.089 183 271 398 482 556.635> 448 76<142.006 221 309 432 519 589.953> 700 20G<295.5 312.5 504.5 522>
Fore
613 483 m 0,0,1
 611 473 611 473 601 460.5 c 128,-1,2
 591 448 591 448 560 448 c 2,3,-1
 507 448 l 1,4,-1
 482 286 l 1,5,-1
 535 286 l 2,6,7
 555 286 555 286 569 276.5 c 128,-1,8
 583 267 583 267 580 246 c 0,9,10
 577 236 577 236 567.5 223.5 c 128,-1,11
 558 211 558 211 527 211 c 2,12,-1
 474 211 l 1,13,-1
 446 38 l 2,14,15
 442 9 442 9 428 0 c 128,-1,16
 414 -9 414 -9 404 -9 c 0,17,18
 387 -9 387 -9 379 3 c 0,19,20
 367 16 367 16 371 43 c 2,21,-1
 398 211 l 1,22,-1
 259 211 l 1,23,-1
 231 38 l 2,24,25
 227 7 227 7 213 -1 c 128,-1,26
 199 -9 199 -9 189 -9 c 256,27,28
 178 -9 178 -9 171.5 -5 c 128,-1,29
 165 -1 165 -1 162 1 c 0,30,31
 152 13 152 13 156 43 c 2,32,-1
 183 211 l 1,33,-1
 125 211 l 2,34,35
 105 211 105 211 91.5 218 c 128,-1,36
 78 225 78 225 81 249 c 0,37,38
 84 262 84 262 94.5 274 c 128,-1,39
 105 286 105 286 134 286 c 2,40,-1
 194 286 l 1,41,-1
 221 448 l 1,42,-1
 165 448 l 2,43,44
 144 448 144 448 130 457 c 128,-1,45
 116 466 116 466 119 488 c 0,46,47
 122 499 122 499 132.5 511.5 c 128,-1,48
 143 524 143 524 172 524 c 2,49,-1
 233 524 l 1,50,-1
 258 675 l 2,51,52
 262 704 262 704 275.5 712 c 128,-1,53
 289 720 289 720 302 720 c 0,54,55
 323 720 323 720 329.5 705.5 c 128,-1,56
 336 691 336 691 333 670 c 2,57,-1
 309 524 l 1,58,-1
 443 524 l 1,59,-1
 467 675 l 2,60,61
 471 704 471 704 484.5 712 c 128,-1,62
 498 720 498 720 511 720 c 0,63,64
 533 720 533 720 539 705.5 c 128,-1,65
 545 691 545 691 542 670 c 2,66,-1
 519 524 l 1,67,-1
 569 524 l 2,68,69
 589 524 589 524 602.5 514 c 128,-1,70
 616 504 616 504 613 483 c 0,0,1
298 448 m 1,71,-1
 271 286 l 1,72,-1
 407 286 l 1,73,-1
 432 448 l 1,74,-1
 298 448 l 1,71,-1
EndSplineSet
EndChar
StartChar: dollar
Encoding: 36 36 5
Width: 648
VWidth: 1473
Flags: W
HStem: -4 113<201.75 277 359 411.703> 605 112<227.235 277 359 447.488> 777 20G<309.5 327>
VStem: 37 106<457.033 545.679> 277 82<-59.0122 -6 109 299 414 605 717 772.012> 501 112<158.911 259.317>
Fore
613 212 m 0,0,1
 613 161 613 161 592.5 121.5 c 128,-1,2
 572 82 572 82 537 55 c 128,-1,3
 502 28 502 28 456 13.5 c 128,-1,4
 410 -1 410 -1 359 -6 c 1,5,-1
 359 -43 l 2,6,7
 359 -59 359 -59 347.5 -71.5 c 128,-1,8
 336 -84 336 -84 318 -84 c 256,9,10
 301 -84 301 -84 289 -71.5 c 128,-1,11
 277 -59 277 -59 277 -43 c 2,12,-1
 277 -4 l 1,13,14
 197 4 197 4 136 37.5 c 128,-1,15
 75 71 75 71 44 122 c 0,16,17
 32 143 32 143 38 164.5 c 128,-1,18
 44 186 44 186 65 197 c 256,19,20
 85 209 85 209 107.5 204 c 128,-1,21
 130 199 130 199 141 178 c 0,22,23
 156 153 156 153 193 134.5 c 128,-1,24
 230 116 230 116 277 109 c 1,25,-1
 277 303 l 1,26,27
 231 308 231 308 188.5 322 c 128,-1,28
 146 336 146 336 112 360.5 c 128,-1,29
 78 385 78 385 57.5 419.5 c 128,-1,30
 37 454 37 454 37 501 c 0,31,32
 37 551 37 551 56 589.5 c 128,-1,33
 75 628 75 628 107.5 655 c 128,-1,34
 140 682 140 682 184 697.5 c 128,-1,35
 228 713 228 713 277 717 c 1,36,-1
 277 756 l 2,37,38
 277 772 277 772 289 784.5 c 128,-1,39
 301 797 301 797 318 797 c 256,40,41
 336 797 336 797 347.5 784.5 c 128,-1,42
 359 772 359 772 359 756 c 2,43,-1
 359 717 l 1,44,45
 443 712 443 712 508 678 c 128,-1,46
 573 644 573 644 604 591 c 0,47,48
 616 570 616 570 610.5 548 c 128,-1,49
 605 526 605 526 585 514 c 256,50,51
 564 502 564 502 542 508 c 128,-1,52
 520 514 520 514 508 535 c 0,53,54
 492 563 492 563 451.5 582 c 128,-1,55
 411 601 411 601 359 605 c 1,56,-1
 359 411 l 1,57,58
 410 408 410 408 455.5 396.5 c 128,-1,59
 501 385 501 385 536.5 360.5 c 128,-1,60
 572 336 572 336 592.5 299 c 128,-1,61
 613 262 613 262 613 212 c 0,0,1
277 605 m 1,62,63
 250 603 250 603 226.5 596 c 128,-1,64
 203 589 203 589 184 577.5 c 128,-1,65
 165 566 165 566 154 547.5 c 128,-1,66
 143 529 143 529 143 502 c 0,67,68
 143 477 143 477 155.5 461.5 c 128,-1,69
 168 446 168 446 187 436.5 c 128,-1,70
 206 427 206 427 229.5 422 c 128,-1,71
 253 417 253 417 277 414 c 1,72,-1
 277 605 l 1,62,63
501 212 m 0,73,74
 501 239 501 239 488.5 255 c 128,-1,75
 476 271 476 271 456 280 c 128,-1,76
 436 289 436 289 411 292.5 c 128,-1,77
 386 296 386 296 359 299 c 1,78,-1
 359 106 l 1,79,80
 387 110 387 110 412.5 117 c 128,-1,81
 438 124 438 124 457.5 135 c 128,-1,82
 477 146 477 146 489 164.5 c 128,-1,83
 501 183 501 183 501 212 c 0,73,74
EndSplineSet
EndChar
StartChar: percent
Encoding: 37 37 6
Width: 696
VWidth: 1473
Flags: W
HStem: 3 75<450.237 541.932> 224 75<460.495 541.932> 446 76<146.112 237.903> 667 75<145.657 237.903>
VStem: 40 73<552.974 636.451> 259 78<552.974 636.451> 355 74<99.8281 191.888> 573 78<108.807 192.343>
Fore
337 595 m 256,0,1
 337 564 337 564 325.5 537 c 128,-1,2
 314 510 314 510 294 490 c 128,-1,3
 274 470 274 470 247 458 c 128,-1,4
 220 446 220 446 189 446 c 256,5,6
 158 446 158 446 130.5 458 c 128,-1,7
 103 470 103 470 83 490 c 128,-1,8
 63 510 63 510 51.5 537 c 128,-1,9
 40 564 40 564 40 595 c 256,10,11
 40 626 40 626 51.5 652.5 c 128,-1,12
 63 679 63 679 83 699 c 128,-1,13
 103 719 103 719 130.5 730.5 c 128,-1,14
 158 742 158 742 189 742 c 256,15,16
 220 742 220 742 247 730.5 c 128,-1,17
 274 719 274 719 294 699 c 128,-1,18
 314 679 314 679 325.5 652.5 c 128,-1,19
 337 626 337 626 337 595 c 256,0,1
586 734 m 0,20,21
 591 722 591 722 583 710 c 2,22,-1
 136 -16 l 2,23,24
 128 -28 128 -28 116.5 -31 c 128,-1,25
 105 -34 105 -34 93 -27 c 256,26,27
 81 -19 81 -19 78 -6.5 c 128,-1,28
 75 6 75 6 82 16 c 0,29,30
 102 47 102 47 156 136 c 0,31,32
 180 172 180 172 213 226 c 128,-1,33
 246 280 246 280 291 354.5 c 128,-1,34
 336 429 336 429 395.5 524.5 c 128,-1,35
 455 620 455 620 530 742 c 0,36,37
 538 754 538 754 549.5 757 c 128,-1,38
 561 760 561 760 573 753 c 0,39,40
 583 747 583 747 586 734 c 0,20,21
651 150 m 256,41,42
 651 119 651 119 639.5 92.5 c 128,-1,43
 628 66 628 66 608 46.5 c 128,-1,44
 588 27 588 27 560.5 15 c 128,-1,45
 533 3 533 3 502 3 c 0,46,47
 440 3 440 3 397.5 45.5 c 128,-1,48
 355 88 355 88 355 150 c 0,49,50
 355 181 355 181 367 208.5 c 128,-1,51
 379 236 379 236 398.5 255.5 c 128,-1,52
 418 275 418 275 444.5 287 c 128,-1,53
 471 299 471 299 502 299 c 256,54,55
 533 299 533 299 560.5 287 c 128,-1,56
 588 275 588 275 608 255.5 c 128,-1,57
 628 236 628 236 639.5 208.5 c 128,-1,58
 651 181 651 181 651 150 c 256,41,42
259 595 m 0,59,60
 259 625 259 625 238 646 c 128,-1,61
 217 667 217 667 187 667 c 0,62,63
 156 667 156 667 134.5 646 c 128,-1,64
 113 625 113 625 113 595 c 0,65,66
 113 564 113 564 134.5 543 c 128,-1,67
 156 522 156 522 187 522 c 0,68,69
 217 522 217 522 238 543 c 128,-1,70
 259 564 259 564 259 595 c 0,59,60
573 150 m 0,71,72
 573 181 573 181 551.5 202.5 c 128,-1,73
 530 224 530 224 501 224 c 256,74,75
 471 224 471 224 450 202.5 c 128,-1,76
 429 181 429 181 429 150 c 0,77,78
 429 121 429 121 450 99.5 c 128,-1,79
 471 78 471 78 501 78 c 256,80,81
 530 78 530 78 551.5 99.5 c 128,-1,82
 573 121 573 121 573 150 c 0,71,72
EndSplineSet
EndChar
StartChar: ampersand
Encoding: 38 38 7
Width: 799
VWidth: 1473
Flags: W
HStem: -6 108<254.242 375.788> 656 89<293.457 426.131>
VStem: 449 109<540.626 616.034>
Fore
740 81 m 1,0,1
 751 63 751 63 747.5 44 c 128,-1,2
 744 25 744 25 728 13 c 256,3,4
 712 1 712 1 692 -1 c 128,-1,5
 672 -3 672 -3 651 10 c 0,6,7
 650 12 650 12 636.5 24.5 c 128,-1,8
 623 37 623 37 607.5 52.5 c 128,-1,9
 592 68 592 68 579.5 80.5 c 128,-1,10
 567 93 567 93 566 94 c 1,11,12
 542 77 542 77 515.5 57.5 c 128,-1,13
 489 38 489 38 461 25 c 0,14,15
 430 12 430 12 392 3 c 128,-1,16
 354 -6 354 -6 312 -6 c 128,-1,17
 270 -6 270 -6 228 6.5 c 128,-1,18
 186 19 186 19 149 50 c 0,19,20
 93 96 93 96 74.5 152.5 c 128,-1,21
 56 209 56 209 67 264.5 c 128,-1,22
 78 320 78 320 115.5 367 c 128,-1,23
 153 414 153 414 209 442 c 1,24,25
 184 470 184 470 164 501.5 c 128,-1,26
 144 533 144 533 144 572 c 0,27,28
 144 605 144 605 159 637 c 128,-1,29
 174 669 174 669 201 693 c 128,-1,30
 228 717 228 717 268.5 731 c 128,-1,31
 309 745 309 745 361 745 c 0,32,33
 433 744 433 744 478 716 c 128,-1,34
 523 688 523 688 542 656 c 0,35,36
 564 608 564 608 558 563 c 0,37,38
 555 544 555 544 546.5 523 c 128,-1,39
 538 502 538 502 519.5 481.5 c 128,-1,40
 501 461 501 461 470.5 442.5 c 128,-1,41
 440 424 440 424 395 410 c 1,42,-1
 545 271 l 1,43,44
 555 292 555 292 563.5 317 c 128,-1,45
 572 342 572 342 580 385 c 0,46,47
 583 402 583 402 593.5 412.5 c 128,-1,48
 604 423 604 423 616 426.5 c 128,-1,49
 628 430 628 430 640.5 427 c 128,-1,50
 653 424 653 424 661 418 c 0,51,52
 692 392 692 392 685 352 c 0,53,54
 682 334 682 334 675.5 310.5 c 128,-1,55
 669 287 669 287 661.5 263 c 128,-1,56
 654 239 654 239 645 219 c 128,-1,57
 636 199 636 199 631 190 c 1,58,59
 664 155 664 155 685.5 133.5 c 128,-1,60
 707 112 707 112 719 100 c 0,61,62
 734 85 734 85 740 81 c 1,0,1
449 585 m 0,63,64
 451 610 451 610 427.5 633 c 128,-1,65
 404 656 404 656 361 656 c 0,66,67
 317 656 317 656 294 636.5 c 128,-1,68
 271 617 271 617 267 601 c 0,69,70
 259 569 259 569 280 535.5 c 128,-1,71
 301 502 301 502 342 479 c 1,72,73
 345 476 345 476 362 483.5 c 128,-1,74
 379 491 379 491 398 505.5 c 128,-1,75
 417 520 417 520 433 540 c 128,-1,76
 449 560 449 560 449 585 c 0,63,64
283 367 m 1,77,78
 233 345 233 345 210 311.5 c 128,-1,79
 187 278 187 278 183.5 243.5 c 128,-1,80
 180 209 180 209 191.5 179.5 c 128,-1,81
 203 150 203 150 225 134 c 0,82,83
 268 102 268 102 311.5 102 c 128,-1,84
 355 102 355 102 391 116 c 128,-1,85
 427 130 427 130 452 151 c 128,-1,86
 477 172 477 172 485 184 c 1,87,-1
 283 367 l 1,77,78
EndSplineSet
EndChar
StartChar: quotesingle
Encoding: 39 39 8
Width: 263
VWidth: 1473
Flags: W
HStem: 436 283<90.4104 168.468>
VStem: 77 109<455.08 698.374>
Fore
186 501 m 1,0,1
 186 464 186 464 169 450 c 128,-1,2
 152 436 152 436 133 436 c 0,3,4
 103 436 103 436 90 454.5 c 128,-1,5
 77 473 77 473 77 501 c 2,6,-1
 77 653 l 2,7,8
 77 681 77 681 89.5 700 c 128,-1,9
 102 719 102 719 133 719 c 0,10,11
 159 719 159 719 172.5 699 c 128,-1,12
 186 679 186 679 186 653 c 2,13,-1
 186 501 l 1,0,1
EndSplineSet
EndChar
StartChar: parenleft
Encoding: 40 40 9
Width: 441
VWidth: 1473
Flags: W
VStem: 149 110<180.511 396.831>
Fore
320 -125 m 2,0,1
 321 -128 321 -128 322.5 -137.5 c 128,-1,2
 324 -147 324 -147 320.5 -157.5 c 128,-1,3
 317 -168 317 -168 306.5 -177.5 c 128,-1,4
 296 -187 296 -187 274 -192 c 0,5,6
 264 -194 264 -194 254.5 -189 c 128,-1,7
 245 -184 245 -184 236 -176.5 c 128,-1,8
 227 -169 227 -169 221 -160.5 c 128,-1,9
 215 -152 215 -152 214 -146 c 1,10,11
 212 -144 212 -144 202 -112.5 c 128,-1,12
 192 -81 192 -81 180 -25 c 128,-1,13
 168 31 168 31 158.5 110.5 c 128,-1,14
 149 190 149 190 149 289 c 256,15,16
 149 387 149 387 158.5 467.5 c 128,-1,17
 168 548 168 548 180 604 c 128,-1,18
 192 660 192 660 202 691 c 128,-1,19
 212 722 212 722 214 725 c 2,20,21
 215 731 215 731 220 739 c 128,-1,22
 225 747 225 747 232.5 755 c 128,-1,23
 240 763 240 763 250.5 767.5 c 128,-1,24
 261 772 261 772 274 770 c 0,25,26
 293 768 293 768 303.5 759 c 128,-1,27
 314 750 314 750 318.5 739.5 c 128,-1,28
 323 729 323 729 322 719.5 c 128,-1,29
 321 710 321 710 320 704 c 2,30,31
 310.5 674.5 l 2,32,33
 301 645 301 645 289.5 590.5 c 128,-1,34
 278 536 278 536 268.5 459.5 c 128,-1,35
 259 383 259 383 259 289 c 256,36,37
 259 194 259 194 268.5 117.5 c 128,-1,38
 278 41 278 41 289.5 -12.5 c 128,-1,39
 301 -66 301 -66 310.5 -95 c 128,-1,40
 320 -124 320 -124 320 -125 c 2,0,1
EndSplineSet
EndChar
StartChar: parenright
Encoding: 41 41 10
Width: 441
VWidth: 1473
Flags: W
VStem: 184 109<180.511 396.831>
Fore
293 289 m 256,0,1
 293 190 293 190 283.5 110.5 c 128,-1,2
 274 31 274 31 262 -25 c 128,-1,3
 250 -81 250 -81 240.5 -112.5 c 128,-1,4
 231 -144 231 -144 230 -146 c 2,5,6
 227 -152 227 -152 221 -160.5 c 128,-1,7
 215 -169 215 -169 207 -176.5 c 128,-1,8
 199 -184 199 -184 188.5 -189 c 128,-1,9
 178 -194 178 -194 168 -192 c 0,10,11
 146 -187 146 -187 135.5 -177.5 c 128,-1,12
 125 -168 125 -168 122 -157.5 c 128,-1,13
 119 -147 119 -147 120.5 -137.5 c 128,-1,14
 122 -128 122 -128 124 -125 c 2,15,16
 133.5 -95.5 l 2,17,18
 143 -66 143 -66 154 -12.5 c 128,-1,19
 165 41 165 41 174.5 117.5 c 128,-1,20
 184 194 184 194 184 289 c 256,21,22
 184 383 184 383 174.5 459.5 c 128,-1,23
 165 536 165 536 154 590.5 c 128,-1,24
 143 645 143 645 133.5 674 c 128,-1,25
 124 703 124 703 124 704 c 2,26,27
 121 710 121 710 121 719.5 c 128,-1,28
 121 729 121 729 124.5 739.5 c 128,-1,29
 128 750 128 750 138.5 759 c 128,-1,30
 149 768 149 768 168 770 c 0,31,32
 181 772 181 772 191.5 767.5 c 128,-1,33
 202 763 202 763 209.5 755 c 128,-1,34
 217 747 217 747 222 739 c 128,-1,35
 227 731 227 731 230 725 c 0,36,37
 231 722 231 722 240.5 691 c 128,-1,38
 250 660 250 660 262 604 c 128,-1,39
 274 548 274 548 283.5 467.5 c 128,-1,40
 293 387 293 387 293 289 c 256,0,1
EndSplineSet
EndChar
StartChar: asterisk
Encoding: 42 42 11
Width: 674
VWidth: 1473
Flags: W
HStem: 326 409<323.397 357.248>
VStem: 298 84<337.86 402.106 646.812 724.685>
Fore
516 443 m 256,0,1
 519 426 519 426 507 412 c 0,2,3
 483 386 483 386 451 401 c 1,4,5
 432 415 432 415 412 431.5 c 128,-1,6
 392 448 392 448 373 466 c 1,7,8
 376 440 376 440 379 414.5 c 128,-1,9
 382 389 382 389 382 365 c 0,10,11
 382 349 382 349 369.5 337.5 c 128,-1,12
 357 326 357 326 340 326 c 256,13,14
 324 326 324 326 311 337.5 c 128,-1,15
 298 349 298 349 298 365 c 0,16,17
 298 390 298 390 299.5 402.5 c 0,18,-1
 306 466 l 1,19,20
 286 449 286 449 267.5 433 c 128,-1,21
 249 417 249 417 228 401 c 0,22,23
 217 392 217 392 199 395.5 c 128,-1,24
 181 399 181 399 172 412 c 0,25,26
 161 430 161 430 165 446.5 c 128,-1,27
 169 463 169 463 180 470 c 0,28,29
 208 486 208 486 230.5 500 c 128,-1,30
 253 514 253 514 284 530 c 1,31,32
 253 547 253 547 230.5 561 c 128,-1,33
 208 575 208 575 180 591 c 0,34,35
 168 600 168 600 165 616.5 c 128,-1,36
 162 633 162 633 172 648 c 0,37,38
 181 661 181 661 199 665 c 128,-1,39
 217 669 217 669 228 660 c 0,40,41
 249 644 249 644 267.5 627.5 c 128,-1,42
 286 611 286 611 306 595 c 1,43,44
 303 620 303 620 300.5 646 c 128,-1,45
 298 672 298 672 298 695 c 0,46,47
 298 715 298 715 310.5 725 c 128,-1,48
 323 735 323 735 340 735 c 128,-1,49
 357 735 357 735 369.5 725.5 c 128,-1,50
 382 716 382 716 382 695 c 0,51,52
 382 670 382 670 379 644.5 c 128,-1,53
 376 619 376 619 373 594 c 1,54,55
 392 613 392 613 411 628.5 c 128,-1,56
 430 644 430 644 451 660 c 1,57,58
 485 676 485 676 507 648 c 0,59,60
 520 631 520 631 514 614 c 128,-1,61
 508 597 508 597 499 591 c 0,62,63
 474 570 474 570 449 560 c 128,-1,64
 424 550 424 550 395 530 c 1,65,66
 424 511 424 511 449 501 c 128,-1,67
 474 491 474 491 499 470 c 0,68,69
 513 461 513 461 516 443 c 256,0,1
EndSplineSet
EndChar
StartChar: plus
Encoding: 43 43 12
Width: 720
VWidth: 1473
Flags: W
HStem: 12 489<315.926 394.983> 200 109<103.596 302 412 612.404>
VStem: 302 110<31.5959 200 309 481.404>
Fore
632 256 m 0,0,1
 632 236 632 236 617.5 218 c 128,-1,2
 603 200 603 200 566 200 c 2,3,-1
 412 200 l 1,4,-1
 412 78 l 2,5,6
 412 41 412 41 395.5 26.5 c 128,-1,7
 379 12 379 12 358 12 c 0,8,9
 329 12 329 12 315.5 31 c 128,-1,10
 302 50 302 50 302 78 c 2,11,-1
 302 200 l 1,12,-1
 150 200 l 2,13,14
 122 200 122 200 103 213.5 c 128,-1,15
 84 227 84 227 84 256 c 0,16,17
 84 284 84 284 103 296.5 c 128,-1,18
 122 309 122 309 150 309 c 2,19,-1
 302 309 l 1,20,-1
 302 436 l 2,21,22
 302 464 302 464 315.5 482.5 c 128,-1,23
 329 501 329 501 358 501 c 0,24,25
 385 501 385 501 398.5 482 c 128,-1,26
 412 463 412 463 412 436 c 2,27,-1
 412 309 l 1,28,-1
 566 309 l 2,29,30
 594 309 594 309 613 296.5 c 128,-1,31
 632 284 632 284 632 256 c 0,0,1
EndSplineSet
EndChar
StartChar: comma
Encoding: 44 44 13
Width: 346
VWidth: 1473
Flags: W
HStem: -150.5 317.5<95 175 175 175>
VStem: 67 195<-115 85 -115 -115>
Fore
78 80 m 2,0,1
 78 103 78 103 93 125 c 128,-1,2
 108 147 108 147 130 159 c 0,3,4
 153 169 153 169 175 167 c 128,-1,5
 197 165 197 165 215 154 c 128,-1,6
 233 143 233 143 245.5 125.5 c 128,-1,7
 258 108 258 108 262 85 c 0,8,9
 271 44 271 44 262 6.5 c 128,-1,10
 253 -31 253 -31 233.5 -62 c 128,-1,11
 214 -93 214 -93 186 -115 c 128,-1,12
 158 -137 158 -137 131 -147 c 0,13,14
 110 -155 110 -155 95 -150.5 c 128,-1,15
 80 -146 80 -146 72.5 -136.5 c 128,-1,16
 65 -127 65 -127 67 -115 c 128,-1,17
 69 -103 69 -103 84 -96 c 0,18,19
 115 -82 115 -82 139.5 -64.5 c 128,-1,20
 164 -47 164 -47 180 -9 c 1,21,22
 177 -9 177 -9 172.5 -9.5 c 128,-1,23
 168 -10 168 -10 165 -10 c 0,24,25
 127 -10 127 -10 102.5 15.5 c 128,-1,26
 78 41 78 41 78 77 c 2,27,-1
 78 80 l 2,0,1
EndSplineSet
EndChar
StartChar: hyphen
Encoding: 45 45 14
Width: 604
VWidth: 1473
Flags: W
HStem: 200 109<102.111 500.404 147 455 147 147>
VStem: 82 438<218.563 296.106>
Fore
520 256 m 0,0,1
 520 236 520 236 506 218 c 128,-1,2
 492 200 492 200 455 200 c 2,3,-1
 147 200 l 2,4,5
 119 200 119 200 100.5 213.5 c 128,-1,6
 82 227 82 227 82 256 c 0,7,8
 82 284 82 284 101.5 296.5 c 128,-1,9
 121 309 121 309 147 309 c 2,10,-1
 455 309 l 2,11,12
 482 309 482 309 501 296.5 c 128,-1,13
 520 284 520 284 520 256 c 0,0,1
EndSplineSet
EndChar
StartChar: period
Encoding: 46 46 15
Width: 335
VWidth: 1473
Flags: W
HStem: -15 180<108.98 227.02>
VStem: 78 180<15.9805 134.02>
Fore
78 75 m 256,0,1
 78 113 78 113 104 139 c 128,-1,2
 130 165 130 165 168 165 c 256,3,4
 206 165 206 165 232 139 c 128,-1,5
 258 113 258 113 258 75 c 256,6,7
 258 37 258 37 232 11 c 128,-1,8
 206 -15 206 -15 168 -15 c 256,9,10
 130 -15 130 -15 104 11 c 128,-1,11
 78 37 78 37 78 75 c 256,0,1
EndSplineSet
EndChar
StartChar: slash
Encoding: 47 47 16
Width: 550
VWidth: 1473
Flags: W
VStem: 60 422<-25 688 -25 -25>
Fore
482 688 m 0,0,1
 489 670 489 670 482 648 c 2,2,-1
 156 -68 l 2,3,4
 149 -88 149 -88 128.5 -95.5 c 128,-1,5
 108 -103 108 -103 87 -94 c 0,6,7
 68 -85 68 -85 60.5 -64.5 c 128,-1,8
 53 -44 53 -44 60 -25 c 0,9,10
 74 4 74 4 113 91 c 0,11,12
 130 128 130 128 154 181 c 128,-1,13
 178 234 178 234 211.5 307 c 128,-1,14
 245 380 245 380 288 475 c 128,-1,15
 331 570 331 570 386 691 c 0,16,17
 395 712 395 712 415 719 c 128,-1,18
 435 726 435 726 455 717 c 0,19,20
 474 709 474 709 482 688 c 0,0,1
EndSplineSet
EndChar
StartChar: zero
Encoding: 48 48 17
Width: 708
VWidth: 1473
Flags: W
HStem: -15 108<263.958 445.718> 617 108<287.933 447.821>
VStem: 59 106<209.073 496.088> 545 106<210.903 500.732>
Fore
651 355 m 0,0,1
 651 258 651 258 627.5 188 c 128,-1,2
 604 118 604 118 563.5 73 c 128,-1,3
 523 28 523 28 469 6.5 c 128,-1,4
 415 -15 415 -15 355 -15 c 0,5,6
 289 -15 289 -15 234.5 7 c 128,-1,7
 180 29 180 29 141 75 c 128,-1,8
 102 121 102 121 80.5 191 c 128,-1,9
 59 261 59 261 59 355 c 0,10,11
 59 480 59 480 93 553 c 128,-1,12
 127 626 127 626 174.5 664.5 c 128,-1,13
 222 703 222 703 272.5 714 c 128,-1,14
 323 725 323 725 355 725 c 0,15,16
 426 725 426 725 481 698.5 c 128,-1,17
 536 672 536 672 573.5 623.5 c 128,-1,18
 611 575 611 575 631 507 c 128,-1,19
 651 439 651 439 651 355 c 0,0,1
545 355 m 0,20,21
 545 617 545 617 355 617 c 0,22,23
 256 617 256 617 210.5 545 c 128,-1,24
 165 473 165 473 165 355 c 0,25,26
 165 221 165 221 214.5 157 c 128,-1,27
 264 93 264 93 355 93 c 256,28,29
 446 93 446 93 495.5 158.5 c 128,-1,30
 545 224 545 224 545 355 c 0,20,21
EndSplineSet
EndChar
StartChar: one
Encoding: 49 49 18
Width: 520
VWidth: 1473
Flags: W
HStem: -4 21G<306 328>
VStem: 264 106<12.5015 597>
Fore
370 50 m 1,0,1
 370 28 370 28 354.5 12 c 128,-1,2
 339 -4 339 -4 317 -4 c 256,3,4
 295 -4 295 -4 279.5 12 c 128,-1,5
 264 28 264 28 264 50 c 2,6,-1
 264 597 l 1,7,-1
 150 554 l 2,8,9
 130 547 130 547 109 555.5 c 128,-1,10
 88 564 88 564 81 585 c 256,11,12
 74 605 74 605 82.5 626 c 128,-1,13
 91 647 91 647 112 654 c 0,14,15
 183 679 183 679 221 694 c 128,-1,16
 259 709 259 709 277 716 c 2,17,-1
 301 725 l 2,18,19
 320 731 320 731 333 727 c 128,-1,20
 346 723 346 723 354 714.5 c 128,-1,21
 362 706 362 706 366 695 c 128,-1,22
 370 684 370 684 370 673 c 2,23,-1
 370 50 l 1,0,1
EndSplineSet
EndChar
StartChar: two
Encoding: 50 50 19
Width: 679
VWidth: 1473
Flags: W
HStem: 0 106<253 603.014> 628 101<264.226 433.633>
VStem: 69 106<446.21 533.462>
Fore
619 53 m 256,0,1
 619 31 619 31 603.5 15.5 c 128,-1,2
 588 0 588 0 566 0 c 2,3,-1
 118 0 l 2,4,5
 110 0 110 0 90.5 4.5 c 128,-1,6
 71 9 71 9 60 35 c 0,7,8
 53 53 53 53 61 73.5 c 128,-1,9
 69 94 69 94 77 102 c 2,10,-1
 446 396 l 2,11,12
 486 429 486 429 495 469.5 c 128,-1,13
 504 510 504 510 488.5 545 c 128,-1,14
 473 580 473 580 437.5 604 c 128,-1,15
 402 628 402 628 352 628 c 256,16,17
 302 628 302 628 269.5 612.5 c 128,-1,18
 237 597 237 597 217 574 c 128,-1,19
 197 551 197 551 188.5 523.5 c 128,-1,20
 180 496 180 496 175 474 c 0,21,22
 172 452 172 452 156 437.5 c 128,-1,23
 140 423 140 423 119 424 c 0,24,25
 97 426 97 426 82.5 443 c 128,-1,26
 68 460 68 460 69 482 c 0,27,28
 74 536 74 536 94.5 582 c 128,-1,29
 115 628 115 628 151 660 c 128,-1,30
 187 692 187 692 237 710.5 c 128,-1,31
 287 729 287 729 352 729 c 0,32,33
 439 729 439 729 502.5 685.5 c 128,-1,34
 566 642 566 642 592.5 579 c 128,-1,35
 619 516 619 516 603.5 444.5 c 128,-1,36
 588 373 588 373 517 317 c 2,37,-1
 253 106 l 1,38,-1
 566 106 l 2,39,40
 588 106 588 106 603.5 90.5 c 128,-1,41
 619 75 619 75 619 53 c 256,0,1
EndSplineSet
EndChar
StartChar: three
Encoding: 51 51 20
Width: 658
VWidth: 1473
Flags: W
HStem: -13 93<274.558 380.835> 320 107<260.471 411.181> 632 102<245.071 408.272>
VStem: 49 107<151.848 259.529 495.986 550.427> 485 107<152.777 271.191>
Fore
592 206 m 0,0,1
 592 152 592 152 568.5 110.5 c 128,-1,2
 545 69 545 69 506.5 42 c 128,-1,3
 468 15 468 15 419 1 c 128,-1,4
 370 -13 370 -13 317 -13 c 0,5,6
 268 -13 268 -13 219.5 0 c 128,-1,7
 171 13 171 13 133.5 41 c 128,-1,8
 96 69 96 69 72.5 114 c 128,-1,9
 49 159 49 159 49 222 c 0,10,11
 49 245 49 245 65 260 c 128,-1,12
 81 275 81 275 103 275 c 256,13,14
 125 275 125 275 140.5 260 c 128,-1,15
 156 245 156 245 156 222 c 0,16,17
 156 178 156 178 174.5 151 c 128,-1,18
 193 124 193 124 219 107.5 c 128,-1,19
 245 91 245 91 272 85.5 c 128,-1,20
 299 80 299 80 315 80 c 0,21,22
 345 80 345 80 375 88.5 c 128,-1,23
 405 97 405 97 429.5 114 c 128,-1,24
 454 131 454 131 469.5 157 c 128,-1,25
 485 183 485 183 485 217 c 256,26,27
 485 250 485 250 475.5 271 c 128,-1,28
 466 292 466 292 452 303 c 128,-1,29
 438 314 438 314 423 317 c 128,-1,30
 408 320 408 320 399 320 c 2,31,-1
 298 320 l 2,32,33
 275 320 275 320 260 335.5 c 128,-1,34
 245 351 245 351 245 373 c 256,35,36
 245 395 245 395 260 411 c 128,-1,37
 275 427 275 427 298 427 c 2,38,-1
 395 427 l 2,39,40
 407 427 407 427 420 435 c 128,-1,41
 433 443 433 443 443.5 458.5 c 128,-1,42
 454 474 454 474 459 496.5 c 128,-1,43
 464 519 464 519 458 545 c 0,44,45
 451 586 451 586 410.5 609 c 128,-1,46
 370 632 370 632 318 632 c 0,47,48
 273 632 273 632 242.5 621 c 128,-1,49
 212 610 212 610 193.5 594.5 c 128,-1,50
 175 579 175 579 168 562 c 128,-1,51
 161 545 161 545 161 533 c 0,52,53
 161 511 161 511 145.5 495.5 c 128,-1,54
 130 480 130 480 108 480 c 256,55,56
 85 480 85 480 70 495.5 c 128,-1,57
 55 511 55 511 55 533 c 0,58,59
 55 563 55 563 69.5 597.5 c 128,-1,60
 84 632 84 632 115.5 662 c 128,-1,61
 147 692 147 692 197 713 c 128,-1,62
 247 734 247 734 318 734 c 0,63,64
 371 734 371 734 414 720.5 c 128,-1,65
 457 707 457 707 489.5 683.5 c 128,-1,66
 522 660 522 660 541 630 c 128,-1,67
 560 600 560 600 564 564 c 0,68,69
 573 498 573 498 554 448.5 c 128,-1,70
 535 399 535 399 492 374 c 1,71,72
 539 362 539 362 565.5 318.5 c 128,-1,73
 592 275 592 275 592 206 c 0,0,1
EndSplineSet
EndChar
StartChar: four
Encoding: 52 52 21
Width: 720
VWidth: 1473
Flags: W
HStem: -6 21G<507.5 530> 127 106<194 466 572 650.014>
VStem: 466 106<9.98596 127 233 554>
Fore
666 180 m 256,0,1
 666 158 666 158 650.5 142.5 c 128,-1,2
 635 127 635 127 613 127 c 2,3,-1
 572 127 l 1,4,-1
 572 47 l 2,5,6
 572 25 572 25 556.5 9.5 c 128,-1,7
 541 -6 541 -6 519 -6 c 256,8,9
 496 -6 496 -6 481 9.5 c 128,-1,10
 466 25 466 25 466 47 c 2,11,-1
 466 127 l 1,12,-1
 90 127 l 2,13,14
 72 127 72 127 60.5 135.5 c 128,-1,15
 49 144 49 144 43 157.5 c 128,-1,16
 37 171 37 171 38.5 186.5 c 128,-1,17
 40 202 40 202 50 214 c 2,18,-1
 467 704 l 2,19,20
 482 722 482 722 500.5 725.5 c 128,-1,21
 519 729 519 729 534.5 723 c 128,-1,22
 550 717 550 717 561 703 c 128,-1,23
 572 689 572 689 572 672 c 2,24,-1
 572 233 l 1,25,-1
 613 233 l 2,26,27
 635 233 635 233 650.5 217.5 c 128,-1,28
 666 202 666 202 666 180 c 256,0,1
466 554 m 1,29,-1
 194 233 l 1,30,-1
 466 233 l 1,31,-1
 466 554 l 1,29,-1
EndSplineSet
EndChar
StartChar: five
Encoding: 53 53 22
Width: 692
VWidth: 1473
Flags: W
HStem: 613 106<233 589.529>
VStem: 65 104<112.79 206.316>
Fore
619 165 m 0,0,1
 600 96 600 96 549 50 c 128,-1,2
 498 4 498 4 426 -12 c 0,3,4
 368 -25 368 -25 309 -19 c 128,-1,5
 250 -13 250 -13 200 12 c 128,-1,6
 150 37 150 37 114 81 c 128,-1,7
 78 125 78 125 65 190 c 0,8,9
 60 212 60 212 72.5 230.5 c 128,-1,10
 85 249 85 249 106 253 c 0,11,12
 128 258 128 258 146.5 245.5 c 128,-1,13
 165 233 165 233 169 211 c 0,14,15
 186 138 186 138 236 108 c 128,-1,16
 286 78 286 78 377 85 c 0,17,18
 430 90 430 90 467.5 127 c 128,-1,19
 505 164 505 164 517 211.5 c 128,-1,20
 529 259 529 259 510.5 308.5 c 128,-1,21
 492 358 492 358 433 389 c 0,22,23
 405 404 405 404 368 407 c 128,-1,24
 331 410 331 410 295 403 c 128,-1,25
 259 396 259 396 229.5 380.5 c 128,-1,26
 200 365 200 365 186 346 c 0,27,28
 175 333 175 333 158 328.5 c 128,-1,29
 141 324 141 324 125 329 c 128,-1,30
 109 334 109 334 98 346.5 c 128,-1,31
 87 359 87 359 90 380 c 2,32,-1
 140 719 l 1,33,-1
 552 719 l 2,34,35
 575 719 575 719 590 703.5 c 128,-1,36
 605 688 605 688 605 666 c 256,37,38
 605 644 605 644 590 628.5 c 128,-1,39
 575 613 575 613 552 613 c 2,40,-1
 233 613 l 1,41,-1
 212 480 l 1,42,43
 253 496 253 496 301 503 c 128,-1,44
 349 510 349 510 396 504.5 c 128,-1,45
 443 499 443 499 486 481.5 c 128,-1,46
 529 464 529 464 561 432 c 0,47,48
 585 408 585 408 600.5 376.5 c 128,-1,49
 616 345 616 345 623.5 309.5 c 128,-1,50
 631 274 631 274 629.5 237 c 128,-1,51
 628 200 628 200 619 165 c 0,0,1
EndSplineSet
EndChar
StartChar: six
Encoding: 54 54 23
Width: 696
VWidth: 1473
Flags: W
HStem: -16 104<324.502 425.515> 402 100<298.347 420.741> 633 107<277.381 447.761>
VStem: 532 106<184.392 306.093>
Fore
638 249 m 0,0,1
 636 193 636 193 616.5 143.5 c 128,-1,2
 597 94 597 94 560 59 c 128,-1,3
 523 24 523 24 470.5 3 c 128,-1,4
 418 -18 418 -18 355 -16 c 0,5,6
 275 -15 275 -15 218.5 14 c 128,-1,7
 162 43 162 43 126 93.5 c 128,-1,8
 90 144 90 144 73.5 212.5 c 128,-1,9
 57 281 57 281 59 361 c 0,10,11
 60 448 60 448 83 518 c 128,-1,12
 106 588 106 588 148 637.5 c 128,-1,13
 190 687 190 687 249 713.5 c 128,-1,14
 308 740 308 740 382 740 c 0,15,16
 426 740 426 740 465.5 728 c 128,-1,17
 505 716 505 716 536 696 c 128,-1,18
 567 676 567 676 589 650.5 c 128,-1,19
 611 625 611 625 622 597 c 0,20,21
 629 575 629 575 622.5 554 c 128,-1,22
 616 533 616 533 594 526 c 256,23,24
 572 519 572 519 551 528.5 c 128,-1,25
 530 538 530 538 523 560 c 0,26,27
 514 585 514 585 472 609 c 128,-1,28
 430 633 430 633 379 633 c 0,29,30
 280 633 280 633 232 576 c 128,-1,31
 184 519 184 519 172 420 c 1,32,33
 211 457 211 457 259.5 479.5 c 128,-1,34
 308 502 308 502 359 502 c 0,35,36
 420 502 420 502 471.5 484.5 c 128,-1,37
 523 467 523 467 560.5 434 c 128,-1,38
 598 401 598 401 618.5 354.5 c 128,-1,39
 639 308 639 308 638 249 c 0,0,1
532 245 m 128,-1,41
 532 278 532 278 517 307 c 128,-1,42
 502 336 502 336 478.5 357.5 c 128,-1,43
 455 379 455 379 423.5 390.5 c 128,-1,44
 392 402 392 402 359 402 c 128,-1,45
 326 402 326 402 295 390.5 c 128,-1,46
 264 379 264 379 239.5 357.5 c 128,-1,47
 215 336 215 336 201 307 c 128,-1,48
 187 278 187 278 187 245 c 256,49,50
 187 211 187 211 201 182 c 128,-1,51
 215 153 215 153 239.5 132.5 c 128,-1,52
 264 112 264 112 295 100 c 128,-1,53
 326 88 326 88 359 88 c 0,54,55
 395 88 395 88 426.5 100.5 c 128,-1,56
 458 113 458 113 481 134 c 128,-1,57
 504 155 504 155 518 183.5 c 128,-1,40
 532 212 532 212 532 245 c 128,-1,41
EndSplineSet
EndChar
StartChar: seven
Encoding: 55 55 24
Width: 651
VWidth: 1473
Flags: W
HStem: 610 106<61.986 474>
Fore
250 3 m 2,0,1
 239 -16 239 -16 218 -22 c 128,-1,2
 197 -28 197 -28 177 -16 c 0,3,4
 158 -4 158 -4 152 16.5 c 128,-1,5
 146 37 146 37 158 56 c 2,6,-1
 474 610 l 1,7,-1
 99 610 l 2,8,9
 77 610 77 610 61.5 625.5 c 128,-1,10
 46 641 46 641 46 663 c 256,11,12
 46 685 46 685 61.5 700.5 c 128,-1,13
 77 716 77 716 99 716 c 2,14,-1
 594 716 l 1,15,-1
 594 603 l 1,16,-1
 250 3 l 2,0,1
EndSplineSet
EndChar
StartChar: eight
Encoding: 56 56 25
Width: 665
VWidth: 1473
Flags: W
HStem: -25 103<260.883 401.882> 354 88<302.869 368.562> 639 101<276.835 396.69>
VStem: 52 104<145.383 287.232> 96 107<485.791 578.884> 466 109<487.603 581.466> 514 105<148.634 281.873>
Fore
619 214 m 256,0,1
 619 158 619 158 594 113.5 c 128,-1,2
 569 69 569 69 529 38 c 128,-1,3
 489 7 489 7 438 -9 c 128,-1,4
 387 -25 387 -25 334 -25 c 256,5,6
 281 -25 281 -25 230.5 -9 c 128,-1,7
 180 7 180 7 140 38 c 128,-1,8
 100 69 100 69 76 113.5 c 128,-1,9
 52 158 52 158 52 214 c 0,10,11
 52 273 52 273 80.5 321.5 c 128,-1,12
 109 370 109 370 161 404 c 1,13,14
 130 429 130 429 113 465 c 128,-1,15
 96 501 96 501 96 539 c 0,16,17
 96 580 96 580 115 617 c 128,-1,18
 134 654 134 654 166.5 681.5 c 128,-1,19
 199 709 199 709 242.5 724.5 c 128,-1,20
 286 740 286 740 334 740 c 0,21,22
 379 740 379 740 421.5 726 c 128,-1,23
 464 712 464 712 498 686 c 128,-1,24
 532 660 532 660 553.5 622.5 c 128,-1,25
 575 585 575 585 575 539 c 0,26,27
 575 501 575 501 558 465 c 128,-1,28
 541 429 541 429 510 404 c 1,29,30
 560 374 560 374 589.5 322 c 128,-1,31
 619 270 619 270 619 214 c 256,0,1
466 539 m 0,32,33
 466 564 466 564 454.5 583.5 c 128,-1,34
 443 603 443 603 425 615.5 c 128,-1,35
 407 628 407 628 383 633.5 c 128,-1,36
 359 639 359 639 334 639 c 0,37,38
 312 639 312 639 288.5 632.5 c 128,-1,39
 265 626 265 626 246 613.5 c 128,-1,40
 227 601 227 601 215 582 c 128,-1,41
 203 563 203 563 203 539 c 0,42,43
 203 508 203 508 218 489 c 128,-1,44
 233 470 233 470 254 459.5 c 128,-1,45
 275 449 275 449 297.5 445.5 c 128,-1,46
 320 442 320 442 334 442 c 0,47,48
 352 442 352 442 374 446.5 c 128,-1,49
 396 451 396 451 417 462 c 128,-1,50
 438 473 438 473 452 491.5 c 128,-1,51
 466 510 466 510 466 539 c 0,32,33
514 214 m 0,52,53
 514 253 514 253 495 280.5 c 128,-1,54
 476 308 476 308 448 324 c 128,-1,55
 420 340 420 340 389 347 c 128,-1,56
 358 354 358 354 334 354 c 0,57,58
 330 354 330 354 302 351 c 128,-1,59
 274 348 274 348 241.5 334.5 c 128,-1,60
 209 321 209 321 182.5 293 c 128,-1,61
 156 265 156 265 156 214 c 0,62,63
 156 174 156 174 174 147.5 c 128,-1,64
 192 121 192 121 218.5 105.5 c 128,-1,65
 245 90 245 90 275 84 c 128,-1,66
 305 78 305 78 330 78 c 0,67,68
 359 78 359 78 391.5 85.5 c 128,-1,69
 424 93 424 93 451.5 109 c 128,-1,70
 479 125 479 125 496.5 151 c 128,-1,71
 514 177 514 177 514 214 c 0,52,53
EndSplineSet
EndChar
StartChar: nine
Encoding: 57 57 26
Width: 686
VWidth: 1473
Flags: W
HStem: -21 106<230.813 410.815> 208 100<232.914 417.472> 622 103<249.336 385.328>
VStem: 47 106<383.211 524.093>
Fore
626 348 m 0,0,1
 623 174 623 174 537.5 76.5 c 128,-1,2
 452 -21 452 -21 303 -21 c 0,3,4
 253 -21 253 -21 212.5 -9 c 128,-1,5
 172 3 172 3 142.5 23 c 128,-1,6
 113 43 113 43 93.5 68 c 128,-1,7
 74 93 74 93 63 121 c 0,8,9
 55 143 55 143 62 163.5 c 128,-1,10
 69 184 69 184 91 192 c 256,11,12
 113 199 113 199 133 189.5 c 128,-1,13
 153 180 153 180 162 158 c 0,14,15
 174 128 174 128 208 106.5 c 128,-1,16
 242 85 242 85 306 85 c 0,17,18
 405 85 405 85 453 137.5 c 128,-1,19
 501 190 501 190 513 289 c 1,20,21
 474 253 474 253 425.5 230.5 c 128,-1,22
 377 208 377 208 326 208 c 0,23,24
 268 208 268 208 217 225.5 c 128,-1,25
 166 243 166 243 128 275.5 c 128,-1,26
 90 308 90 308 68 354.5 c 128,-1,27
 46 401 46 401 47 460 c 0,28,29
 49 516 49 516 69.5 564.5 c 128,-1,30
 90 613 90 613 126 648.5 c 128,-1,31
 162 684 162 684 213 704.5 c 128,-1,32
 264 725 264 725 326 725 c 0,33,34
 405 725 405 725 462.5 696 c 128,-1,35
 520 667 520 667 557 616.5 c 128,-1,36
 594 566 594 566 611 496.5 c 128,-1,37
 628 427 628 427 626 348 c 0,0,1
498 464 m 0,38,39
 498 498 498 498 484 526.5 c 128,-1,40
 470 555 470 555 445.5 576.5 c 128,-1,41
 421 598 421 598 390 610 c 128,-1,42
 359 622 359 622 326 622 c 0,43,44
 290 622 290 622 258.5 609.5 c 128,-1,45
 227 597 227 597 203.5 575.5 c 128,-1,46
 180 554 180 554 166.5 525 c 128,-1,47
 153 496 153 496 153 464 c 0,48,49
 153 395 153 395 201.5 351.5 c 128,-1,50
 250 308 250 308 326 308 c 0,51,52
 399 308 399 308 448.5 351.5 c 128,-1,53
 498 395 498 395 498 464 c 0,38,39
EndSplineSet
EndChar
StartChar: colon
Encoding: 58 58 27
Width: 343
VWidth: 1473
Flags: W
HStem: -9 180<108.98 227.02> 339 180<108.98 227.02>
VStem: 78 180<21.9805 140.02 369.4 488.02>
Fore
78 429 m 256,0,1
 78 467 78 467 104 493 c 128,-1,2
 130 519 130 519 168 519 c 256,3,4
 206 519 206 519 232 493 c 128,-1,5
 258 467 258 467 258 429 c 256,6,7
 258 390 258 390 232 364.5 c 128,-1,8
 206 339 206 339 168 339 c 256,9,10
 130 339 130 339 104 364.5 c 128,-1,11
 78 390 78 390 78 429 c 256,0,1
78 81 m 256,12,13
 78 119 78 119 104 145 c 128,-1,14
 130 171 130 171 168 171 c 256,15,16
 206 171 206 171 232 145 c 128,-1,17
 258 119 258 119 258 81 c 256,18,19
 258 43 258 43 232 17 c 128,-1,20
 206 -9 206 -9 168 -9 c 256,21,22
 130 -9 130 -9 104 17 c 128,-1,23
 78 43 78 43 78 81 c 256,12,13
EndSplineSet
EndChar
StartChar: semicolon
Encoding: 59 59 28
Width: 346
VWidth: 1473
Flags: W
HStem: -29 20G<146 166.5 172 178.5> 339 180<108.98 227.02>
VStem: 67 195<-115 85 -115 -115> 78 180<369.4 488.02>
Fore
78 80 m 2,0,1
 78 103 78 103 93 125 c 128,-1,2
 108 147 108 147 130 159 c 0,3,4
 153 169 153 169 175 167 c 128,-1,5
 197 165 197 165 215 154 c 128,-1,6
 233 143 233 143 245.5 125.5 c 128,-1,7
 258 108 258 108 262 85 c 0,8,9
 271 44 271 44 262 6.5 c 128,-1,10
 253 -31 253 -31 233.5 -62 c 128,-1,11
 214 -93 214 -93 186 -115 c 128,-1,12
 158 -137 158 -137 131 -147 c 0,13,14
 110 -155 110 -155 95 -150.5 c 128,-1,15
 80 -146 80 -146 72.5 -136.5 c 128,-1,16
 65 -127 65 -127 67 -115 c 128,-1,17
 69 -103 69 -103 84 -96 c 0,18,19
 115 -82 115 -82 139.5 -64.5 c 128,-1,20
 164 -47 164 -47 180 -9 c 1,21,22
 177 -9 177 -9 172.5 -9.5 c 128,-1,23
 168 -10 168 -10 165 -10 c 0,24,25
 127 -10 127 -10 102.5 15.5 c 128,-1,26
 78 41 78 41 78 77 c 2,27,-1
 78 80 l 2,0,1
78 429 m 256,28,29
 78 467 78 467 104 493 c 128,-1,30
 130 519 130 519 168 519 c 256,31,32
 206 519 206 519 232 493 c 128,-1,33
 258 467 258 467 258 429 c 256,34,35
 258 390 258 390 232 364.5 c 128,-1,36
 206 339 206 339 168 339 c 256,37,38
 130 339 130 339 104 364.5 c 128,-1,39
 78 390 78 390 78 429 c 256,28,29
EndSplineSet
EndChar
StartChar: less
Encoding: 60 60 29
Width: 677
VWidth: 1473
Flags: W
VStem: 94 498<76.5 261 261 261>
Fore
586 32 m 256,0,1
 575 12 575 12 551 6 c 128,-1,2
 527 0 527 0 507 12 c 2,3,-1
 121 220 l 2,4,5
 106 228 106 228 101 239 c 128,-1,6
 96 250 96 250 94 261 c 0,7,8
 90 299 90 299 124 318 c 2,9,-1
 507 524 l 2,10,11
 527 536 527 536 551 529.5 c 128,-1,12
 575 523 575 523 586 502 c 256,13,14
 598 482 598 482 591.5 459 c 128,-1,15
 585 436 585 436 564 424 c 0,16,17
 499 392 499 392 440 362 c 0,18,19
 389 337 389 337 337.5 310.5 c 128,-1,20
 286 284 286 284 253 268 c 1,21,-1
 564 112 l 2,22,23
 586 100 586 100 592 76.5 c 128,-1,24
 598 53 598 53 586 32 c 256,0,1
EndSplineSet
EndChar
StartChar: equal
Encoding: 61 61 30
Width: 692
VWidth: 1473
Flags: W
HStem: 97 318<149 538 149 538 149 149> 97 109<103.08 583.92> 305 110<103.08 583.92>
Fore
603 361 m 0,0,1
 603 340 603 340 589 322.5 c 128,-1,2
 575 305 575 305 538 305 c 2,3,-1
 149 305 l 2,4,5
 121 305 121 305 102.5 318 c 128,-1,6
 84 331 84 331 84 361 c 0,7,8
 84 389 84 389 102.5 402 c 128,-1,9
 121 415 121 415 149 415 c 2,10,-1
 538 415 l 2,11,12
 566 415 566 415 584.5 401 c 128,-1,13
 603 387 603 387 603 361 c 0,0,1
603 152 m 0,14,15
 603 131 603 131 589 114 c 128,-1,16
 575 97 575 97 538 97 c 2,17,-1
 149 97 l 2,18,19
 121 97 121 97 102.5 109.5 c 128,-1,20
 84 122 84 122 84 152 c 256,21,22
 84 181 84 181 102.5 193.5 c 128,-1,23
 121 206 121 206 149 206 c 2,24,-1
 538 206 l 2,25,26
 566 206 566 206 584.5 193 c 128,-1,27
 603 180 603 180 603 152 c 0,14,15
EndSplineSet
EndChar
StartChar: greater
Encoding: 62 62 31
Width: 677
VWidth: 1473
Flags: W
VStem: 97 498<76.5 261 76.5 76.5>
Fore
595 261 m 0,0,1
 594 250 594 250 588.5 239 c 128,-1,2
 583 228 583 228 569 220 c 2,3,-1
 183 12 l 2,4,5
 162 0 162 0 138.5 6 c 128,-1,6
 115 12 115 12 103 32 c 256,7,8
 91 53 91 53 97 76.5 c 128,-1,9
 103 100 103 100 125 112 c 2,10,-1
 436 268 l 1,11,12
 404 284 404 284 351.5 310.5 c 128,-1,13
 299 337 299 337 249 362 c 2,14,-1
 125 424 l 2,15,16
 105 436 105 436 98 459 c 128,-1,17
 91 482 91 482 103 502 c 256,18,19
 115 523 115 523 138.5 529.5 c 128,-1,20
 162 536 162 536 183 524 c 2,21,-1
 566 318 l 2,22,23
 600 299 600 299 595 261 c 0,0,1
EndSplineSet
EndChar
StartChar: question
Encoding: 63 63 32
Width: 677
VWidth: 1473
Flags: W
HStem: -16 144<209.69 314.31> 644 107<251.373 428.314>
VStem: 187 150<6.17371 105.826> 208 109<196.08 262.783> 485.5 114.5<493.301 543.5>
Fore
600 522 m 256,0,1
 600 474 600 474 584.5 438 c 128,-1,2
 569 402 569 402 541.5 377 c 128,-1,3
 514 352 514 352 478.5 336 c 128,-1,4
 443 320 443 320 404 311 c 0,5,6
 387 308 387 308 372.5 304.5 c 128,-1,7
 358 301 358 301 346 292 c 0,8,9
 333 283 333 283 325 272 c 128,-1,10
 317 261 317 261 317 236 c 0,11,12
 317 199 317 199 300 188 c 128,-1,13
 283 177 283 177 262 177 c 0,14,15
 231 177 231 177 220 195.5 c 128,-1,16
 209 214 209 214 208 242 c 0,17,18
 208 287 208 287 224 318 c 128,-1,19
 240 349 240 349 295 383 c 0,20,21
 314 395 314 395 335.5 401.5 c 128,-1,22
 357 408 357 408 377 412 c 0,23,24
 442 427 442 427 468 465.5 c 128,-1,25
 494 504 494 504 485.5 543.5 c 128,-1,26
 477 583 477 583 440.5 613.5 c 128,-1,27
 404 644 404 644 342 644 c 0,28,29
 295 644 295 644 250.5 622.5 c 128,-1,30
 206 601 206 601 172 564 c 0,31,32
 156 548 156 548 132.5 547.5 c 128,-1,33
 109 547 109 547 93 563 c 256,34,35
 77 579 77 579 76 602 c 128,-1,36
 75 625 75 625 91 641 c 0,37,38
 143 694 143 694 205 722.5 c 128,-1,39
 267 751 267 751 339 751 c 0,40,41
 405 751 405 751 453.5 733 c 128,-1,42
 502 715 502 715 534.5 684 c 128,-1,43
 567 653 567 653 583.5 611 c 128,-1,44
 600 569 600 569 600 522 c 256,0,1
337 56 m 256,45,46
 337 27 337 27 315 5.5 c 128,-1,47
 293 -16 293 -16 262 -16 c 256,48,49
 231 -16 231 -16 209 5.5 c 128,-1,50
 187 27 187 27 187 56 c 256,51,52
 187 85 187 85 209 106.5 c 128,-1,53
 231 128 231 128 262 128 c 256,54,55
 293 128 293 128 315 106.5 c 128,-1,56
 337 85 337 85 337 56 c 256,45,46
EndSplineSet
EndChar
StartChar: at
Encoding: 64 64 33
Width: 1022
VWidth: 1473
Flags: W
HStem: -64 77<376.234 533.242 533.242 538.417 538.417 596 623 679.883> 131 72<384.122 520.603> 392 74<439.466 600.805> 533 75<454.422 619.014> 709.5 76.5<481.406 655.347>
VStem: 284 70<248.436 339.952> 653 74<409.077 473.141> 838 72<377.207 450.802 450.802 495.5 495.5 523.018>
Fore
902 346 m 0,0,1
 887 277 887 277 851 229 c 128,-1,2
 815 181 815 181 762 150 c 0,3,4
 747 141 747 141 728.5 136 c 128,-1,5
 710 131 710 131 691.5 129.5 c 128,-1,6
 673 128 673 128 657.5 132.5 c 128,-1,7
 642 137 642 137 632 146 c 0,8,9
 626 150 626 150 621 159.5 c 128,-1,10
 616 169 616 169 614 184 c 1,11,12
 582 156 582 156 540.5 143.5 c 128,-1,13
 499 131 499 131 457 131 c 256,14,15
 414 131 414 131 381 144.5 c 128,-1,16
 348 158 348 158 325 181.5 c 128,-1,17
 302 205 302 205 291 236.5 c 128,-1,18
 280 268 280 268 284 303 c 0,19,20
 293 380 293 380 352.5 423 c 128,-1,21
 412 466 412 466 513 466 c 0,22,23
 563 466 563 466 598 449 c 128,-1,24
 633 432 633 432 653 408 c 1,25,26
 661 463 661 463 641 489 c 0,27,28
 614 533 614 533 524 533 c 0,29,30
 491 533 491 533 462 525 c 128,-1,31
 433 517 433 517 399 498 c 0,32,33
 376 485 376 485 364 490.5 c 128,-1,34
 352 496 352 496 349 502 c 0,35,36
 339 519 339 519 346.5 534.5 c 128,-1,37
 354 550 354 550 370 560 c 0,38,39
 446 608 446 608 536 608 c 0,40,41
 656 608 656 608 703 538 c 0,42,43
 726 502 726 502 727 462.5 c 128,-1,44
 728 423 728 423 720 390 c 2,45,-1
 715 368 l 2,46,47
 710 352 710 352 702 314.5 c 128,-1,48
 694 277 694 277 678 209 c 0,49,50
 675 197 675 197 681.5 194.5 c 128,-1,51
 688 192 688 192 697 193 c 0,52,53
 707 194 707 194 720 200 c 0,54,55
 757 218 757 218 789.5 258 c 128,-1,56
 822 298 822 298 834 359 c 1,57,58
 832 354 832 354 836.5 376.5 c 128,-1,59
 841 399 841 399 838 438 c 128,-1,60
 835 477 835 477 819.5 524.5 c 128,-1,61
 804 572 804 572 763 616 c 0,62,63
 723 659 723 659 669.5 682.5 c 128,-1,64
 616 706 616 706 557 709.5 c 128,-1,65
 498 713 498 713 439 697.5 c 128,-1,66
 380 682 380 682 329 649.5 c 128,-1,67
 278 617 278 617 240.5 566.5 c 128,-1,68
 203 516 203 516 189 449 c 0,69,70
 164 340 164 340 180.5 266.5 c 128,-1,71
 197 193 197 193 232 145 c 128,-1,72
 267 97 267 97 306 73 c 128,-1,73
 345 49 345 49 365 40 c 0,74,75
 408 19 408 19 470.5 13 c 128,-1,76
 533 7 533 7 596 15.5 c 128,-1,77
 659 24 659 24 714 47.5 c 128,-1,78
 769 71 769 71 797 110 c 0,79,80
 804 122 804 122 821 130 c 128,-1,81
 838 138 838 138 854 130 c 0,82,83
 868 121 868 121 873 105.5 c 128,-1,84
 878 90 878 90 868 75 c 0,85,86
 834 21 834 21 767.5 -12.5 c 128,-1,87
 701 -46 701 -46 623 -58.5 c 128,-1,88
 545 -71 545 -71 466 -64 c 128,-1,89
 387 -57 387 -57 331 -31 c 0,90,91
 268 -1 268 -1 218 46.5 c 128,-1,92
 168 94 168 94 137 157 c 128,-1,93
 106 220 106 220 98.5 298 c 128,-1,94
 91 376 91 376 112 467 c 0,95,96
 131 550 131 550 176.5 611.5 c 128,-1,97
 222 673 222 673 284 713.5 c 128,-1,98
 346 754 346 754 418.5 772.5 c 128,-1,99
 491 791 491 791 563 786 c 128,-1,100
 635 781 635 781 702 752 c 128,-1,101
 769 723 769 723 821 670 c 0,102,103
 859 629 859 629 879 584 c 128,-1,104
 899 539 899 539 906 495.5 c 128,-1,105
 913 452 913 452 910 413 c 128,-1,106
 907 374 907 374 902 346 c 0,0,1
626 301 m 0,107,108
 635 337 635 337 617 359 c 0,109,110
 589 392 589 392 510 392 c 0,111,112
 482 392 482 392 455.5 386 c 128,-1,113
 429 380 429 380 407 369 c 128,-1,114
 385 358 385 358 370 340.5 c 128,-1,115
 355 323 355 323 354 301 c 0,116,117
 348 250 348 250 381 226.5 c 128,-1,118
 414 203 414 203 463 203 c 256,119,120
 511 203 511 203 542 215 c 128,-1,121
 573 227 573 227 590.5 243 c 128,-1,122
 608 259 608 259 615.5 275.5 c 128,-1,123
 623 292 623 292 626 301 c 0,107,108
EndSplineSet
EndChar
StartChar: A
Encoding: 65 65 34
Width: 730
VWidth: 1473
Flags: W
HStem: 0 21G<107.5 125.5 612.5 630.5> 302 109<169 564> 617 103<262.674 471.974>
VStem: 60 109<14.9586 302 411 482.59> 564 109<14.9586 302 411 480.629>
Fore
673 66 m 2,0,1
 673 29 673 29 657 14.5 c 128,-1,2
 641 0 641 0 620 0 c 0,3,4
 605 0 605 0 584.5 12 c 128,-1,5
 564 24 564 24 564 66 c 2,6,-1
 564 302 l 1,7,-1
 169 302 l 1,8,-1
 169 66 l 2,9,10
 169 29 169 29 152.5 14.5 c 128,-1,11
 136 0 136 0 115 0 c 0,12,13
 100 0 100 0 80 12 c 128,-1,14
 60 24 60 24 60 66 c 2,15,-1
 60 433 l 2,16,17
 60 491 60 491 76.5 542.5 c 128,-1,18
 93 594 93 594 129 633.5 c 128,-1,19
 165 673 165 673 224 696.5 c 128,-1,20
 283 720 283 720 368 720 c 0,21,22
 452 720 452 720 510.5 697.5 c 128,-1,23
 569 675 569 675 605 636 c 128,-1,24
 641 597 641 597 657 545.5 c 128,-1,25
 673 494 673 494 673 438 c 2,26,-1
 673 66 l 2,0,1
566 442 m 2,27,28
 566 474 566 474 557 505 c 128,-1,29
 548 536 548 536 526 561 c 128,-1,30
 504 586 504 586 465.5 601.5 c 128,-1,31
 427 617 427 617 368 617 c 0,32,33
 308 617 308 617 269 601.5 c 128,-1,34
 230 586 230 586 208 561 c 128,-1,35
 186 536 186 536 177.5 505 c 128,-1,36
 169 474 169 474 169 442 c 2,37,-1
 169 411 l 1,38,-1
 566 411 l 1,39,-1
 566 442 l 2,27,28
EndSplineSet
EndChar
StartChar: B
Encoding: 66 66 35
Width: 730
VWidth: 1473
Flags: W
HStem: 0 105<258.781 470.163> 302 109<246.596 523.2> 613 110<309.809 451.921>
VStem: 60 109<177.237 549.184> 566 110<163.825 266.287 446.864 557.117>
Fore
318 0 m 2,0,1
 270 0 270 0 223.5 13.5 c 128,-1,2
 177 27 177 27 141 55.5 c 128,-1,3
 105 84 105 84 82.5 127.5 c 128,-1,4
 60 171 60 171 60 231 c 2,5,-1
 60 485 l 2,6,7
 60 552 60 552 87.5 598 c 128,-1,8
 115 644 115 644 159 672 c 128,-1,9
 203 700 203 700 258.5 711.5 c 128,-1,10
 314 723 314 723 370 723 c 0,11,12
 429 723 429 723 484 708.5 c 128,-1,13
 539 694 539 694 582 665 c 128,-1,14
 625 636 625 636 650.5 595 c 128,-1,15
 676 554 676 554 676 499 c 0,16,17
 676 404 676 404 595 358 c 1,18,19
 638 334 638 334 657 293.5 c 128,-1,20
 676 253 676 253 676 206 c 0,21,22
 676 121 676 121 611 59 c 0,23,24
 597 44 597 44 575.5 33 c 128,-1,25
 554 22 554 22 529.5 14.5 c 128,-1,26
 505 7 505 7 480 3.5 c 128,-1,27
 455 0 455 0 435 0 c 2,28,-1
 318 0 l 2,0,1
427 411 m 2,29,30
 483 408 483 408 524.5 431.5 c 128,-1,31
 566 455 566 455 566 505 c 0,32,33
 566 535 566 535 548 555.5 c 128,-1,34
 530 576 530 576 502 588.5 c 128,-1,35
 474 601 474 601 439 607 c 128,-1,36
 404 613 404 613 370 613 c 0,37,38
 337 613 337 613 302 608.5 c 128,-1,39
 267 604 267 604 237.5 590 c 128,-1,40
 208 576 208 576 188.5 550 c 128,-1,41
 169 524 169 524 169 482 c 2,42,-1
 169 236 l 2,43,44
 169 200 169 200 181 176.5 c 128,-1,45
 193 153 193 153 213 137.5 c 128,-1,46
 233 122 233 122 258 115 c 128,-1,47
 283 108 283 108 309 105 c 2,48,-1
 435 105 l 2,49,50
 460 105 460 105 483.5 111.5 c 128,-1,51
 507 118 507 118 525.5 130.5 c 128,-1,52
 544 143 544 143 555 162 c 128,-1,53
 566 181 566 181 566 206 c 0,54,55
 566 302 566 302 427 302 c 2,56,-1
 293 302 l 2,57,58
 256 302 256 302 241.5 319.5 c 128,-1,59
 227 337 227 337 227 358 c 0,60,61
 227 387 227 387 246 399 c 128,-1,62
 265 411 265 411 293 411 c 2,63,-1
 427 411 l 2,29,30
EndSplineSet
EndChar
StartChar: C
Encoding: 67 67 36
Width: 687
VWidth: 1473
Flags: W
HStem: -7.5 110<342.902 442.469> 610 110<285.372 493.927>
VStem: 43 112<248.623 479.233>
Fore
648 613 m 0,0,1
 664 597 664 597 663.5 573.5 c 128,-1,2
 663 550 663 550 647 533 c 256,3,4
 631 517 631 517 607 518 c 128,-1,5
 583 519 583 519 567 535 c 0,6,7
 496 610 496 610 396 610 c 0,8,9
 289 610 289 610 222 546.5 c 128,-1,10
 155 483 155 483 155 358 c 0,11,12
 155 296 155 296 172.5 252.5 c 128,-1,13
 190 209 190 209 216 179.5 c 128,-1,14
 242 150 242 150 271.5 133 c 128,-1,15
 301 116 301 116 326 110 c 0,16,17
 362 100 362 100 398.5 102.5 c 128,-1,18
 435 105 435 105 465.5 116 c 128,-1,19
 496 127 496 127 522 144 c 128,-1,20
 548 161 548 161 567 180 c 0,21,22
 579 193 579 193 604 196 c 128,-1,23
 629 199 629 199 645 181 c 0,24,25
 667 159 667 159 661.5 134.5 c 128,-1,26
 656 110 656 110 647 102 c 0,27,28
 607 60 607 60 562 36 c 128,-1,29
 517 12 517 12 472 1.5 c 128,-1,30
 427 -9 427 -9 382 -7.5 c 128,-1,31
 337 -6 337 -6 298 3 c 0,32,33
 255 13 255 13 210 41 c 128,-1,34
 165 69 165 69 127.5 115 c 128,-1,35
 90 161 90 161 66.5 222 c 128,-1,36
 43 283 43 283 43 358 c 0,37,38
 43 436 43 436 68 502.5 c 128,-1,39
 93 569 93 569 139.5 617.5 c 128,-1,40
 186 666 186 666 251.5 693 c 128,-1,41
 317 720 317 720 396 720 c 0,42,43
 468 720 468 720 533 692 c 128,-1,44
 598 664 598 664 648 613 c 0,0,1
EndSplineSet
EndChar
StartChar: D
Encoding: 68 68 37
Width: 723
VWidth: 1473
Flags: W
HStem: -1 107<216.002 264.308 264.308 290 290 303.327 303.327 348.195> 608 109<202.397 242 242 300.177 300.177 303.327 303.327 346.754>
VStem: 62 109<119.308 589.438> 570 109<243.07 472.93>
Fore
679 358 m 256,0,1
 679 199 679 199 580 103 c 0,2,3
 538 62 538 62 488 40.5 c 128,-1,4
 438 19 438 19 394.5 9.5 c 128,-1,5
 351 0 351 0 320.5 -0.5 c 128,-1,6
 290 -1 290 -1 287 -1 c 2,7,-1
 240 -1 l 2,8,9
 208 -1 208 -1 174.5 10.5 c 128,-1,10
 141 22 141 22 115.5 42.5 c 128,-1,11
 90 63 90 63 74.5 92 c 128,-1,12
 59 121 59 121 62 155 c 2,13,-1
 62 557 l 2,14,15
 62 592 62 592 76 621.5 c 128,-1,16
 90 651 90 651 114 672.5 c 128,-1,17
 138 694 138 694 170.5 705.5 c 128,-1,18
 203 717 203 717 242 717 c 2,19,-1
 287 717 l 2,20,21
 290 717 290 717 320.5 716.5 c 128,-1,22
 351 716 351 716 394.5 706.5 c 128,-1,23
 438 697 438 697 488 675.5 c 128,-1,24
 538 654 538 654 580 613 c 0,25,26
 679 517 679 517 679 358 c 256,0,1
570 358 m 256,27,28
 570 473 570 473 505 535 c 0,29,30
 474 563 474 563 437.5 578.5 c 128,-1,31
 401 594 401 594 367.5 600.5 c 128,-1,32
 334 607 334 607 312 607.5 c 128,-1,33
 290 608 290 608 289 608 c 2,34,-1
 243 608 l 2,35,36
 205 608 205 608 188 590 c 128,-1,37
 171 572 171 572 171 555 c 2,38,-1
 171 155 l 2,39,40
 171 130 171 130 194 118 c 128,-1,41
 217 106 217 106 242 106 c 0,42,43
 274 106 274 106 286 107 c 128,-1,44
 298 108 298 108 298.5 108 c 128,-1,45
 299 108 299 108 297 108 c 2,46,-1
 290 108 l 1,47,48
 313 108.5 l 2,49,50
 336 109 336 109 368.5 115.5 c 128,-1,51
 401 122 401 122 437.5 137 c 128,-1,52
 474 152 474 152 505 181 c 0,53,54
 570 243 570 243 570 358 c 256,27,28
EndSplineSet
EndChar
StartChar: E
Encoding: 69 69 38
Width: 695
VWidth: 1473
Flags: W
HStem: -7 110<295.744 452.187> 302 110<149 458.889> 613 110<299.854 452.187>
VStem: 40 109<164.333 302 412 549.184>
Fore
40 485 m 2,0,1
 40 552 40 552 68.5 598 c 128,-1,2
 97 644 97 644 143.5 672 c 128,-1,3
 190 700 190 700 247.5 711.5 c 128,-1,4
 305 723 305 723 361 723 c 0,5,6
 408 723 408 723 452 715 c 128,-1,7
 496 707 496 707 534 691 c 128,-1,8
 572 675 572 675 601.5 652 c 128,-1,9
 631 629 631 629 648 600 c 0,10,11
 660 579 660 579 657 558.5 c 128,-1,12
 654 538 654 538 633 526 c 256,13,14
 613 514 613 514 591.5 520.5 c 128,-1,15
 570 527 570 527 555 545 c 0,16,17
 533 575 533 575 484.5 594 c 128,-1,18
 436 613 436 613 361 613 c 0,19,20
 329 613 329 613 291 608.5 c 128,-1,21
 253 604 253 604 221.5 590 c 128,-1,22
 190 576 190 576 169.5 550 c 128,-1,23
 149 524 149 524 149 482 c 2,24,-1
 149 412 l 1,25,-1
 412 411 l 2,26,27
 440 411 440 411 459.5 399 c 128,-1,28
 479 387 479 387 479 358 c 0,29,30
 479 337 479 337 464 319.5 c 128,-1,31
 449 302 449 302 412 302 c 2,32,-1
 149 302 l 1,33,-1
 149 236 l 2,34,35
 149 190 149 190 169.5 163.5 c 128,-1,36
 190 137 190 137 221.5 123.5 c 128,-1,37
 253 110 253 110 291 106.5 c 128,-1,38
 329 103 329 103 361 103 c 0,39,40
 436 103 436 103 484.5 122 c 128,-1,41
 533 141 533 141 555 171 c 0,42,43
 570 189 570 189 591.5 195.5 c 128,-1,44
 613 202 613 202 633 190 c 256,45,46
 654 178 654 178 657 157.5 c 128,-1,47
 660 137 660 137 648 116 c 0,48,49
 631 87 631 87 601.5 64 c 128,-1,50
 572 41 572 41 534 25 c 128,-1,51
 496 9 496 9 452 1 c 128,-1,52
 408 -7 408 -7 361 -7 c 0,53,54
 305 -7 305 -7 247.5 4.5 c 128,-1,55
 190 16 190 16 143.5 44 c 128,-1,56
 97 72 97 72 68.5 118 c 128,-1,57
 40 164 40 164 40 231 c 2,58,-1
 40 485 l 2,0,1
EndSplineSet
EndChar
StartChar: F
Encoding: 70 70 39
Width: 701
VWidth: 1473
Flags: W
HStem: -1 21G<100.5 126.5> 302 109<171 481.404> 613 110<321.854 474.294>
VStem: 62 107<18.5959 177.777 177.777 301.781 414.893 549.184>
Fore
62 485 m 0,0,1
 62 552 62 552 90.5 598 c 128,-1,2
 119 644 119 644 165.5 672 c 128,-1,3
 212 700 212 700 269.5 711.5 c 128,-1,4
 327 723 327 723 383 723 c 0,5,6
 430 723 430 723 474.5 715 c 128,-1,7
 519 707 519 707 556.5 691 c 128,-1,8
 594 675 594 675 623.5 652 c 128,-1,9
 653 629 653 629 670 600 c 0,10,11
 682 579 682 579 679 558.5 c 128,-1,12
 676 538 676 538 656 526 c 256,13,14
 635 514 635 514 613.5 520.5 c 128,-1,15
 592 527 592 527 577 545 c 0,16,17
 555 575 555 575 506.5 594 c 128,-1,18
 458 613 458 613 383 613 c 0,19,20
 351 613 351 613 313 608.5 c 128,-1,21
 275 604 275 604 243.5 590 c 128,-1,22
 212 576 212 576 191.5 550 c 128,-1,23
 171 524 171 524 171 482 c 2,24,-1
 171 411 l 1,25,-1
 435 411 l 2,26,27
 463 411 463 411 482 399 c 128,-1,28
 501 387 501 387 501 358 c 0,29,30
 501 337 501 337 486 319.5 c 128,-1,31
 471 302 471 302 435 302 c 2,32,-1
 169 302 l 1,33,-1
 169 65 l 2,34,35
 169 28 169 28 153 13.5 c 128,-1,36
 137 -1 137 -1 116 -1 c 0,37,38
 85 -1 85 -1 74 18 c 128,-1,39
 63 37 63 37 62 65 c 2,40,-1
 62 116 l 2,41,42
 62 155 62 155 61 241 c 128,-1,43
 60 327 60 327 62 485 c 0,0,1
EndSplineSet
EndChar
StartChar: G
Encoding: 71 71 40
Width: 764
VWidth: 1473
Flags: W
HStem: -6 111<291.543 458.819> 301 110<263.721 603.902> 613 110<286.609 522.961>
VStem: 50 112<236.058 481.204> 607 110<173.658 287.078>
Fore
405 723 m 0,0,1
 511 723 511 723 580.5 688.5 c 128,-1,2
 650 654 650 654 688 598 c 0,3,4
 701 577 701 577 697.5 556 c 128,-1,5
 694 535 694 535 673 523 c 256,6,7
 653 511 653 511 632 518.5 c 128,-1,8
 611 526 611 526 595 542 c 0,9,10
 566 570 566 570 524 591.5 c 128,-1,11
 482 613 482 613 407 613 c 0,12,13
 281 613 281 613 221.5 544.5 c 128,-1,14
 162 476 162 476 162 357 c 0,15,16
 162 236 162 236 227 170.5 c 128,-1,17
 292 105 292 105 407 105 c 0,18,19
 442 105 442 105 478 113 c 128,-1,20
 514 121 514 121 543 136.5 c 128,-1,21
 572 152 572 152 589.5 173 c 128,-1,22
 607 194 607 194 607 221 c 2,23,-1
 607 258 l 2,24,25
 607 274 607 274 604 287.5 c 128,-1,26
 601 301 601 301 579 301 c 2,27,-1
 317 301 l 2,28,29
 286 301 286 301 263 313.5 c 128,-1,30
 240 326 240 326 240 357 c 0,31,32
 240 386 240 386 263 398.5 c 128,-1,33
 286 411 286 411 317 411 c 2,34,-1
 579 411 l 2,35,36
 650 411 650 411 683.5 371 c 128,-1,37
 717 331 717 331 717 275 c 2,38,-1
 717 221 l 2,39,40
 717 171 717 171 698 137 c 128,-1,41
 679 103 679 103 651 75 c 0,42,43
 645 69 645 69 626.5 56 c 128,-1,44
 608 43 608 43 577.5 29 c 128,-1,45
 547 15 547 15 504 4.5 c 128,-1,46
 461 -6 461 -6 407 -6 c 0,47,48
 324 -6 324 -6 258.5 20.5 c 128,-1,49
 193 47 193 47 146.5 95 c 128,-1,50
 100 143 100 143 75 209 c 128,-1,51
 50 275 50 275 50 357 c 256,52,53
 50 438 50 438 73.5 505.5 c 128,-1,54
 97 573 97 573 143 621.5 c 128,-1,55
 189 670 189 670 255 696.5 c 128,-1,56
 321 723 321 723 405 723 c 0,0,1
EndSplineSet
EndChar
StartChar: H
Encoding: 72 72 41
Width: 746
VWidth: 1473
Flags: W
HStem: 0 21G<107.5 132.5 613 638> 302 109<177 573> 697 20G<107.5 136 613 642>
VStem: 68 109<19.5957 302 411 697.405> 573 109<19.0804 302 411 697.405>
Fore
682 65 m 1,0,1
 682 28 682 28 665 14 c 128,-1,2
 648 0 648 0 628 0 c 0,3,4
 598 0 598 0 585.5 18.5 c 128,-1,5
 573 37 573 37 573 65 c 2,6,-1
 573 302 l 1,7,-1
 177 302 l 1,8,-1
 177 65 l 2,9,10
 177 28 177 28 160 14 c 128,-1,11
 143 0 143 0 122 0 c 0,12,13
 93 0 93 0 80.5 19 c 128,-1,14
 68 38 68 38 68 65 c 2,15,-1
 68 653 l 2,16,17
 68 679 68 679 80.5 698 c 128,-1,18
 93 717 93 717 122 717 c 0,19,20
 150 717 150 717 163.5 698 c 128,-1,21
 177 679 177 679 177 653 c 2,22,-1
 177 411 l 1,23,-1
 573 411 l 1,24,-1
 573 653 l 2,25,26
 573 681 573 681 585.5 699 c 128,-1,27
 598 717 598 717 628 717 c 0,28,29
 656 717 656 717 669 698 c 128,-1,30
 682 679 682 679 682 653 c 2,31,-1
 682 65 l 1,0,1
EndSplineSet
EndChar
StartChar: I
Encoding: 73 73 42
Width: 244
VWidth: 1473
Flags: W
HStem: 0 21G<109 133.5> 697 20G<109 137>
VStem: 69 109<19.0804 697.405>
Fore
178 65 m 1,0,1
 178 28 178 28 160.5 14 c 128,-1,2
 143 0 143 0 124 0 c 0,3,4
 94 0 94 0 81.5 18.5 c 128,-1,5
 69 37 69 37 69 65 c 2,6,-1
 69 653 l 2,7,8
 69 681 69 681 81.5 699 c 128,-1,9
 94 717 94 717 124 717 c 0,10,11
 150 717 150 717 164 698 c 128,-1,12
 178 679 178 679 178 653 c 2,13,-1
 178 65 l 1,0,1
EndSplineSet
EndChar
StartChar: J
Encoding: 74 74 43
Width: 598
VWidth: 1473
Flags: W
HStem: -9 108<198.178 326.445>
VStem: 29 109<156.759 356.374> 420 109<157.781 239 239 690.92>
Fore
529 239 m 1,0,1
 529 164 529 164 501 115 c 128,-1,2
 473 66 473 66 435.5 39 c 128,-1,3
 398 12 398 12 358 1.5 c 128,-1,4
 318 -9 318 -9 296 -9 c 2,5,-1
 271 -9 l 2,6,7
 222 -9 222 -9 178 7.5 c 128,-1,8
 134 24 134 24 101 54.5 c 128,-1,9
 68 85 68 85 48.5 129.5 c 128,-1,10
 29 174 29 174 29 228 c 2,11,-1
 29 311 l 2,12,13
 29 337 29 337 42 357 c 128,-1,14
 55 377 55 377 84 377 c 0,15,16
 112 377 112 377 125 357 c 128,-1,17
 138 337 138 337 138 311 c 2,18,-1
 138 228 l 2,19,20
 138 172 138 172 178 135.5 c 128,-1,21
 218 99 218 99 284 99 c 0,22,23
 337 99 337 99 378.5 135 c 128,-1,24
 420 171 420 171 420 239 c 2,25,-1
 420 645 l 2,26,27
 420 673 420 673 433 691.5 c 128,-1,28
 446 710 446 710 473 710 c 0,29,30
 502 710 502 710 515.5 691.5 c 128,-1,31
 529 673 529 673 529 645 c 2,32,-1
 529 239 l 1,0,1
EndSplineSet
EndChar
StartChar: K
Encoding: 75 75 44
Width: 686
VWidth: 1473
Flags: W
HStem: 0 21G<109 133.5> 699 20G<109 137>
VStem: 68 109<19.5957 65 65 315 443 698.374> 552 111<-8.21377 129.58>
Fore
663 52 m 0,0,1
 667 29 667 29 654 10 c 128,-1,2
 641 -9 641 -9 619 -13 c 0,3,4
 595 -18 595 -18 576 -4 c 128,-1,5
 557 10 557 10 552 32 c 0,6,7
 538 113 538 113 502.5 176 c 128,-1,8
 467 239 467 239 426 283 c 128,-1,9
 385 327 385 327 347 353.5 c 128,-1,10
 309 380 309 380 290 390 c 1,11,-1
 177 315 l 1,12,-1
 177 66 l 2,13,14
 177 29 177 29 160 14.5 c 128,-1,15
 143 0 143 0 124 0 c 0,16,17
 94 0 94 0 81 19 c 128,-1,18
 68 38 68 38 68 65 c 2,19,-1
 68 653 l 2,20,21
 68 681 68 681 81 700 c 128,-1,22
 94 719 94 719 124 719 c 0,23,24
 150 719 150 719 163.5 699 c 128,-1,25
 177 679 177 679 177 653 c 2,26,-1
 177 443 l 1,27,28
 183 446 183 446 227 476 c 0,29,30
 246 489 246 489 274.5 508 c 128,-1,31
 303 527 303 527 346.5 556 c 128,-1,32
 390 585 390 585 448.5 623 c 128,-1,33
 507 661 507 661 583 713 c 1,34,35
 600 720 600 720 614 716 c 128,-1,36
 628 712 628 712 635 704 c 0,37,38
 656 679 656 679 650 657.5 c 128,-1,39
 644 636 644 636 635 631 c 2,40,-1
 382 454 l 1,41,42
 417 432 417 432 459 397 c 128,-1,43
 501 362 501 362 541.5 312 c 128,-1,44
 582 262 582 262 614.5 197.5 c 128,-1,45
 647 133 647 133 663 52 c 0,0,1
EndSplineSet
EndChar
StartChar: L
Encoding: 76 76 45
Width: 664
VWidth: 1473
Flags: W
HStem: -1 109<192.246 621.889> 696 20G<113.5 141.5>
VStem: 72 109<121.445 696.404>
Fore
642 55 m 0,0,1
 642 34 642 34 627.5 16.5 c 128,-1,2
 613 -1 613 -1 576 -1 c 2,3,-1
 212 -1 l 2,4,5
 150 -1 150 -1 111 39.5 c 128,-1,6
 72 80 72 80 72 140 c 2,7,-1
 72 651 l 2,8,9
 72 679 72 679 85.5 697.5 c 128,-1,10
 99 716 99 716 128 716 c 0,11,12
 155 716 155 716 168 697 c 128,-1,13
 181 678 181 678 181 651 c 2,14,-1
 181 137 l 2,15,16
 181 124 181 124 189 114.5 c 128,-1,17
 197 105 197 105 212 108 c 1,18,-1
 576 108 l 2,19,20
 603 108 603 108 622.5 94.5 c 128,-1,21
 642 81 642 81 642 55 c 0,0,1
EndSplineSet
EndChar
StartChar: M
Encoding: 77 77 46
Width: 1025
VWidth: 1473
Flags: W
HStem: -7 21G<108 132.5 499 523 889.5 914.5> 617 109<237.306 379.022 636.781 650.5 683.5 685.784 685.784 798.587>
VStem: 68 110<12.5959 526.898> 458 111<13.1112 561.182> 849 109<12.5959 569.062>
Fore
958 59 m 1,0,1
 958 22 958 22 941 7.5 c 128,-1,2
 924 -7 924 -7 905 -7 c 0,3,4
 874 -7 874 -7 861.5 12 c 128,-1,5
 849 31 849 31 849 59 c 2,6,-1
 849 489 l 2,7,8
 849 617 849 617 706 617 c 2,9,10
 683.5 615 l 2,11,12
 661 613 661 613 636 600.5 c 128,-1,13
 611 588 611 588 590 562 c 128,-1,14
 569 536 569 536 569 489 c 2,15,-1
 569 59 l 2,16,17
 569 22 569 22 551 7.5 c 128,-1,18
 533 -7 533 -7 513 -7 c 0,19,20
 485 -7 485 -7 471.5 12.5 c 128,-1,21
 458 32 458 32 458 59 c 2,22,-1
 458 489 l 2,23,24
 458 547 458 547 417.5 582 c 128,-1,25
 377 617 377 617 321 617 c 0,26,27
 274 617 274 617 245.5 604.5 c 128,-1,28
 217 592 217 592 202 573.5 c 128,-1,29
 187 555 187 555 182.5 532.5 c 128,-1,30
 178 510 178 510 178 489 c 2,31,-1
 178 59 l 2,32,33
 178 22 178 22 160.5 7.5 c 128,-1,34
 143 -7 143 -7 122 -7 c 0,35,36
 94 -7 94 -7 81 12 c 128,-1,37
 68 31 68 31 68 59 c 2,38,-1
 68 489 l 2,39,40
 68 550 68 550 88 594.5 c 128,-1,41
 108 639 108 639 142.5 668.5 c 128,-1,42
 177 698 177 698 222.5 712 c 128,-1,43
 268 726 268 726 321 726 c 0,44,45
 346 726 346 726 375 719.5 c 128,-1,46
 404 713 404 713 430.5 700.5 c 128,-1,47
 457 688 457 688 479.5 669.5 c 128,-1,48
 502 651 502 651 514 629 c 1,49,50
 526 651 526 651 547.5 669.5 c 128,-1,51
 569 688 569 688 595.5 700.5 c 128,-1,52
 622 713 622 713 650.5 719.5 c 128,-1,53
 679 726 679 726 706 726 c 0,54,55
 760 726 760 726 806.5 710.5 c 128,-1,56
 853 695 853 695 886 665.5 c 128,-1,57
 919 636 919 636 938.5 592 c 128,-1,58
 958 548 958 548 958 489 c 2,59,-1
 958 59 l 1,0,1
EndSplineSet
EndChar
StartChar: N
Encoding: 78 78 47
Width: 717
VWidth: 1473
Flags: W
HStem: 0 21G<107.5 132.5 582 607> 699 20G<582 611>
VStem: 66 111<19.0804 553.344> 542 109<19.0804 275 477 698.374>
Fore
651 65 m 1,0,1
 651 29 651 29 634 14.5 c 128,-1,2
 617 0 617 0 597 0 c 0,3,4
 567 0 567 0 554.5 18.5 c 128,-1,5
 542 37 542 37 542 65 c 2,6,-1
 542 275 l 1,7,8
 526 309 526 309 495 363 c 128,-1,9
 464 417 464 417 425.5 469.5 c 128,-1,10
 387 522 387 522 344.5 563 c 128,-1,11
 302 604 302 604 261 613 c 0,12,13
 234 619 234 619 218 612 c 128,-1,14
 202 605 202 605 192.5 590 c 128,-1,15
 183 575 183 575 180 554 c 128,-1,16
 177 533 177 533 177 513 c 2,17,-1
 177 65 l 2,18,19
 177 29 177 29 160 14.5 c 128,-1,20
 143 0 143 0 122 0 c 0,21,22
 93 0 93 0 79.5 18.5 c 128,-1,23
 66 37 66 37 66 65 c 2,24,-1
 66 527 l 2,25,26
 66 569 66 569 81 608 c 128,-1,27
 96 647 96 647 124.5 675 c 128,-1,28
 153 703 153 703 193.5 715.5 c 128,-1,29
 234 728 234 728 287 715 c 0,30,31
 327 706 327 706 364.5 680 c 128,-1,32
 402 654 402 654 434.5 620 c 128,-1,33
 467 586 467 586 494.5 548.5 c 128,-1,34
 522 511 522 511 542 477 c 1,35,-1
 542 653 l 2,36,37
 542 681 542 681 554.5 700 c 128,-1,38
 567 719 567 719 597 719 c 0,39,40
 625 719 625 719 638 699 c 128,-1,41
 651 679 651 679 651 653 c 2,42,-1
 651 65 l 1,0,1
EndSplineSet
EndChar
StartChar: O
Encoding: 79 79 48
Width: 788
VWidth: 1473
Flags: W
HStem: -7 112<299.596 491.544> 608 112<299.596 491.544>
VStem: 41 112<256.91 455.538> 639 112<258.47 454.239>
Fore
751 357 m 0,0,1
 751 283 751 283 723 217.5 c 128,-1,2
 695 152 695 152 647.5 102 c 128,-1,3
 600 52 600 52 535 22.5 c 128,-1,4
 470 -7 470 -7 396 -7 c 256,5,6
 323 -7 323 -7 258 22.5 c 128,-1,7
 193 52 193 52 145 102 c 128,-1,8
 97 152 97 152 69 217.5 c 128,-1,9
 41 283 41 283 41 357 c 0,10,11
 41 429 41 429 69 495 c 128,-1,12
 97 561 97 561 145 611 c 128,-1,13
 193 661 193 661 258 690.5 c 128,-1,14
 323 720 323 720 396 720 c 256,15,16
 470 720 470 720 535 690.5 c 128,-1,17
 600 661 600 661 647.5 611 c 128,-1,18
 695 561 695 561 723 495 c 128,-1,19
 751 429 751 429 751 357 c 0,0,1
639 357 m 256,20,21
 639 407 639 407 620 452.5 c 128,-1,22
 601 498 601 498 568.5 532.5 c 128,-1,23
 536 567 536 567 491 587.5 c 128,-1,24
 446 608 446 608 396 608 c 0,25,26
 345 608 345 608 300.5 587.5 c 128,-1,27
 256 567 256 567 223 533 c 128,-1,28
 190 499 190 499 171.5 453 c 128,-1,29
 153 407 153 407 153 357 c 0,30,31
 153 305 153 305 171.5 259.5 c 128,-1,32
 190 214 190 214 223 180 c 128,-1,33
 256 146 256 146 300.5 125.5 c 128,-1,34
 345 105 345 105 396 105 c 0,35,36
 446 105 446 105 491 125.5 c 128,-1,37
 536 146 536 146 568.5 180.5 c 128,-1,38
 601 215 601 215 620 260.5 c 128,-1,39
 639 306 639 306 639 357 c 256,20,21
EndSplineSet
EndChar
StartChar: P
Encoding: 80 80 49
Width: 723
VWidth: 1473
Flags: W
HStem: -1 21G<95 125> 617 105<248.672 472.224>
VStem: 55 107<36.998 543.625> 567 112<406.355 509.562>
Fore
247 299 m 0,0,1
 228 311 228 311 215.5 328 c 128,-1,2
 203 345 203 345 215 370 c 0,3,4
 227 396 227 396 249 400 c 128,-1,5
 271 404 271 404 293 392 c 0,6,7
 329 374 329 374 374.5 366 c 128,-1,8
 420 358 420 358 461 364 c 128,-1,9
 502 370 502 370 532.5 393.5 c 128,-1,10
 563 417 563 417 567 464 c 0,11,12
 570 491 570 491 561 518 c 128,-1,13
 552 545 552 545 529.5 567 c 128,-1,14
 507 589 507 589 466.5 603 c 128,-1,15
 426 617 426 617 365 617 c 0,16,17
 264 617 264 617 213 578 c 128,-1,18
 162 539 162 539 162 448 c 2,19,-1
 162 65 l 2,20,21
 162 38 162 38 151 18.5 c 128,-1,22
 140 -1 140 -1 110 -1 c 128,-1,23
 80 -1 80 -1 67.5 18.5 c 128,-1,24
 55 38 55 38 55 65 c 2,25,-1
 55 485 l 2,26,27
 55 548 55 548 82.5 593.5 c 128,-1,28
 110 639 110 639 154.5 667 c 128,-1,29
 199 695 199 695 254 708.5 c 128,-1,30
 309 722 309 722 365 722 c 0,31,32
 424 722 424 722 481 708.5 c 128,-1,33
 538 695 538 695 582 665 c 128,-1,34
 626 635 626 635 653.5 588.5 c 128,-1,35
 681 542 681 542 679 476 c 0,36,37
 678 412 678 412 653.5 370.5 c 128,-1,38
 629 329 629 329 590.5 303.5 c 128,-1,39
 552 278 552 278 505 268 c 128,-1,40
 458 258 458 258 410 258.5 c 128,-1,41
 362 259 362 259 319.5 270 c 128,-1,42
 277 281 277 281 247 299 c 0,0,1
EndSplineSet
EndChar
StartChar: Q
Encoding: 81 81 50
Width: 802
VWidth: 1473
Flags: W
HStem: -6 105<321.881 462.016> 197 93<334.585 472.486> 610 112<297.341 497.941>
VStem: 47 112<253.918 460.233> 645 112<256.528 456.915>
Fore
757 358 m 0,0,1
 757 298 757 298 738.5 242.5 c 128,-1,2
 720 187 720 187 685 140 c 1,3,4
 701 116 701 116 719 84.5 c 128,-1,5
 737 53 737 53 745 24 c 0,6,7
 759 -21 759 -21 717 -38 c 0,8,9
 692 -49 692 -49 674.5 -36.5 c 128,-1,10
 657 -24 657 -24 650 -1 c 0,11,12
 645 15 645 15 633.5 35 c 128,-1,13
 622 55 622 55 614 66 c 1,14,15
 570 34 570 34 513.5 14 c 128,-1,16
 457 -6 457 -6 402 -6 c 0,17,18
 329 -6 329 -6 264 23.5 c 128,-1,19
 199 53 199 53 151 103 c 128,-1,20
 103 153 103 153 75 218.5 c 128,-1,21
 47 284 47 284 47 358 c 0,22,23
 47 433 47 433 72 498.5 c 128,-1,24
 97 564 97 564 143.5 614 c 128,-1,25
 190 664 190 664 255.5 693 c 128,-1,26
 321 722 321 722 402 722 c 0,27,28
 476 722 476 722 540.5 692.5 c 128,-1,29
 605 663 605 663 653 613 c 128,-1,30
 701 563 701 563 729 496.5 c 128,-1,31
 757 430 757 430 757 358 c 0,0,1
645 358 m 0,32,33
 645 408 645 408 626.5 454.5 c 128,-1,34
 608 501 608 501 575 535 c 128,-1,35
 542 569 542 569 498 589.5 c 128,-1,36
 454 610 454 610 402 610 c 0,37,38
 343 610 343 610 297.5 589.5 c 128,-1,39
 252 569 252 569 221 533.5 c 128,-1,40
 190 498 190 498 174.5 452.5 c 128,-1,41
 159 407 159 407 159 358 c 0,42,43
 159 265 159 265 218 197 c 1,44,45
 247 236 247 236 304 265.5 c 128,-1,46
 361 295 361 295 445 290 c 0,47,48
 455 290 455 290 473.5 288 c 128,-1,49
 492 286 492 286 514 279.5 c 128,-1,50
 536 273 536 273 561 261.5 c 128,-1,51
 586 250 586 250 611 233 c 1,52,53
 645 290 645 290 645 358 c 0,32,33
561 156 m 1,54,55
 530 180 530 180 496.5 188.5 c 128,-1,56
 463 197 463 197 430 197 c 0,57,58
 368 197 368 197 333.5 176.5 c 128,-1,59
 299 156 299 156 281 134 c 1,60,61
 293 125 293 125 321 113.5 c 128,-1,62
 349 102 349 102 401 99 c 0,63,64
 457 96 457 96 490 111.5 c 128,-1,65
 523 127 523 127 561 156 c 1,54,55
EndSplineSet
EndChar
StartChar: R
Encoding: 82 82 51
Width: 746
VWidth: 1473
Flags: W
HStem: -1 21G<102.5 132.5> 617 105<263.234 429.373>
VStem: 62 107<36.998 543.625> 575 112<407.965 507.25>
Fore
255 299 m 0,0,1
 236 311 236 311 223.5 328 c 128,-1,2
 211 345 211 345 222 370 c 0,3,4
 234 396 234 396 256 400 c 128,-1,5
 278 404 278 404 301 392 c 0,6,7
 331 376 331 376 376 367 c 128,-1,8
 421 358 421 358 463 363 c 128,-1,9
 505 368 505 368 537 391.5 c 128,-1,10
 569 415 569 415 575 467 c 0,11,12
 577 495 577 495 567 523 c 128,-1,13
 557 551 557 551 532 572.5 c 128,-1,14
 507 594 507 594 467 606.5 c 128,-1,15
 427 619 427 619 373 617 c 0,16,17
 271 614 271 614 220 576.5 c 128,-1,18
 169 539 169 539 169 448 c 2,19,-1
 169 65 l 2,20,21
 169 38 169 38 158 18.5 c 128,-1,22
 147 -1 147 -1 118 -1 c 0,23,24
 87 -1 87 -1 74.5 18.5 c 128,-1,25
 62 38 62 38 62 65 c 2,26,-1
 62 485 l 2,27,28
 62 548 62 548 90 593.5 c 128,-1,29
 118 639 118 639 162 667 c 128,-1,30
 206 695 206 695 261.5 708.5 c 128,-1,31
 317 722 317 722 373 722 c 0,32,33
 421 722 421 722 476.5 711 c 128,-1,34
 532 700 532 700 578.5 672.5 c 128,-1,35
 625 645 625 645 656 598 c 128,-1,36
 687 551 687 551 687 479 c 0,37,38
 687 426 687 426 667.5 385.5 c 128,-1,39
 648 345 648 345 618 318.5 c 128,-1,40
 588 292 588 292 550.5 278.5 c 128,-1,41
 513 265 513 265 476 265 c 1,42,43
 519 234 519 234 566 185 c 128,-1,44
 613 136 613 136 648 72 c 0,45,46
 660 52 660 52 659.5 29 c 128,-1,47
 659 6 659 6 626 -6 c 0,48,49
 614 -12 614 -12 601 -9 c 0,50,51
 589 -7 589 -7 576.5 1 c 128,-1,52
 564 9 564 9 552 29 c 0,53,54
 526 75 526 75 487.5 115 c 128,-1,55
 449 155 449 155 407 189.5 c 128,-1,56
 365 224 365 224 324.5 251 c 128,-1,57
 284 278 284 278 255 299 c 0,0,1
EndSplineSet
EndChar
StartChar: S
Encoding: 83 83 52
Width: 685
VWidth: 1473
Flags: W
HStem: -9 112<289.059 424.656> 299.5 118.5<279.5 407> 611 111<283.762 396.941>
VStem: 41 106<457.312 559.782> 532 110<155.91 258.1>
Fore
642 211 m 0,0,1
 642 153 642 153 616.5 112 c 128,-1,2
 591 71 591 71 549 44.5 c 128,-1,3
 507 18 507 18 453 4.5 c 128,-1,4
 399 -9 399 -9 343 -9 c 0,5,6
 296 -9 296 -9 251 0 c 128,-1,7
 206 9 206 9 166.5 25 c 128,-1,8
 127 41 127 41 96.5 64.5 c 128,-1,9
 66 88 66 88 49 118 c 0,10,11
 37 137 37 137 43 159 c 128,-1,12
 49 181 49 181 69 193 c 256,13,14
 90 205 90 205 111.5 199.5 c 128,-1,15
 133 194 133 194 144 174 c 0,16,17
 155 158 155 158 175.5 144.5 c 128,-1,18
 196 131 196 131 223 122 c 128,-1,19
 250 113 250 113 281 108 c 128,-1,20
 312 103 312 103 343 103 c 0,21,22
 376 103 376 103 409.5 108 c 128,-1,23
 443 113 443 113 470.5 125 c 128,-1,24
 498 137 498 137 515 158.5 c 128,-1,25
 532 180 532 180 532 211 c 0,26,27
 532 239 532 239 514 257 c 128,-1,28
 496 275 496 275 468 285.5 c 128,-1,29
 440 296 440 296 407 299.5 c 128,-1,30
 374 303 374 303 343 303 c 0,31,32
 290 303 290 303 236.5 314.5 c 128,-1,33
 183 326 183 326 139.5 350 c 128,-1,34
 96 374 96 374 68.5 412.5 c 128,-1,35
 41 451 41 451 41 504 c 0,36,37
 41 561 41 561 67 602.5 c 128,-1,38
 93 644 93 644 135.5 670.5 c 128,-1,39
 178 697 178 697 232.5 709.5 c 128,-1,40
 287 722 287 722 343 722 c 0,41,42
 390 722 390 722 435 713 c 128,-1,43
 480 704 480 704 518.5 688 c 128,-1,44
 557 672 557 672 587 649 c 128,-1,45
 617 626 617 626 635 597 c 0,46,47
 647 576 647 576 641.5 554 c 128,-1,48
 636 532 636 532 616 520 c 256,49,50
 595 508 595 508 573 514 c 128,-1,51
 551 520 551 520 539 541 c 0,52,53
 530 557 530 557 509.5 570 c 128,-1,54
 489 583 489 583 462.5 592 c 128,-1,55
 436 601 436 601 405 606 c 128,-1,56
 374 611 374 611 343 611 c 0,57,58
 311 611 311 611 276.5 607 c 128,-1,59
 242 603 242 603 213 591 c 128,-1,60
 184 579 184 579 165.5 558.5 c 128,-1,61
 147 538 147 538 147 505 c 0,62,63
 147 476 147 476 166.5 458 c 128,-1,64
 186 440 186 440 215.5 430.5 c 128,-1,65
 245 421 245 421 279.5 418 c 128,-1,66
 314 415 314 415 343 415 c 0,67,68
 398 415 398 415 451.5 404 c 128,-1,69
 505 393 505 393 548 369 c 128,-1,70
 591 345 591 345 616.5 306 c 128,-1,71
 642 267 642 267 642 211 c 0,0,1
EndSplineSet
EndChar
StartChar: T
Encoding: 84 84 53
Width: 651
VWidth: 1473
Flags: W
HStem: 0 21G<312.5 336.5> 702 20G<303.5 350.5>
VStem: 271 109<18.0499 608>
Fore
380 65 m 2,0,1
 380 28 380 28 363 14 c 128,-1,2
 346 0 346 0 327 0 c 0,3,4
 298 0 298 0 284.5 17.5 c 128,-1,5
 271 35 271 35 271 65 c 2,6,-1
 271 608 l 1,7,8
 218 601 218 601 174.5 585 c 128,-1,9
 131 569 131 569 110 545 c 0,10,11
 99 530 99 530 79 524.5 c 128,-1,12
 59 519 59 519 38 530 c 256,13,14
 18 542 18 542 12.5 564 c 128,-1,15
 7 586 7 586 19 607 c 0,16,17
 37 636 37 636 69.5 657.5 c 128,-1,18
 102 679 102 679 143 694 c 128,-1,19
 184 709 184 709 232 715.5 c 128,-1,20
 280 722 280 722 327 722 c 256,21,22
 374 722 374 722 421 715.5 c 128,-1,23
 468 709 468 709 509.5 694 c 128,-1,24
 551 679 551 679 583.5 657.5 c 128,-1,25
 616 636 616 636 633 607 c 0,26,27
 645 586 645 586 640 564 c 128,-1,28
 635 542 635 542 614 530 c 256,29,30
 594 519 594 519 574 524.5 c 128,-1,31
 554 530 554 530 542 545 c 0,32,33
 522 569 522 569 477.5 585 c 128,-1,34
 433 601 433 601 380 608 c 1,35,-1
 380 65 l 2,0,1
EndSplineSet
EndChar
StartChar: U
Encoding: 85 85 54
Width: 749
VWidth: 1473
Flags: W
HStem: -7 97<261.381 488.128>
VStem: 68 109<168.546 373.227 373.227 538.342 538.342 693.404> 572 109<170.07 259 259 693.404>
Fore
681 277 m 2,0,1
 685 147 685 147 604.5 70 c 128,-1,2
 524 -7 524 -7 376 -7 c 0,3,4
 224 -7 224 -7 146 72.5 c 128,-1,5
 68 152 68 152 68 281 c 2,6,-1
 68 648 l 2,7,8
 68 676 68 676 81 694.5 c 128,-1,9
 94 713 94 713 124 713 c 0,10,11
 149 713 149 713 163 694 c 128,-1,12
 177 675 177 675 177 648 c 2,13,-1
 177 595 l 2,14,15
 177 557 177 557 176 480.5 c 128,-1,16
 175 404 175 404 177 264 c 0,17,18
 177 90 177 90 374 90 c 0,19,20
 474 90 474 90 523 135 c 128,-1,21
 572 180 572 180 572 259 c 2,22,-1
 572 648 l 2,23,24
 572 676 572 676 585 694.5 c 128,-1,25
 598 713 598 713 628 713 c 0,26,27
 653 713 653 713 667 694 c 128,-1,28
 681 675 681 675 681 648 c 2,29,-1
 681 277 l 2,0,1
EndSplineSet
EndChar
StartChar: V
Encoding: 86 86 55
Width: 655
VWidth: 1473
Flags: W
HStem: 3.5 90<272.438 300.5 300.5 307.906 307.906 313.788 310.847 343.153 340.212 346.094 346.094 353.5>
Fore
622 588 m 2,0,1
 614 548 614 548 595.5 460.5 c 128,-1,2
 577 373 577 373 542 212 c 0,3,4
 526 140 526 140 501 97.5 c 128,-1,5
 476 55 476 55 447 32.5 c 128,-1,6
 418 10 418 10 386.5 3.5 c 128,-1,7
 355 -3 355 -3 327 -3 c 256,8,9
 299 -3 299 -3 267.5 3.5 c 128,-1,10
 236 10 236 10 207 32.5 c 128,-1,11
 178 55 178 55 153 97.5 c 128,-1,12
 128 140 128 140 113 212 c 2,13,-1
 22 644 l 2,14,15
 10 697 10 697 59 713 c 0,16,17
 87 722 87 722 106 703 c 128,-1,18
 125 684 125 684 130 654 c 1,19,20
 130 647 130 647 140 600 c 0,21,22
 144 579 144 579 150 548 c 128,-1,23
 156 517 156 517 166.5 472 c 128,-1,24
 177 427 177 427 190 366 c 128,-1,25
 203 305 203 305 221 224 c 0,26,27
 231 178 231 178 244.5 151.5 c 128,-1,28
 258 125 258 125 272 111 c 128,-1,29
 286 97 286 97 300.5 93.5 c 128,-1,30
 315 90 315 90 327 90 c 256,31,32
 339 90 339 90 353.5 93.5 c 128,-1,33
 368 97 368 97 383 111 c 128,-1,34
 398 125 398 125 411 151.5 c 128,-1,35
 424 178 424 178 435 225 c 2,36,-1
 446 278 l 2,37,38
 455 318 455 318 473 406 c 128,-1,39
 491 494 491 494 524 656 c 0,40,41
 530 684 530 684 548.5 703.5 c 128,-1,42
 567 723 567 723 597 713 c 0,43,44
 644 697 644 697 632 641 c 2,45,-1
 622 588 l 2,0,1
EndSplineSet
EndChar
StartChar: W
Encoding: 87 87 56
Width: 997
VWidth: 1473
Flags: W
HStem: -12 109<219.306 361.353 657.29 780.888> 702 20G<91 115 481 505.5 871.5 896.5>
VStem: 50 111<185.575 702.404> 440 111<153.176 701.374> 831 109<144.938 702.404>
Fore
940 656 m 2,0,-1
 940 225 l 2,1,2
 940 166 940 166 921 122 c 128,-1,3
 902 78 902 78 868.5 48 c 128,-1,4
 835 18 835 18 788.5 3 c 128,-1,5
 742 -12 742 -12 688 -12 c 0,6,7
 661 -12 661 -12 632.5 -5.5 c 128,-1,8
 604 1 604 1 577.5 14 c 128,-1,9
 551 27 551 27 529.5 45 c 128,-1,10
 508 63 508 63 496 85 c 1,11,12
 485 63 485 63 462 45 c 128,-1,13
 439 27 439 27 412.5 14 c 128,-1,14
 386 1 386 1 357.5 -5.5 c 128,-1,15
 329 -12 329 -12 303 -12 c 0,16,17
 250 -12 250 -12 204.5 2 c 128,-1,18
 159 16 159 16 124.5 45.5 c 128,-1,19
 90 75 90 75 70 120 c 128,-1,20
 50 165 50 165 50 225 c 2,21,-1
 50 656 l 2,22,23
 50 684 50 684 63.5 703 c 128,-1,24
 77 722 77 722 105 722 c 0,25,26
 125 722 125 722 143 707 c 128,-1,27
 161 692 161 692 161 656 c 2,28,-1
 161 225 l 2,29,30
 161 205 161 205 165 182 c 128,-1,31
 169 159 169 159 184 140.5 c 128,-1,32
 199 122 199 122 227.5 109.5 c 128,-1,33
 256 97 256 97 303 97 c 0,34,35
 359 97 359 97 399.5 132.5 c 128,-1,36
 440 168 440 168 440 225 c 2,37,-1
 440 656 l 2,38,39
 440 682 440 682 453.5 702 c 128,-1,40
 467 722 467 722 495 722 c 0,41,42
 516 722 516 722 533.5 707 c 128,-1,43
 551 692 551 692 551 656 c 2,44,-1
 551 225 l 2,45,46
 551 178 551 178 572.5 151.5 c 128,-1,47
 594 125 594 125 619 113.5 c 128,-1,48
 644 102 644 102 665.5 99.5 c 128,-1,49
 687 97 687 97 688 97 c 0,50,51
 831 97 831 97 831 225 c 2,52,-1
 831 656 l 2,53,54
 831 684 831 684 843.5 703 c 128,-1,55
 856 722 856 722 887 722 c 0,56,57
 906 722 906 722 923 707 c 128,-1,58
 940 692 940 692 940 656 c 2,0,-1
EndSplineSet
EndChar
StartChar: X
Encoding: 88 88 57
Width: 687
VWidth: 1473
Flags: W
HStem: 311 109<321.313 365.172>
Fore
647 681 m 0,0,1
 654 657 654 657 644 638 c 2,2,-1
 631 613 l 2,3,4
 620 594 620 594 598.5 555 c 128,-1,5
 577 516 577 516 538 443 c 0,6,7
 520 414 520 414 501.5 397 c 128,-1,8
 483 380 483 380 464 368 c 1,9,10
 483 355 483 355 501 338 c 128,-1,11
 519 321 519 321 536 290 c 2,12,13
 545 274 l 2,14,15
 554 258 554 258 565.5 234.5 c 128,-1,16
 577 211 577 211 590.5 183 c 128,-1,17
 604 155 604 155 616 130.5 c 128,-1,18
 628 106 628 106 636 90.5 c 128,-1,19
 644 75 644 75 644 74 c 2,20,21
 656 53 656 53 647.5 31.5 c 128,-1,22
 639 10 639 10 619 0 c 256,23,24
 598 -10 598 -10 576.5 -3 c 128,-1,25
 555 4 555 4 545 25 c 0,26,27
 517 80 517 80 495 124 c 0,28,29
 476 162 476 162 459.5 195 c 128,-1,30
 443 228 443 228 440 236 c 1,31,32
 424 262 424 262 411 277 c 128,-1,33
 398 292 398 292 387 300 c 128,-1,34
 376 308 376 308 365.5 309.5 c 128,-1,35
 355 311 355 311 343 311 c 256,36,37
 331 311 331 311 321 309.5 c 128,-1,38
 311 308 311 308 300 300 c 128,-1,39
 289 292 289 292 275.5 277 c 128,-1,40
 262 262 262 262 246 236 c 2,41,-1
 141 25 l 2,42,43
 131 4 131 4 109.5 -3 c 128,-1,44
 88 -10 88 -10 68 0 c 256,45,46
 47 10 47 10 39 31.5 c 128,-1,47
 31 53 31 53 43 74 c 2,48,-1
 56 100 l 2,49,50
 66 121 66 121 87 164.5 c 128,-1,51
 108 208 108 208 149 289 c 0,52,53
 165 318 165 318 184 336.5 c 128,-1,54
 203 355 203 355 222 368 c 1,55,56
 203 380 203 380 184 397.5 c 128,-1,57
 165 415 165 415 149 445 c 2,58,-1
 136 468 l 2,59,60
 125 486 125 486 103 525 c 128,-1,61
 81 564 81 564 43 636 c 0,62,63
 31 657 31 657 39 679 c 128,-1,64
 47 701 47 701 68 713 c 0,65,66
 88 723 88 723 109.5 716 c 128,-1,67
 131 709 131 709 141 688 c 1,68,69
 141 685 141 685 153 663 c 0,70,71
 164 644 164 644 185 604 c 128,-1,72
 206 564 206 564 247 491 c 0,73,74
 262 464 262 464 274.5 450 c 128,-1,75
 287 436 287 436 298 429.5 c 128,-1,76
 309 423 309 423 320 421.5 c 128,-1,77
 331 420 331 420 343 420 c 256,78,79
 355 420 355 420 366 421.5 c 128,-1,80
 377 423 377 423 389 429.5 c 128,-1,81
 401 436 401 436 413.5 451 c 128,-1,82
 426 466 426 466 440 492 c 0,83,84
 442 494 442 494 454 516 c 0,85,86
 464 533 464 533 484.5 573 c 128,-1,87
 505 613 505 613 545 688 c 0,88,89
 555 709 555 709 576.5 716 c 128,-1,90
 598 723 598 723 619 713 c 0,91,92
 641 701 641 701 647 681 c 0,0,1
EndSplineSet
EndChar
StartChar: Y
Encoding: 89 89 58
Width: 693
VWidth: 1473
Flags: W
HStem: -3 109<172.08 488.622> 209 109<259.278 448.301> 696 20G<94.5 123 568.5 596.5>
VStem: 55 107<456.316 696.92> 527 109<142.786 268 385.273 696.92>
Fore
636 203 m 1,0,1
 636 152 636 152 617 113.5 c 128,-1,2
 598 75 598 75 568 49.5 c 128,-1,3
 538 24 538 24 499.5 10.5 c 128,-1,4
 461 -3 461 -3 420 -3 c 2,5,-1
 218 -3 l 2,6,7
 190 -3 190 -3 171.5 9.5 c 128,-1,8
 153 22 153 22 153 52 c 256,9,10
 153 81 153 81 171.5 93.5 c 128,-1,11
 190 106 190 106 218 106 c 2,12,-1
 420 106 l 2,13,14
 463 106 463 106 495 132.5 c 128,-1,15
 527 159 527 159 527 203 c 2,16,-1
 527 268 l 1,17,18
 494 236 494 236 446 222.5 c 128,-1,19
 398 209 398 209 346 209 c 0,20,21
 273 209 273 209 218.5 230.5 c 128,-1,22
 164 252 164 252 127.5 290.5 c 128,-1,23
 91 329 91 329 73 381 c 128,-1,24
 55 433 55 433 55 496 c 2,25,-1
 55 651 l 2,26,27
 55 679 55 679 67.5 697.5 c 128,-1,28
 80 716 80 716 109 716 c 0,29,30
 137 716 137 716 150.5 697.5 c 128,-1,31
 164 679 164 679 164 651 c 2,32,-1
 162 492 l 2,33,34
 162 460 162 460 173 429 c 128,-1,35
 184 398 184 398 207.5 373.5 c 128,-1,36
 231 349 231 349 265 333.5 c 128,-1,37
 299 318 299 318 346 318 c 0,38,39
 420 318 420 318 470 350 c 128,-1,40
 520 382 520 382 527 452 c 2,41,-1
 527 651 l 2,42,43
 527 679 527 679 540.5 697.5 c 128,-1,44
 554 716 554 716 583 716 c 0,45,46
 610 716 610 716 623 697.5 c 128,-1,47
 636 679 636 679 636 651 c 2,48,-1
 636 203 l 1,0,1
EndSplineSet
EndChar
StartChar: Z
Encoding: 90 90 59
Width: 680
VWidth: 1473
Flags: W
HStem: -1 109<166.251 629.373> 608 109<58.6267 521.749>
Fore
520 532 m 2,0,1
 532 539 532 539 538 553 c 128,-1,2
 544 567 544 567 541 579 c 0,3,4
 538 592 538 592 529 600 c 128,-1,5
 520 608 520 608 502 608 c 2,6,-1
 105 608 l 2,7,8
 78 608 78 608 58 621.5 c 128,-1,9
 38 635 38 635 38 661 c 0,10,11
 38 682 38 682 53 699.5 c 128,-1,12
 68 717 68 717 105 717 c 2,13,-1
 504 717 l 2,14,15
 566 717 566 717 602 682 c 128,-1,16
 638 647 638 647 647 603 c 0,17,18
 650 588 650 588 650 569 c 128,-1,19
 650 550 650 550 643 529 c 128,-1,20
 636 508 636 508 622 488 c 128,-1,21
 608 468 608 468 582 455 c 2,22,-1
 168 184 l 2,23,24
 156 177 156 177 150 163 c 128,-1,25
 144 149 144 149 147 137 c 0,26,27
 150 124 150 124 159 116 c 128,-1,28
 168 108 168 108 186 108 c 2,29,-1
 583 108 l 2,30,31
 610 108 610 108 630 94.5 c 128,-1,32
 650 81 650 81 650 55 c 0,33,34
 650 34 650 34 635 16.5 c 128,-1,35
 620 -1 620 -1 583 -1 c 2,36,-1
 184 -1 l 2,37,38
 122 -1 122 -1 86 34 c 128,-1,39
 50 69 50 69 41 113 c 0,40,41
 38 128 38 128 38 147 c 128,-1,42
 38 166 38 166 45 187 c 128,-1,43
 52 208 52 208 66 227.5 c 128,-1,44
 80 247 80 247 106 261 c 2,45,-1
 520 532 l 2,0,1
EndSplineSet
EndChar
StartChar: bracketleft
Encoding: 91 91 60
Width: 441
VWidth: 1473
Flags: W
HStem: -180 109<197 345.062> 653 109<197 345.062>
VStem: 88 109<-71 653> 88 291<-150.135 -83.8939 665.894 728.457>
Fore
379 -122 m 0,0,1
 379 -147 379 -147 365 -163.5 c 128,-1,2
 351 -180 351 -180 326 -180 c 2,3,-1
 137 -180 l 2,4,5
 108 -180 108 -180 97.5 -163 c 128,-1,6
 87 -146 87 -146 88 -124 c 2,7,-1
 88 706 l 2,8,9
 88 726 88 726 98 744 c 128,-1,10
 108 762 108 762 137 762 c 2,11,-1
 326 762 l 2,12,13
 351 762 351 762 365 745.5 c 128,-1,14
 379 729 379 729 379 704 c 0,15,16
 379 678 379 678 362 665.5 c 128,-1,17
 345 653 345 653 326 653 c 2,18,-1
 197 653 l 1,19,-1
 197 -71 l 1,20,-1
 326 -71 l 2,21,22
 345 -71 345 -71 362 -83.5 c 128,-1,23
 379 -96 379 -96 379 -122 c 0,0,1
EndSplineSet
EndChar
StartChar: backslash
Encoding: 92 92 61
Width: 366
VWidth: 1473
Flags: W
VStem: -16.5 396<29 709 709 709>
Fore
376 69 m 1,0,1
 385 49 385 49 379.5 29 c 128,-1,2
 374 9 374 9 354 0 c 128,-1,3
 334 -9 334 -9 312 -1.5 c 128,-1,4
 290 6 290 6 281 27 c 2,5,-1
 -12 669 l 2,6,7
 -21 689 -21 689 -16.5 709 c 128,-1,8
 -12 729 -12 729 9 738 c 0,9,10
 28 748 28 748 51 739.5 c 128,-1,11
 74 731 74 731 82 713 c 2,12,-1
 376 69 l 1,0,1
EndSplineSet
EndChar
StartChar: bracketright
Encoding: 93 93 62
Width: 441
VWidth: 1473
Flags: W
HStem: -180 109<92.938 240> 653 109<92.938 240>
VStem: 59 290<-152.466 -83.8939 665.894 729.045> 240 109<-71 653>
Fore
349 -124 m 1,0,1
 351 -146 351 -146 340.5 -163 c 128,-1,2
 330 -180 330 -180 301 -180 c 2,3,-1
 112 -180 l 2,4,5
 87 -180 87 -180 73 -163.5 c 128,-1,6
 59 -147 59 -147 59 -122 c 0,7,8
 59 -96 59 -96 76 -83.5 c 128,-1,9
 93 -71 93 -71 112 -71 c 2,10,-1
 240 -71 l 1,11,-1
 240 653 l 1,12,-1
 112 653 l 2,13,14
 93 653 93 653 76 665.5 c 128,-1,15
 59 678 59 678 59 704 c 0,16,17
 59 729 59 729 73 745.5 c 128,-1,18
 87 762 87 762 112 762 c 2,19,-1
 301 762 l 2,20,21
 330 762 330 762 339.5 744 c 128,-1,22
 349 726 349 726 349 706 c 2,23,-1
 349 -124 l 1,0,1
EndSplineSet
EndChar
StartChar: asciicircum
Encoding: 94 94 63
Width: 718
VWidth: 1473
Flags: W
HStem: 252.5 473.5<365 529.5 365 365>
VStem: 135.5 458.5<273 318 294.5 295.5 295.5 295.5>
Fore
573 259 m 0,0,1
 554 247 554 247 529.5 252.5 c 128,-1,2
 505 258 505 258 492 286 c 2,3,-1
 364 575 l 1,4,-1
 236 286 l 2,5,6
 222 261 222 261 200 255 c 128,-1,7
 178 249 178 249 158 261 c 256,8,9
 137 273 137 273 135.5 295.5 c 128,-1,10
 134 318 134 318 146 343 c 2,11,-1
 324 701 l 2,12,13
 333 716 333 716 343.5 721 c 128,-1,14
 354 726 354 726 365 726 c 256,15,16
 377 726 377 726 387.5 719.5 c 128,-1,17
 398 713 398 713 404 701 c 2,18,-1
 582 343 l 2,19,20
 594 318 594 318 594 294.5 c 128,-1,21
 594 271 594 271 573 259 c 0,0,1
EndSplineSet
EndChar
StartChar: underscore
Encoding: 95 95 64
Width: 736
VWidth: 1473
Flags: W
HStem: -169 95<0 737>
Fore
0 -169 m 1,0,-1
 0 -74 l 1,1,-1
 737 -74 l 1,2,-1
 737 -169 l 1,3,-1
 0 -169 l 1,0,-1
EndSplineSet
EndChar
StartChar: grave
Encoding: 96 96 65
Width: 343
VWidth: 1473
Flags: W
HStem: 435 282<136.895 215.468>
VStem: 124 109<453.565 697.405>
Fore
233 499 m 1,0,1
 233 463 233 463 216 449 c 128,-1,2
 199 435 199 435 178 435 c 0,3,4
 149 435 149 435 136.5 453 c 128,-1,5
 124 471 124 471 124 499 c 2,6,-1
 124 653 l 2,7,8
 124 681 124 681 136.5 699 c 128,-1,9
 149 717 149 717 178 717 c 0,10,11
 206 717 206 717 219.5 698 c 128,-1,12
 233 679 233 679 233 653 c 2,13,-1
 233 499 l 1,0,1
EndSplineSet
EndChar
StartChar: a
Encoding: 97 97 66
Width: 633
VWidth: 1473
Flags: W
HStem: -7 92<226.154 379.772> 273 95<231.99 383.19> 429 101<215.89 388.785>
VStem: 47 102<153.987 221.983> 467 103<18.5913 46 131.805 223.919>
Fore
570 46 m 2,0,1
 570 22 570 22 553 7.5 c 128,-1,2
 536 -7 536 -7 516 -7 c 256,3,4
 495 -7 495 -7 481 7.5 c 128,-1,5
 467 22 467 22 470 46 c 1,6,7
 442 19 442 19 395 6 c 128,-1,8
 348 -7 348 -7 298 -7 c 0,9,10
 183 -7 183 -7 115 40.5 c 128,-1,11
 47 88 47 88 47 178 c 0,12,13
 47 218 47 218 65.5 253.5 c 128,-1,14
 84 289 84 289 118 314 c 128,-1,15
 152 339 152 339 199.5 353.5 c 128,-1,16
 247 368 247 368 306 368 c 0,17,18
 362 368 362 368 410 352 c 128,-1,19
 458 336 458 336 471 314 c 1,20,21
 468 351 468 351 455 373 c 128,-1,22
 442 395 442 395 420 407.5 c 128,-1,23
 398 420 398 420 366 424.5 c 128,-1,24
 334 429 334 429 296 429 c 0,25,26
 252 429 252 429 216 418.5 c 128,-1,27
 180 408 180 408 150 392 c 0,28,29
 119 374 119 374 103 383 c 128,-1,30
 87 392 87 392 82 398 c 0,31,32
 65 418 65 418 72.5 441 c 128,-1,33
 80 464 80 464 100 477 c 0,34,35
 181 530 181 530 293 530 c 0,36,37
 370 530 370 530 423 514 c 128,-1,38
 476 498 476 498 508.5 467 c 128,-1,39
 541 436 541 436 555.5 391 c 128,-1,40
 570 346 570 346 570 289 c 2,41,-1
 570 46 l 2,0,1
467 177 m 0,42,43
 467 206 467 206 453 224.5 c 128,-1,44
 439 243 439 243 415.5 254 c 128,-1,45
 392 265 392 265 362.5 269 c 128,-1,46
 333 273 333 273 302 273 c 0,47,48
 275 273 275 273 248 267 c 128,-1,49
 221 261 221 261 199 250 c 128,-1,50
 177 239 177 239 163 222.5 c 128,-1,51
 149 206 149 206 149 184 c 0,52,53
 147 159 147 159 159 140.5 c 128,-1,54
 171 122 171 122 192.5 109.5 c 128,-1,55
 214 97 214 97 241 91 c 128,-1,56
 268 85 268 85 298 85 c 0,57,58
 370 85 370 85 418.5 110.5 c 128,-1,59
 467 136 467 136 467 177 c 0,42,43
EndSplineSet
Substitution2: "Single Substitution lookup 22 subtable" uni0E38
Substitution2: "Single Substitution lookup 22 subtable" uni0E38
EndChar
StartChar: b
Encoding: 98 98 67
Width: 674
VWidth: 1473
Flags: W
HStem: -7 109<247.586 445.091> 417 107<254.181 443.203> 815 20G<110 132>
VStem: 66 108<23.2489 50 172.2 338.153 468 730.5 730.5 818.499> 519 106<170.662 345.515>
Fore
66 44 m 2,0,-1
 66 678 l 2,1,2
 66 762 66 762 65 781 c 0,3,4
 65 803 65 803 82 819 c 128,-1,5
 99 835 99 835 121 835 c 256,6,7
 143 835 143 835 158.5 819 c 128,-1,8
 174 803 174 803 174 781 c 2,9,-1
 174 468 l 1,10,11
 200 492 200 492 240 508 c 128,-1,12
 280 524 280 524 346 524 c 0,13,14
 411 524 411 524 462.5 504.5 c 128,-1,15
 514 485 514 485 550 449.5 c 128,-1,16
 586 414 586 414 605.5 365.5 c 128,-1,17
 625 317 625 317 625 259 c 256,18,19
 625 202 625 202 606.5 153.5 c 128,-1,20
 588 105 588 105 552.5 68.5 c 128,-1,21
 517 32 517 32 464.5 12.5 c 128,-1,22
 412 -7 412 -7 346 -7 c 0,23,24
 295 -7 295 -7 249 7 c 128,-1,25
 203 21 203 21 172 50 c 1,26,27
 174 28 174 28 161.5 9.5 c 128,-1,28
 149 -9 149 -9 121 -9 c 0,29,30
 99 -9 99 -9 82.5 6.5 c 128,-1,31
 66 22 66 22 66 44 c 2,0,-1
174 259 m 2,32,33
 174 177 174 177 221 139.5 c 128,-1,34
 268 102 268 102 346 102 c 256,35,36
 424 102 424 102 471.5 141 c 128,-1,37
 519 180 519 180 519 259 c 0,38,39
 519 333 519 333 472.5 375 c 128,-1,40
 426 417 426 417 346 417 c 0,41,42
 278 417 278 417 227.5 378 c 128,-1,43
 177 339 177 339 174 261 c 2,44,-1
 174 259 l 2,32,33
EndSplineSet
Substitution2: "Single Substitution lookup 22 subtable" uni0E39
Substitution2: "Single Substitution lookup 22 subtable" uni0E39
EndChar
StartChar: c
Encoding: 99 99 68
Width: 595
VWidth: 1473
Flags: W
VStem: 49 106<164.333 338.263>
Fore
544 82 m 0,0,1
 530 60 530 60 505 41 c 128,-1,2
 480 22 480 22 446 9 c 128,-1,3
 412 -4 412 -4 371 -10 c 128,-1,4
 330 -16 330 -16 284 -9 c 0,5,6
 171 7 171 7 110 75 c 128,-1,7
 49 143 49 143 49 253 c 0,8,9
 49 320 49 320 70 367.5 c 128,-1,10
 91 415 91 415 125 448.5 c 128,-1,11
 159 482 159 482 201 500.5 c 128,-1,12
 243 519 243 519 284 524 c 0,13,14
 330 530 330 530 371 524.5 c 128,-1,15
 412 519 412 519 446 505.5 c 128,-1,16
 480 492 480 492 505 473 c 128,-1,17
 530 454 530 454 544 432 c 0,18,19
 555 412 555 412 551 391 c 128,-1,20
 547 370 547 370 527 358 c 256,21,22
 508 346 508 346 487 351.5 c 128,-1,23
 466 357 466 357 454 376 c 0,24,25
 449 382 449 382 436.5 392 c 128,-1,26
 424 402 424 402 404.5 409.5 c 128,-1,27
 385 417 385 417 357.5 421.5 c 128,-1,28
 330 426 330 426 299 421 c 0,29,30
 286 420 286 420 262.5 412.5 c 128,-1,31
 239 405 239 405 214.5 386 c 128,-1,32
 190 367 190 367 172.5 335 c 128,-1,33
 155 303 155 303 155 253 c 0,34,35
 155 186 155 186 191 144.5 c 128,-1,36
 227 103 227 103 299 91 c 0,37,38
 330 87 330 87 357.5 91.5 c 128,-1,39
 385 96 385 96 404.5 104.5 c 128,-1,40
 424 113 424 113 436.5 123 c 128,-1,41
 449 133 449 133 454 140 c 0,42,43
 466 158 466 158 487 163 c 128,-1,44
 508 168 508 168 527 156 c 256,45,46
 547 144 547 144 551 123 c 128,-1,47
 555 102 555 102 544 82 c 0,0,1
EndSplineSet
Substitution2: "Single Substitution lookup 22 subtable" uni0E3A
Substitution2: "Single Substitution lookup 22 subtable" uni0E3A
EndChar
StartChar: d
Encoding: 100 100 69
Width: 674
VWidth: 1473
Flags: W
HStem: -7 109<228.05 425.671> 417 107<229.926 418.819> 815 20G<541 563.5>
VStem: 49 106<170.662 345.515> 499 108<23.2489 50 172.2 338.153 468 818.499>
Fore
607 44 m 0,0,1
 607 22 607 22 591 6.5 c 128,-1,2
 575 -9 575 -9 552 -9 c 0,3,4
 524 -9 524 -9 511.5 9.5 c 128,-1,5
 499 28 499 28 501 50 c 1,6,7
 470 21 470 21 424.5 7 c 128,-1,8
 379 -7 379 -7 327 -7 c 0,9,10
 261 -7 261 -7 208.5 12.5 c 128,-1,11
 156 32 156 32 120.5 68.5 c 128,-1,12
 85 105 85 105 67 153.5 c 128,-1,13
 49 202 49 202 49 259 c 256,14,15
 49 317 49 317 68 365.5 c 128,-1,16
 87 414 87 414 123 449.5 c 128,-1,17
 159 485 159 485 210.5 504.5 c 128,-1,18
 262 524 262 524 327 524 c 0,19,20
 393 524 393 524 433 508 c 128,-1,21
 473 492 473 492 499 468 c 1,22,-1
 499 781 l 2,23,24
 499 803 499 803 514.5 819 c 128,-1,25
 530 835 530 835 552 835 c 256,26,27
 575 835 575 835 591 819 c 128,-1,28
 607 803 607 803 607 781 c 2,29,-1
 607 678 l 2,30,31
 607 642 607 642 607 588.5 c 128,-1,32
 607 535 607 535 607 458.5 c 128,-1,33
 607 382 607 382 607 279.5 c 128,-1,34
 607 177 607 177 607 44 c 0,0,1
499 261 m 2,35,36
 496 339 496 339 445.5 378 c 128,-1,37
 395 417 395 417 327 417 c 0,38,39
 247 417 247 417 201 375 c 128,-1,40
 155 333 155 333 155 259 c 0,41,42
 155 180 155 180 202 141 c 128,-1,43
 249 102 249 102 327 102 c 256,44,45
 405 102 405 102 452 139.5 c 128,-1,46
 499 177 499 177 499 259 c 2,47,-1
 499 261 l 2,35,36
EndSplineSet
EndChar
StartChar: e
Encoding: 101 101 70
Width: 645
VWidth: 1473
Flags: W
HStem: -7 97<234.557 419.208> 222 98<165 488.612> 436 96<250.524 427.38>
VStem: 50 108<159.604 222 320 355.86>
Fore
583 271 m 0,0,1
 570 242 570 242 541.5 232 c 128,-1,2
 513 222 513 222 483 222 c 2,3,-1
 158 222 l 1,4,5
 165 158 165 158 213.5 124 c 128,-1,6
 262 90 262 90 329 90 c 0,7,8
 377 90 377 90 410 102.5 c 128,-1,9
 443 115 443 115 464 136 c 0,10,11
 486 158 486 158 506 158.5 c 128,-1,12
 526 159 526 159 539 147 c 0,13,14
 558 133 558 133 557.5 108.5 c 128,-1,15
 557 84 557 84 538 68 c 0,16,17
 499 34 499 34 451.5 13.5 c 128,-1,18
 404 -7 404 -7 330 -7 c 0,19,20
 203 -7 203 -7 126.5 61.5 c 128,-1,21
 50 130 50 130 50 265 c 0,22,23
 50 326 50 326 71.5 375 c 128,-1,24
 93 424 93 424 130.5 459 c 128,-1,25
 168 494 168 494 219.5 513 c 128,-1,26
 271 532 271 532 330 532 c 0,27,28
 405 532 405 532 453 508.5 c 128,-1,29
 501 485 501 485 526 460 c 0,30,31
 554 430 554 430 568 401.5 c 128,-1,32
 582 373 582 373 586.5 347 c 128,-1,33
 591 321 591 321 589.5 301 c 128,-1,34
 588 281 588 281 583 271 c 0,0,1
489 320 m 1,35,36
 479 367 479 367 443.5 401.5 c 128,-1,37
 408 436 408 436 333 436 c 0,38,39
 292 436 292 436 261 424 c 128,-1,40
 230 412 230 412 209.5 394.5 c 128,-1,41
 189 377 189 377 177.5 356.5 c 128,-1,42
 166 336 166 336 165 320 c 1,43,-1
 489 320 l 1,35,36
EndSplineSet
EndChar
StartChar: f
Encoding: 102 102 71
Width: 371
VWidth: 1473
Flags: W
HStem: -4 21G<115 139.5> 420 107<220.068 338.527> 737 107<218.125 423.405>
VStem: 77 106<34.3011 381.402 496 700.305>
Fore
443 791 m 0,0,1
 443 770 443 770 428.5 753.5 c 128,-1,2
 414 737 414 737 380 737 c 2,3,-1
 286 737 l 2,4,5
 234 737 234 737 208.5 706 c 128,-1,6
 183 675 183 675 183 625 c 2,7,-1
 183 496 l 1,8,9
 187 513 187 513 207.5 520 c 128,-1,10
 228 527 228 527 253 527 c 2,11,-1
 290 527 l 2,12,13
 324 527 324 527 339 509.5 c 128,-1,14
 354 492 354 492 354 477 c 0,15,16
 354 457 354 457 340 438.5 c 128,-1,17
 326 420 326 420 290 420 c 2,18,-1
 245 420 l 2,19,20
 203 420 203 420 193 399.5 c 128,-1,21
 183 379 183 379 183 354 c 2,22,-1
 183 60 l 2,23,24
 183 25 183 25 166 10.5 c 128,-1,25
 149 -4 149 -4 130 -4 c 0,26,27
 100 -4 100 -4 88.5 15.5 c 128,-1,28
 77 35 77 35 77 60 c 2,29,-1
 77 625 l 2,30,31
 77 670 77 670 91 710.5 c 128,-1,32
 105 751 105 751 132 780.5 c 128,-1,33
 159 810 159 810 198 827 c 128,-1,34
 237 844 237 844 286 844 c 2,35,-1
 380 844 l 2,36,37
 405 844 405 844 424 831.5 c 128,-1,38
 443 819 443 819 443 791 c 0,0,1
EndSplineSet
EndChar
StartChar: g
Encoding: 103 103 72
Width: 667
VWidth: 1473
Flags: W
HStem: -261.5 106.5<295.586 374.948> -1 109<227.043 422.077> 423 109<226.918 407.642>
VStem: 47 106<175.805 352.781> 499 106<-43.8608 65 179.39 299.748 473 496.78>
Fore
605 -6 m 2,0,1
 605 -97 605 -97 556.5 -161 c 128,-1,2
 508 -225 508 -225 421 -250 c 0,3,4
 379 -262 379 -262 336 -261.5 c 128,-1,5
 293 -261 293 -261 255 -250.5 c 128,-1,6
 217 -240 217 -240 186.5 -220 c 128,-1,7
 156 -200 156 -200 140 -172 c 0,8,9
 128 -153 128 -153 132.5 -134 c 128,-1,10
 137 -115 137 -115 153 -103 c 0,11,12
 172 -88 172 -88 196.5 -94 c 128,-1,13
 221 -100 221 -100 231 -119 c 0,14,15
 237 -128 237 -128 252.5 -137 c 128,-1,16
 268 -146 268 -146 290 -150.5 c 128,-1,17
 312 -155 312 -155 339.5 -155 c 128,-1,18
 367 -155 367 -155 393 -147 c 0,19,20
 411 -143 411 -143 430 -133.5 c 128,-1,21
 449 -124 449 -124 464.5 -107 c 128,-1,22
 480 -90 480 -90 489.5 -65.5 c 128,-1,23
 499 -41 499 -41 499 -6 c 2,24,-1
 499 65 l 1,25,26
 466 31 466 31 420 15 c 128,-1,27
 374 -1 374 -1 327 -1 c 0,28,29
 264 -1 264 -1 212.5 18 c 128,-1,30
 161 37 161 37 124 71.5 c 128,-1,31
 87 106 87 106 67 155.5 c 128,-1,32
 47 205 47 205 47 265 c 0,33,34
 47 327 47 327 67.5 377 c 128,-1,35
 88 427 88 427 125 461 c 128,-1,36
 162 495 162 495 213.5 513.5 c 128,-1,37
 265 532 265 532 327 532 c 0,38,39
 377 532 377 532 422 516.5 c 128,-1,40
 467 501 467 501 499 473 c 1,41,42
 498 494 498 494 510.5 513.5 c 128,-1,43
 523 533 523 533 552 533 c 256,44,45
 582 533 582 533 595 511 c 128,-1,46
 608 489 608 489 605 468 c 1,47,-1
 605 -6 l 2,0,1
499 265 m 0,48,49
 499 298 499 298 487.5 326.5 c 128,-1,50
 476 355 476 355 453 376.5 c 128,-1,51
 430 398 430 398 398.5 410.5 c 128,-1,52
 367 423 367 423 327 423 c 0,53,54
 247 423 247 423 200 383 c 128,-1,55
 153 343 153 343 153 265 c 0,56,57
 153 184 153 184 201 146 c 128,-1,58
 249 108 249 108 327 108 c 0,59,60
 414 108 414 108 456.5 152.5 c 128,-1,61
 499 197 499 197 499 265 c 0,48,49
EndSplineSet
EndChar
StartChar: h
Encoding: 104 104 73
Width: 662
VWidth: 1473
Flags: W
HStem: -7 21G<107.5 130 533 555> 421 109<296.117 435.341> 836 20G<107.5 129.5>
VStem: 66 106<9.50146 109.311 109.311 202.611 202.611 304.614 458 840.014> 491 106<10.532 363.865>
Fore
597 47 m 1,0,1
 597 25 597 25 581.5 9 c 128,-1,2
 566 -7 566 -7 544 -7 c 256,3,4
 522 -7 522 -7 506.5 10 c 128,-1,5
 491 27 491 27 491 47 c 2,6,-1
 491 264 l 2,7,8
 491 342 491 342 457 381.5 c 128,-1,9
 423 421 423 421 331 421 c 0,10,11
 301 421 301 421 272 410 c 128,-1,12
 243 399 243 399 221 378.5 c 128,-1,13
 199 358 199 358 185.5 328.5 c 128,-1,14
 172 299 172 299 174 264 c 2,15,-1
 174 234 l 2,16,17
 174 214 174 214 173 170.5 c 128,-1,18
 172 127 172 127 172 47 c 0,19,20
 172 25 172 25 156.5 9 c 128,-1,21
 141 -7 141 -7 119 -7 c 0,22,23
 96 -7 96 -7 81 9 c 128,-1,24
 66 25 66 25 66 47 c 2,25,-1
 66 803 l 2,26,27
 66 826 66 826 81 841 c 128,-1,28
 96 856 96 856 119 856 c 0,29,30
 140 856 140 856 156 840.5 c 128,-1,31
 172 825 172 825 172 803 c 2,32,-1
 172 458 l 1,33,34
 183 473 183 473 200.5 486 c 128,-1,35
 218 499 218 499 239.5 509 c 128,-1,36
 261 519 261 519 285 524.5 c 128,-1,37
 309 530 309 530 331 530 c 0,38,39
 399 530 399 530 448.5 510.5 c 128,-1,40
 498 491 498 491 531 455.5 c 128,-1,41
 564 420 564 420 580.5 370.5 c 128,-1,42
 597 321 597 321 597 264 c 2,43,-1
 597 47 l 1,0,1
EndSplineSet
EndChar
StartChar: i
Encoding: 105 105 74
Width: 237
VWidth: 1473
Flags: W
HStem: 585 132<69.0197 162.374>
VStem: 52 131<604.081 698.95> 66 105<13.5957 59 463 507.405>
Fore
171 59 m 2,0,-1
 171 463 l 2,1,2
 171 491 171 491 159 509 c 128,-1,3
 147 527 147 527 119 527 c 0,4,5
 90 527 90 527 78 508 c 128,-1,6
 66 489 66 489 66 463 c 2,7,-1
 66 59 l 2,8,9
 66 32 66 32 78 13 c 128,-1,10
 90 -6 90 -6 119 -6 c 0,11,12
 138 -6 138 -6 154.5 9 c 128,-1,13
 171 24 171 24 171 59 c 2,0,-1
183 653 m 0,14,15
 183 622 183 622 166 603.5 c 128,-1,16
 149 585 149 585 118 585 c 0,17,18
 85 585 85 585 68.5 603.5 c 128,-1,19
 52 622 52 622 52 653 c 0,20,21
 52 682 52 682 68.5 699.5 c 128,-1,22
 85 717 85 717 118 717 c 0,23,24
 143 717 143 717 163 703 c 128,-1,25
 183 689 183 689 183 653 c 0,14,15
EndSplineSet
EndChar
StartChar: j
Encoding: 106 106 75
Width: 238
VWidth: 1473
Flags: W
HStem: -303 106<-58.014 15.6724> 586 133<69.0197 162.374>
VStem: 52 131<605.081 700.95> 66 106<-125.248 -68 466 509.405>
Fore
172 -68 m 2,0,-1
 172 466 l 2,1,2
 172 492 172 492 159 510.5 c 128,-1,3
 146 529 146 529 119 529 c 256,4,5
 93 529 93 529 79.5 510 c 128,-1,6
 66 491 66 491 66 466 c 2,7,-1
 66 -68 l 2,8,9
 66 -102 66 -102 64 -126 c 128,-1,10
 62 -150 62 -150 53 -166.5 c 128,-1,11
 44 -183 44 -183 27 -190 c 128,-1,12
 10 -197 10 -197 -21 -197 c 0,13,14
 -44 -197 -44 -197 -59 -212 c 128,-1,15
 -74 -227 -74 -227 -74 -250 c 128,-1,16
 -74 -273 -74 -273 -58.5 -288 c 128,-1,17
 -43 -303 -43 -303 -21 -303 c 0,18,19
 85 -303 85 -303 129.5 -240.5 c 128,-1,20
 174 -178 174 -178 172 -68 c 2,0,-1
183 654 m 0,21,22
 183 623 183 623 166 604.5 c 128,-1,23
 149 586 149 586 118 586 c 0,24,25
 85 586 85 586 68.5 604.5 c 128,-1,26
 52 623 52 623 52 654 c 0,27,28
 52 684 52 684 68.5 701.5 c 128,-1,29
 85 719 85 719 118 719 c 0,30,31
 143 719 143 719 163 705 c 128,-1,32
 183 691 183 691 183 654 c 0,21,22
EndSplineSet
EndChar
StartChar: k
Encoding: 107 107 76
Width: 561
VWidth: 1473
Flags: W
HStem: -7 21G<103 127.5> 818 20G<103 132>
VStem: 65 106<31.3011 57 57 237 349 800.139> 442 105<-2.37923 97.0721>
Fore
551 504 m 0,0,1
 573 470 573 470 542 439 c 1,2,-1
 542 440 l 1,3,4
 535 433 535 433 501.5 415.5 c 128,-1,5
 468 398 468 398 383 354 c 1,6,7
 410 331 410 331 435 299.5 c 128,-1,8
 460 268 460 268 482 230 c 128,-1,9
 504 192 504 192 521 147.5 c 128,-1,10
 538 103 538 103 547 55 c 0,11,12
 550 32 550 32 538 14 c 128,-1,13
 526 -4 526 -4 504 -7 c 0,14,15
 482 -12 482 -12 463.5 0.5 c 128,-1,16
 445 13 445 13 442 35 c 0,17,18
 424 127 424 127 380.5 199 c 128,-1,19
 337 271 337 271 289 305 c 1,20,-1
 171 237 l 1,21,-1
 171 59 l 2,22,23
 171 22 171 22 154 7.5 c 128,-1,24
 137 -7 137 -7 118 -7 c 0,25,26
 88 -7 88 -7 76.5 12.5 c 128,-1,27
 65 32 65 32 65 57 c 2,28,-1
 65 773 l 2,29,30
 65 800 65 800 76.5 819 c 128,-1,31
 88 838 88 838 118 838 c 0,32,33
 146 838 146 838 158.5 819.5 c 128,-1,34
 171 801 171 801 171 773 c 2,35,-1
 171 349 l 1,36,37
 287 408 287 408 352.5 442.5 c 128,-1,38
 418 477 418 477 451 496 c 0,39,40
 489 519 489 519 498 526 c 1,41,42
 514 530 514 530 529 523.5 c 128,-1,43
 544 517 544 517 551 504 c 0,0,1
EndSplineSet
EndChar
StartChar: l
Encoding: 108 108 77
Width: 238
VWidth: 1473
Flags: W
HStem: -1 21G<106 130.5> 827 20G<106 133.5>
VStem: 66 106<18.5955 826.374>
Fore
172 63 m 1,0,1
 172 28 172 28 156 13.5 c 128,-1,2
 140 -1 140 -1 121 -1 c 0,3,4
 91 -1 91 -1 78.5 18 c 128,-1,5
 66 37 66 37 66 63 c 2,6,-1
 66 782 l 2,7,8
 66 809 66 809 78.5 828 c 128,-1,9
 91 847 91 847 121 847 c 0,10,11
 146 847 146 847 159 827 c 128,-1,12
 172 807 172 807 172 782 c 2,13,-1
 172 63 l 1,0,1
EndSplineSet
EndChar
StartChar: m
Encoding: 109 109 78
Width: 932
VWidth: 1473
Flags: W
HStem: -1 21G<106 127 457 478.5 808.5 830> 433 102<221.825 371.179 600.5 624.578 624.578 627.973 626.276 713.43>
VStem: 63 106<16.0167 380.946 470 517.468> 414 108<15.5015 358.102> 766 106<16.0167 331.852>
Fore
872 53 m 2,0,1
 872 31 872 31 856.5 15 c 128,-1,2
 841 -1 841 -1 819 -1 c 0,3,4
 798 -1 798 -1 781.5 15.5 c 128,-1,5
 765 32 765 32 766 53 c 2,6,-1
 766 284 l 2,7,8
 766 312 766 312 761.5 338.5 c 128,-1,9
 757 365 757 365 744 386 c 128,-1,10
 731 407 731 407 707.5 420 c 128,-1,11
 684 433 684 433 644 433 c 0,12,13
 622 433 622 433 600.5 426.5 c 128,-1,14
 579 420 579 420 561.5 406.5 c 128,-1,15
 544 393 544 393 533 375 c 128,-1,16
 522 357 522 357 522 333 c 2,17,-1
 522 53 l 2,18,19
 522 31 522 31 505.5 15 c 128,-1,20
 489 -1 489 -1 468 -1 c 0,21,22
 446 -1 446 -1 430 15 c 128,-1,23
 414 31 414 31 414 53 c 2,24,-1
 414 333 l 2,25,26
 414 376 414 376 380 404.5 c 128,-1,27
 346 433 346 433 299 433 c 0,28,29
 225 433 225 433 196.5 390.5 c 128,-1,30
 168 348 168 348 169 284 c 2,31,-1
 169 53 l 2,32,33
 169 31 169 31 153.5 15 c 128,-1,34
 138 -1 138 -1 116 -1 c 0,35,36
 96 -1 96 -1 79.5 15.5 c 128,-1,37
 63 32 63 32 63 53 c 2,38,-1
 63 480 l 2,39,40
 63 501 63 501 79.5 518 c 128,-1,41
 96 535 96 535 116 535 c 0,42,43
 138 535 138 535 153.5 518 c 128,-1,44
 169 501 169 501 169 480 c 2,45,-1
 169 470 l 1,46,47
 186 499 186 499 225 517 c 128,-1,48
 264 535 264 535 299 535 c 0,49,50
 351 535 351 535 395 515 c 128,-1,51
 439 495 439 495 470 454 c 1,52,53
 480 471 480 471 500 486.5 c 128,-1,54
 520 502 520 502 543.5 512.5 c 128,-1,55
 567 523 567 523 593 529 c 128,-1,56
 619 535 619 535 644 535 c 0,57,58
 697 535 697 535 739 521.5 c 128,-1,59
 781 508 781 508 810.5 478.5 c 128,-1,60
 840 449 840 449 856 402 c 128,-1,61
 872 355 872 355 872 286 c 2,62,-1
 872 53 l 2,0,1
EndSplineSet
EndChar
StartChar: n
Encoding: 110 110 79
Width: 662
VWidth: 1473
Flags: W
HStem: -1 21G<110.5 132 533.5 555> 426 109<244.137 426.497>
VStem: 68 106<16.0167 359.515 463 515.468> 491 106<16.0167 359.031>
Fore
597 53 m 1,0,1
 597 31 597 31 581.5 15 c 128,-1,2
 566 -1 566 -1 544 -1 c 0,3,4
 523 -1 523 -1 507 15.5 c 128,-1,5
 491 32 491 32 491 53 c 2,6,-1
 491 268 l 2,7,8
 491 339 491 339 453 382.5 c 128,-1,9
 415 426 415 426 333 426 c 0,10,11
 174 426 174 426 174 264 c 2,12,-1
 174 53 l 2,13,14
 174 31 174 31 158.5 15 c 128,-1,15
 143 -1 143 -1 121 -1 c 0,16,17
 100 -1 100 -1 84 15.5 c 128,-1,18
 68 32 68 32 68 53 c 2,19,-1
 66 479 l 2,20,21
 66 499 66 499 82.5 516 c 128,-1,22
 99 533 99 533 119 533 c 0,23,24
 141 533 141 533 157.5 517 c 128,-1,25
 174 501 174 501 174 479 c 2,26,-1
 174 463 l 1,27,28
 203 495 203 495 244.5 515 c 128,-1,29
 286 535 286 535 333 535 c 0,30,31
 398 535 398 535 447 515.5 c 128,-1,32
 496 496 496 496 529.5 461 c 128,-1,33
 563 426 563 426 580 376.5 c 128,-1,34
 597 327 597 327 597 268 c 2,35,-1
 597 53 l 1,0,1
EndSplineSet
EndChar
StartChar: o
Encoding: 111 111 80
Width: 659
VWidth: 1473
Flags: W
HStem: 1 107<227.831 428.95> 429 106<226.392 429.645>
VStem: 50 103<178.237 358.103> 505 103<180.848 352.768>
Fore
608 268 m 0,0,1
 608 147 608 147 533 74 c 128,-1,2
 458 1 458 1 329 1 c 0,3,4
 203 1 203 1 126.5 72 c 128,-1,5
 50 143 50 143 50 268 c 0,6,7
 50 330 50 330 70.5 379.5 c 128,-1,8
 91 429 91 429 127.5 463.5 c 128,-1,9
 164 498 164 498 215.5 516.5 c 128,-1,10
 267 535 267 535 329 535 c 0,11,12
 401 535 401 535 454 511.5 c 128,-1,13
 507 488 507 488 541 449.5 c 128,-1,14
 575 411 575 411 591.5 364 c 128,-1,15
 608 317 608 317 608 268 c 0,0,1
505 268 m 0,16,17
 505 334 505 334 462.5 381.5 c 128,-1,18
 420 429 420 429 329 429 c 0,19,20
 242 429 242 429 197.5 387 c 128,-1,21
 153 345 153 345 153 268 c 0,22,23
 153 187 153 187 200 147.5 c 128,-1,24
 247 108 247 108 329 108 c 0,25,26
 415 108 415 108 460 151 c 128,-1,27
 505 194 505 194 505 268 c 0,16,17
EndSplineSet
EndChar
StartChar: p
Encoding: 112 112 81
Width: 674
VWidth: 1473
Flags: W
HStem: -312 21G<107.5 129> -1 107<245.211 444.938> 421 109<244.001 440.572>
VStem: 63 109<-295.499 53 460 514.468> 516 107<176.269 348.315>
Fore
623 264 m 0,0,1
 623 138 623 138 550 68.5 c 128,-1,2
 477 -1 477 -1 343 -1 c 0,3,4
 290 -1 290 -1 246.5 13.5 c 128,-1,5
 203 28 203 28 172 53 c 1,6,-1
 172 -258 l 2,7,8
 172 -281 172 -281 156 -296.5 c 128,-1,9
 140 -312 140 -312 118 -312 c 0,10,11
 97 -312 97 -312 79.5 -296 c 128,-1,12
 62 -280 62 -280 63 -258 c 2,13,-1
 63 477 l 2,14,15
 63 498 63 498 79.5 515 c 128,-1,16
 96 532 96 532 116 532 c 0,17,18
 138 532 138 532 153.5 515.5 c 128,-1,19
 169 499 169 499 169 477 c 2,20,-1
 169 460 l 1,21,22
 199 492 199 492 244 511 c 128,-1,23
 289 530 289 530 343 530 c 0,24,25
 473 530 473 530 548 461.5 c 128,-1,26
 623 393 623 393 623 264 c 0,0,1
516 264 m 0,27,28
 516 334 516 334 471.5 377.5 c 128,-1,29
 427 421 427 421 343 421 c 0,30,31
 262 421 262 421 218.5 382 c 128,-1,32
 175 343 175 343 171 273 c 0,33,34
 166 196 166 196 210.5 151 c 128,-1,35
 255 106 255 106 343 106 c 0,36,37
 429 106 429 106 472.5 147.5 c 128,-1,38
 516 189 516 189 516 264 c 0,27,28
EndSplineSet
EndChar
StartChar: q
Encoding: 113 113 82
Width: 674
VWidth: 1473
Flags: W
HStem: -312 21G<541.5 564.5> -1 107<232.944 423.942> 421 109<231.239 423.621>
VStem: 49 107<179.592 349.705> 501 106<-296.014 53 170.602 352.402 467 498.772>
Fore
607 -258 m 2,0,1
 607 -281 607 -281 591 -296.5 c 128,-1,2
 575 -312 575 -312 554 -312 c 0,3,4
 529 -312 529 -312 515 -296.5 c 128,-1,5
 501 -281 501 -281 501 -258 c 2,6,-1
 501 53 l 1,7,8
 467 27 467 27 422 13 c 128,-1,9
 377 -1 377 -1 329 -1 c 0,10,11
 268 -1 268 -1 216.5 18 c 128,-1,12
 165 37 165 37 127.5 72.5 c 128,-1,13
 90 108 90 108 69.5 156.5 c 128,-1,14
 49 205 49 205 49 264 c 0,15,16
 49 326 49 326 69.5 375 c 128,-1,17
 90 424 90 424 127.5 459 c 128,-1,18
 165 494 165 494 216.5 512 c 128,-1,19
 268 530 268 530 329 530 c 0,20,21
 379 530 379 530 423.5 514.5 c 128,-1,22
 468 499 468 499 502 467 c 1,23,-1
 502 477 l 2,24,25
 502 499 502 499 517.5 515.5 c 128,-1,26
 533 532 533 532 555 532 c 0,27,28
 576 532 576 532 593 515 c 128,-1,29
 610 498 610 498 608 477 c 2,30,-1
 607 -258 l 2,0,1
501 273 m 1,31,32
 502 342 502 342 453 381.5 c 128,-1,33
 404 421 404 421 329 421 c 0,34,35
 249 421 249 421 202.5 379 c 128,-1,36
 156 337 156 337 156 264 c 0,37,38
 156 193 156 193 202.5 149.5 c 128,-1,39
 249 106 249 106 329 106 c 0,40,41
 412 106 412 106 461.5 151 c 128,-1,42
 511 196 511 196 501 273 c 1,31,32
EndSplineSet
EndChar
StartChar: r
Encoding: 114 114 83
Width: 439
VWidth: 1473
Flags: W
HStem: -1 21G<98.5 120> 420 107<258.562 389.549>
VStem: 56 106<16.0167 247.604 438 508.435>
Fore
56 463 m 2,0,1
 56 491 56 491 68 509 c 128,-1,2
 80 527 80 527 109 527 c 0,3,4
 137 527 137 527 149.5 509 c 128,-1,5
 162 491 162 491 162 463 c 2,6,-1
 162 438 l 1,7,8
 190 474 190 474 235 500.5 c 128,-1,9
 280 527 280 527 342 527 c 2,10,-1
 364 527 l 2,11,12
 389 527 389 527 408 515.5 c 128,-1,13
 427 504 427 504 427 474 c 0,14,15
 427 454 427 454 413 437 c 128,-1,16
 399 420 399 420 364 420 c 2,17,-1
 329 420 l 1,18,19
 277 412 277 412 244.5 390 c 128,-1,20
 212 368 212 368 193.5 337 c 128,-1,21
 175 306 175 306 168.5 268.5 c 128,-1,22
 162 231 162 231 162 196 c 2,23,-1
 162 53 l 2,24,25
 162 31 162 31 146.5 15 c 128,-1,26
 131 -1 131 -1 109 -1 c 0,27,28
 88 -1 88 -1 72 15.5 c 128,-1,29
 56 32 56 32 56 53 c 2,30,-1
 56 463 l 2,0,1
EndSplineSet
EndChar
StartChar: s
Encoding: 115 115 84
Width: 531
VWidth: 1473
Flags: W
HStem: -18 95<202.608 306.282> 441.5 97<228.481 297.268>
VStem: 48.5 439.5<151 409.5 151 151>
Fore
470 379 m 0,0,1
 449 361 449 361 422.5 366 c 128,-1,2
 396 371 396 371 385 387 c 0,3,4
 364 417 364 417 327 430 c 128,-1,5
 290 443 290 443 255 441.5 c 128,-1,6
 220 440 220 440 194.5 425 c 128,-1,7
 169 410 169 410 172 383 c 0,8,9
 174 364 174 364 196 350 c 128,-1,10
 218 336 218 336 244.5 325.5 c 128,-1,11
 271 315 271 315 294 309 c 128,-1,12
 317 303 317 303 321 302 c 0,13,14
 345 295 345 295 370.5 285 c 128,-1,15
 396 275 396 275 419 261 c 128,-1,16
 442 247 442 247 459.5 229 c 128,-1,17
 477 211 477 211 483 187 c 0,18,19
 496 136 496 136 481 96.5 c 128,-1,20
 466 57 466 57 432.5 31.5 c 128,-1,21
 399 6 399 6 352 -6.5 c 128,-1,22
 305 -19 305 -19 256 -18 c 0,23,24
 218 -18 218 -18 184 -7 c 128,-1,25
 150 4 150 4 123 22 c 128,-1,26
 96 40 96 40 76.5 62 c 128,-1,27
 57 84 57 84 49 108 c 0,28,29
 40 128 40 128 48.5 151 c 128,-1,30
 57 174 57 174 80 181 c 0,31,32
 102 187 102 187 122.5 178 c 128,-1,33
 143 169 143 169 152 149 c 0,34,35
 166 115 166 115 201.5 96.5 c 128,-1,36
 237 78 237 78 265 77 c 0,37,38
 284 75 284 75 307 79.5 c 128,-1,39
 330 84 330 84 347.5 93 c 128,-1,40
 365 102 365 102 375 116.5 c 128,-1,41
 385 131 385 131 380 152 c 0,42,43
 376 171 376 171 348 185.5 c 128,-1,44
 320 200 320 200 284.5 212.5 c 128,-1,45
 249 225 249 225 215 234 c 128,-1,46
 181 243 181 243 164 250 c 0,47,48
 125 265 125 265 101 291.5 c 128,-1,49
 77 318 77 318 68 350 c 128,-1,50
 59 382 59 382 67 415.5 c 128,-1,51
 75 449 75 449 105 479 c 0,52,53
 137 511 137 511 190 526.5 c 128,-1,54
 243 542 243 542 299 538.5 c 128,-1,55
 355 535 355 535 404.5 512 c 128,-1,56
 454 489 454 489 479 448 c 0,57,58
 491 429 491 429 488 409.5 c 128,-1,59
 485 390 485 390 470 379 c 0,0,1
EndSplineSet
EndChar
StartChar: t
Encoding: 116 116 85
Width: 409
VWidth: 1473
Flags: W
HStem: 0 108<210.08 385.92> 420 107<172 323.92> 812 20G<106 134>
VStem: 66 106<145.941 420 527 813.435> 66 339<53 220>
Fore
405 53 m 0,0,1
 405 34 405 34 391 17 c 128,-1,2
 377 0 377 0 342 0 c 2,3,-1
 290 0 l 2,4,5
 190 0 190 0 128 53 c 128,-1,6
 66 106 66 106 66 220 c 2,7,-1
 66 768 l 2,8,9
 66 796 66 796 78.5 814 c 128,-1,10
 91 832 91 832 121 832 c 0,11,12
 147 832 147 832 159.5 814 c 128,-1,13
 172 796 172 796 172 768 c 2,14,-1
 172 527 l 1,15,-1
 280 527 l 2,16,17
 306 527 306 527 324.5 514.5 c 128,-1,18
 343 502 343 502 343 473 c 0,19,20
 343 452 343 452 329 436 c 128,-1,21
 315 420 315 420 280 420 c 2,22,-1
 172 420 l 1,23,-1
 172 220 l 2,24,25
 172 162 172 162 203 135 c 128,-1,26
 234 108 234 108 290 108 c 2,27,-1
 342 108 l 2,28,29
 368 108 368 108 386.5 95 c 128,-1,30
 405 82 405 82 405 53 c 0,0,1
EndSplineSet
EndChar
StartChar: u
Encoding: 117 117 86
Width: 658
VWidth: 1473
Flags: W
HStem: -7 109<234.566 421.382> 507 20G<106 128 530 551>
VStem: 63 106<169.822 511.014> 488 106<9.98645 44 44 56 161.031 511.014>
Fore
594 49 m 1,0,1
 594 25 594 25 578.5 9.5 c 128,-1,2
 563 -6 563 -6 541 -6 c 0,3,4
 520 -6 520 -6 503 8 c 128,-1,5
 486 22 486 22 488 44 c 2,6,-1
 488 56 l 1,7,8
 457 27 457 27 416.5 10 c 128,-1,9
 376 -7 376 -7 329 -7 c 0,10,11
 197 -7 197 -7 130 66.5 c 128,-1,12
 63 140 63 140 63 259 c 2,13,-1
 63 474 l 2,14,15
 63 496 63 496 79.5 511.5 c 128,-1,16
 96 527 96 527 116 527 c 0,17,18
 140 527 140 527 154.5 512.5 c 128,-1,19
 169 498 169 498 169 474 c 2,20,-1
 169 259 l 2,21,22
 169 187 169 187 208 144.5 c 128,-1,23
 247 102 247 102 329 102 c 128,-1,24
 411 102 411 102 449.5 139.5 c 128,-1,25
 488 177 488 177 488 259 c 2,26,-1
 488 474 l 2,27,28
 488 496 488 496 503.5 511.5 c 128,-1,29
 519 527 519 527 541 527 c 0,30,31
 561 527 561 527 578 511.5 c 128,-1,32
 595 496 595 496 594 474 c 2,33,-1
 594 49 l 1,0,1
EndSplineSet
EndChar
StartChar: v
Encoding: 118 118 87
Width: 589
VWidth: 1473
Flags: W
HStem: -7 103<254.488 332.685>
Fore
570 457 m 0,0,1
 569 451 569 451 555 412 c 0,2,3
 550 396 550 396 541.5 371 c 128,-1,4
 533 346 533 346 520.5 309.5 c 128,-1,5
 508 273 508 273 490.5 224 c 128,-1,6
 473 175 473 175 451 110 c 0,7,8
 446 97 446 97 436 77 c 128,-1,9
 426 57 426 57 407.5 39 c 128,-1,10
 389 21 389 21 361 7 c 128,-1,11
 333 -7 333 -7 293 -7 c 256,12,13
 253 -7 253 -7 226 6 c 128,-1,14
 199 19 199 19 180.5 38 c 128,-1,15
 162 57 162 57 151.5 77 c 128,-1,16
 141 97 141 97 136 109 c 1,17,-1
 136 110 l 1,18,-1
 16 457 l 2,19,20
 9 477 9 477 18.5 497 c 128,-1,21
 28 517 28 517 49 524 c 0,22,23
 69 533 69 533 89.5 523 c 128,-1,24
 110 513 110 513 118 492 c 1,25,26
 118 488 118 488 131 449 c 0,27,28
 141 417 141 417 165 347.5 c 128,-1,29
 189 278 189 278 234 150 c 0,30,31
 246 119 246 119 258.5 107.5 c 128,-1,32
 271 96 271 96 293 96 c 256,33,34
 315 96 315 96 328.5 107.5 c 128,-1,35
 342 119 342 119 352 150 c 2,36,-1
 468 492 l 2,37,38
 476 513 476 513 496.5 523 c 128,-1,39
 517 533 517 533 538 524 c 0,40,41
 558 517 558 517 567.5 497 c 128,-1,42
 577 477 577 477 570 457 c 0,0,1
EndSplineSet
EndChar
StartChar: w
Encoding: 119 119 88
Width: 880
VWidth: 1473
Flags: W
HStem: -7 109<201.74 348.642 530.257 693.416> 507 20G<77 98.5 428.5 451 780 801.5>
VStem: 35 106<213.281 511.014> 386 106<136.534 511.014> 738 106<150.987 511.014>
Fore
844 255 m 2,0,1
 844 197 844 197 831 149.5 c 128,-1,2
 818 102 818 102 789 67 c 128,-1,3
 760 32 760 32 715 12.5 c 128,-1,4
 670 -7 670 -7 608 -7 c 0,5,6
 551 -7 551 -7 506 14 c 128,-1,7
 461 35 461 35 439 63 c 1,8,9
 411 31 411 31 364.5 12 c 128,-1,10
 318 -7 318 -7 271 -7 c 0,11,12
 208 -7 208 -7 163.5 12 c 128,-1,13
 119 31 119 31 90.5 65.5 c 128,-1,14
 62 100 62 100 48.5 149.5 c 128,-1,15
 35 199 35 199 35 259 c 2,16,-1
 35 474 l 2,17,18
 35 496 35 496 50.5 511.5 c 128,-1,19
 66 527 66 527 88 527 c 0,20,21
 109 527 109 527 125 511.5 c 128,-1,22
 141 496 141 496 141 474 c 2,23,-1
 141 255 l 2,24,25
 141 227 141 227 147 199.5 c 128,-1,26
 153 172 153 172 168 150 c 128,-1,27
 183 128 183 128 208 115 c 128,-1,28
 233 102 233 102 271 102 c 0,29,30
 318 102 318 102 352 126 c 128,-1,31
 386 150 386 150 386 193 c 2,32,-1
 386 474 l 2,33,34
 386 496 386 496 402 511.5 c 128,-1,35
 418 527 418 527 439 527 c 0,36,37
 463 527 463 527 477.5 512.5 c 128,-1,38
 492 498 492 498 492 474 c 2,39,-1
 492 193 l 2,40,41
 492 150 492 150 526.5 126 c 128,-1,42
 561 102 561 102 608 102 c 0,43,44
 685 102 685 102 711.5 142.5 c 128,-1,45
 738 183 738 183 738 259 c 2,46,-1
 738 474 l 2,47,48
 738 496 738 496 753.5 511.5 c 128,-1,49
 769 527 769 527 791 527 c 0,50,51
 812 527 812 527 828 511.5 c 128,-1,52
 844 496 844 496 844 474 c 2,53,-1
 844 255 l 2,0,1
EndSplineSet
EndChar
StartChar: x
Encoding: 120 120 89
Width: 573
VWidth: 1473
Flags: W
HStem: 224 84<251.439 321.107>
Fore
541 84 m 0,0,1
 552 65 552 65 549.5 43 c 128,-1,2
 547 21 547 21 529 7 c 256,3,4
 511 -6 511 -6 488.5 -3 c 128,-1,5
 466 0 466 0 452 19 c 0,6,7
 435 44 435 44 417 71 c 0,8,9
 401 93 401 93 382.5 120 c 128,-1,10
 364 147 364 147 348 172 c 0,11,12
 334 190 334 190 322.5 207 c 128,-1,13
 311 224 311 224 286 224 c 0,14,15
 265 224 265 224 251 207 c 128,-1,16
 237 190 237 190 225 172 c 2,17,-1
 212 153 l 1,18,-1
 119 19 l 2,19,20
 106 0 106 0 84 -3 c 128,-1,21
 62 -6 62 -6 43 7 c 0,22,23
 25 21 25 21 22 43 c 128,-1,24
 19 65 19 65 31 84 c 0,25,26
 71 141 71 141 92 172 c 128,-1,27
 113 203 113 203 124 217 c 0,28,29
 136 233 136 233 136 234 c 1,30,31
 146 249 146 249 162 257 c 128,-1,32
 178 265 178 265 192 265 c 1,33,34
 175 267 175 267 159 278 c 128,-1,35
 143 289 143 289 137 296 c 2,36,-1
 124 315 l 2,37,38
 113 329 113 329 92 358 c 128,-1,39
 71 387 71 387 32 442 c 0,40,41
 19 460 19 460 22 482 c 128,-1,42
 25 504 25 504 41 519 c 0,43,44
 59 532 59 532 82.5 530.5 c 128,-1,45
 106 529 106 529 118 508 c 0,46,47
 136 485 136 485 153 458 c 0,48,49
 169 436 169 436 187.5 410.5 c 128,-1,50
 206 385 206 385 224 359 c 0,51,52
 237 343 237 343 249 325.5 c 128,-1,53
 261 308 261 308 286 308 c 0,54,55
 309 308 309 308 321.5 325 c 128,-1,56
 334 342 334 342 346 358 c 2,57,-1
 454 508 l 2,58,59
 468 527 468 527 489.5 529.5 c 128,-1,60
 511 532 511 532 530 519 c 0,61,62
 547 504 547 504 549.5 482 c 128,-1,63
 552 460 552 460 539 442 c 0,64,65
 499 386 499 386 478 356.5 c 128,-1,66
 457 327 457 327 446.5 314 c 128,-1,67
 436 301 436 301 435.5 299.5 c 2,68,-1
 433 296 l 2,69,70
 427 289 427 289 411.5 278 c 128,-1,71
 396 267 396 267 380 265 c 1,72,73
 402 262 402 262 417 251 c 128,-1,74
 432 240 432 240 436 234 c 2,75,-1
 449 215 l 2,76,77
 460 200 460 200 481 170 c 128,-1,78
 502 140 502 140 541 84 c 0,0,1
EndSplineSet
EndChar
StartChar: y
Encoding: 121 121 90
Width: 602
VWidth: 1473
Flags: W
HStem: -283.5 106.5<256.195 335.438> -3 109<199.848 393.616> 512 20G<78 100 498 527.5>
VStem: 35 106<164.438 516.014> 460 106<-64.1265 49 169.518 492.969>
Fore
566 -27 m 1,0,1
 566 -119 566 -119 517 -183 c 128,-1,2
 468 -247 468 -247 382 -273 c 0,3,4
 339 -284 339 -284 296 -283.5 c 128,-1,5
 253 -283 253 -283 215 -272.5 c 128,-1,6
 177 -262 177 -262 146.5 -242 c 128,-1,7
 116 -222 116 -222 100 -194 c 0,8,9
 88 -175 88 -175 94 -154.5 c 128,-1,10
 100 -134 100 -134 119 -122 c 256,11,12
 138 -110 138 -110 159.5 -116 c 128,-1,13
 181 -122 181 -122 192 -141 c 0,14,15
 197 -150 197 -150 212.5 -159 c 128,-1,16
 228 -168 228 -168 250.5 -172.5 c 128,-1,17
 273 -177 273 -177 300 -177 c 128,-1,18
 327 -177 327 -177 354 -169 c 0,19,20
 371 -165 371 -165 390.5 -154.5 c 128,-1,21
 410 -144 410 -144 425 -128 c 128,-1,22
 440 -112 440 -112 450 -87 c 128,-1,23
 460 -62 460 -62 460 -27 c 2,24,-1
 460 49 l 1,25,26
 429 22 429 22 388.5 9.5 c 128,-1,27
 348 -3 348 -3 301 -3 c 0,28,29
 172 -3 172 -3 103.5 70 c 128,-1,30
 35 143 35 143 35 264 c 2,31,-1
 35 479 l 2,32,33
 35 501 35 501 51.5 516.5 c 128,-1,34
 68 532 68 532 88 532 c 0,35,36
 112 532 112 532 126.5 517 c 128,-1,37
 141 502 141 502 141 479 c 2,38,-1
 141 264 l 2,39,40
 141 180 141 180 179.5 143 c 128,-1,41
 218 106 218 106 301 106 c 0,42,43
 385 106 385 106 421 144.5 c 128,-1,44
 457 183 457 183 460 264 c 2,45,-1
 460 470 l 2,46,47
 460 491 460 491 471.5 512 c 128,-1,48
 483 533 483 533 513 533 c 256,49,50
 542 533 542 533 555.5 512 c 128,-1,51
 569 491 569 491 566 470 c 1,52,-1
 566 -27 l 1,0,1
EndSplineSet
EndChar
StartChar: z
Encoding: 122 122 91
Width: 545
VWidth: 1473
Flags: W
HStem: -1 109<162.376 477.374> 418 109<64.6265 379.084>
VStem: 44 454<55 471 142.5 142.5>
Fore
368 355 m 2,0,1
 387 362 387 362 393 372.5 c 128,-1,2
 399 383 399 383 396 395 c 256,3,4
 393 407 393 407 383.5 412.5 c 128,-1,5
 374 418 374 418 351 418 c 2,6,-1
 110 418 l 2,7,8
 84 418 84 418 64 431.5 c 128,-1,9
 44 445 44 445 44 471 c 0,10,11
 44 492 44 492 59 509.5 c 128,-1,12
 74 527 74 527 110 527 c 2,13,-1
 352 527 l 2,14,15
 414 527 414 527 450 495 c 128,-1,16
 486 463 486 463 495 418 c 0,17,18
 498 404 498 404 498 385.5 c 128,-1,19
 498 367 498 367 491.5 348 c 128,-1,20
 485 329 485 329 471 310.5 c 128,-1,21
 457 292 457 292 430 278 c 2,22,-1
 174 174 l 2,23,24
 153 166 153 166 148.5 153 c 128,-1,25
 144 140 144 140 147 128 c 0,26,27
 150 115 150 115 162 111.5 c 128,-1,28
 174 108 174 108 192 108 c 2,29,-1
 432 108 l 2,30,31
 458 108 458 108 478 94.5 c 128,-1,32
 498 81 498 81 498 55 c 0,33,34
 498 34 498 34 483 16.5 c 128,-1,35
 468 -1 468 -1 432 -1 c 2,36,-1
 190 -1 l 2,37,38
 128 -1 128 -1 92 32 c 128,-1,39
 56 65 56 65 47 109 c 0,40,41
 44 124 44 124 44 142.5 c 128,-1,42
 44 161 44 161 50.5 180.5 c 128,-1,43
 57 200 57 200 71 218.5 c 128,-1,44
 85 237 85 237 112 250 c 2,45,-1
 368 355 l 2,0,1
EndSplineSet
EndChar
StartChar: braceleft
Encoding: 123 123 92
Width: 441
VWidth: 1473
Flags: W
VStem: 63 291<295 685 167.758 363.183> 149 109<-16.6678 209.852 402.758 598.183>
Fore
354 685 m 0,0,1
 351 669 351 669 340.5 660 c 128,-1,2
 330 651 330 651 318 644 c 0,3,4
 289 625 289 625 273.5 599 c 128,-1,5
 258 573 258 573 258 530 c 2,6,-1
 258 440 l 2,7,8
 258 392 258 392 237.5 353.5 c 128,-1,9
 217 315 217 315 178 290 c 1,10,11
 217 265 217 265 237.5 227 c 128,-1,12
 258 189 258 189 258 140 c 2,13,-1
 258 52 l 2,14,15
 258 9 258 9 272.5 -17.5 c 128,-1,16
 287 -44 287 -44 318 -63 c 0,17,18
 342 -78 342 -78 350.5 -97 c 128,-1,19
 359 -116 359 -116 343 -144 c 0,20,21
 329 -165 329 -165 303 -168 c 0,22,23
 259 -171 259 -171 202 -106 c 0,24,25
 149 -49 149 -49 149 52 c 2,26,-1
 149 140 l 2,27,28
 149 190 149 190 131 210.5 c 128,-1,29
 113 231 113 231 96 243 c 0,30,31
 84 250 84 250 72 262 c 128,-1,32
 60 274 60 274 63 295 c 0,33,34
 66 311 66 311 75.5 320.5 c 128,-1,35
 85 330 85 330 97 337 c 0,36,37
 106 343 106 343 115 350.5 c 128,-1,38
 124 358 124 358 132 370 c 128,-1,39
 140 382 140 382 144.5 398.5 c 128,-1,40
 149 415 149 415 149 440 c 2,41,-1
 149 530 l 2,42,43
 149 631 149 631 202 688 c 0,44,45
 262 753 262 753 303 748 c 0,46,47
 326 745 326 745 342 726 c 128,-1,48
 358 707 358 707 354 685 c 0,0,1
EndSplineSet
EndChar
StartChar: bar
Encoding: 124 124 93
Width: 294
VWidth: 1473
Flags: W
HStem: 777 20G<133.5 162>
VStem: 93 109<-191.92 776.374>
Fore
202 -146 m 1,0,1
 202 -183 202 -183 185 -197 c 128,-1,2
 168 -211 168 -211 149 -211 c 0,3,4
 119 -211 119 -211 106 -192.5 c 128,-1,5
 93 -174 93 -174 93 -146 c 2,6,-1
 93 731 l 2,7,8
 93 759 93 759 105.5 778 c 128,-1,9
 118 797 118 797 149 797 c 0,10,11
 175 797 175 797 188.5 777 c 128,-1,12
 202 757 202 757 202 731 c 2,13,-1
 202 -146 l 1,0,1
EndSplineSet
EndChar
StartChar: braceright
Encoding: 125 125 94
Width: 441
VWidth: 1473
Flags: W
VStem: 87.5 291.5<-107.5 293 155.875 362.469> 184 109<-31.9199 208.852 401.375 607.969>
Fore
379 293 m 0,0,1
 382 273 382 273 370 261 c 128,-1,2
 358 249 358 249 346 242 c 0,3,4
 329 230 329 230 311 209.5 c 128,-1,5
 293 189 293 189 293 138 c 2,6,-1
 293 50 l 2,7,8
 293 -1 293 -1 280 -39.5 c 128,-1,9
 267 -78 267 -78 242 -108 c 0,10,11
 224 -127 224 -127 204 -143 c 128,-1,12
 184 -159 184 -159 165 -166.5 c 128,-1,13
 146 -174 146 -174 129 -170 c 128,-1,14
 112 -166 112 -166 99 -146 c 0,15,16
 84 -122 84 -122 87.5 -107.5 c 128,-1,17
 91 -93 91 -93 103.5 -81 c 128,-1,18
 116 -69 116 -69 132.5 -59 c 128,-1,19
 149 -49 149 -49 161 -34 c 0,20,21
 184 -1 184 -1 184 50 c 2,22,-1
 184 138 l 2,23,24
 184 187 184 187 204.5 225.5 c 128,-1,25
 225 264 225 264 264 289 c 1,26,27
 225 314 225 314 204.5 352 c 128,-1,28
 184 390 184 390 184 439 c 2,29,-1
 184 529 l 2,30,31
 184 580 184 580 161 611 c 0,32,33
 149 625 149 625 132.5 636 c 128,-1,34
 116 647 116 647 103.5 659.5 c 128,-1,35
 91 672 91 672 87.5 686.5 c 128,-1,36
 84 701 84 701 99 723 c 0,37,38
 112 744 112 744 129 747.5 c 128,-1,39
 146 751 146 751 165 744 c 128,-1,40
 184 737 184 737 204 720.5 c 128,-1,41
 224 704 224 704 242 687 c 0,42,43
 293 628 293 628 293 529 c 2,44,-1
 293 439 l 2,45,46
 293 414 293 414 297.5 397 c 128,-1,47
 302 380 302 380 310 368.5 c 128,-1,48
 318 357 318 357 327 349.5 c 128,-1,49
 336 342 336 342 345 336 c 0,50,51
 357 329 357 329 366.5 319 c 128,-1,52
 376 309 376 309 379 293 c 0,0,1
EndSplineSet
EndChar
StartChar: asciitilde
Encoding: 126 126 95
Width: 636
VWidth: 1473
Flags: W
HStem: 158 228<140 459.5 140 140> 158 112<404.182 474.6>
VStem: 482 107<281.864 337.235>
Fore
589 323 m 0,0,1
 589 270 589 270 572 233 c 128,-1,2
 555 196 555 196 526.5 177 c 128,-1,3
 498 158 498 158 459.5 158 c 128,-1,4
 421 158 421 158 379 178 c 2,5,-1
 250 247 l 2,6,7
 243 252 243 252 227.5 259.5 c 128,-1,8
 212 267 212 267 196 269 c 128,-1,9
 180 271 180 271 167.5 263 c 128,-1,10
 155 255 155 255 153 228 c 0,11,12
 153 222 153 222 151 213.5 c 128,-1,13
 149 205 149 205 142.5 196 c 128,-1,14
 136 187 136 187 125.5 181 c 128,-1,15
 115 175 115 175 100 175 c 0,16,17
 81 175 81 175 70 182 c 128,-1,18
 59 189 59 189 53 197 c 128,-1,19
 47 205 47 205 45.5 213.5 c 128,-1,20
 44 222 44 222 44 227 c 0,21,22
 44 255 44 255 48.5 282 c 128,-1,23
 53 309 53 309 64 330.5 c 128,-1,24
 75 352 75 352 93.5 367 c 128,-1,25
 112 382 112 382 140 386 c 0,26,27
 165 390 165 390 194.5 382 c 128,-1,28
 224 374 224 374 240 365 c 2,29,-1
 374 296 l 2,30,31
 393 286 393 286 412.5 278 c 128,-1,32
 432 270 432 270 447.5 270 c 128,-1,33
 463 270 463 270 472.5 281.5 c 128,-1,34
 482 293 482 293 482 323 c 0,35,36
 482 329 482 329 482.5 337.5 c 128,-1,37
 483 346 483 346 487.5 355 c 128,-1,38
 492 364 492 364 502.5 370 c 128,-1,39
 513 376 513 376 533 376 c 0,40,41
 567 376 567 376 577.5 357.5 c 128,-1,42
 588 339 588 339 589 323 c 0,0,1
EndSplineSet
EndChar
StartChar: uni0E33.alt1
Encoding: 65539 -1 96
Width: 623
VWidth: 1473
Flags: W
HStem: 0 21G<493 515> 496 108<214.551 402.817> 698 84<-394.778 -284.163> 888 84<-384.746 -294.891>
VStem: -496 84<795.036 873.663> -268 84<795.082 874.754> 449 108<11.3464 43 43 450.385>
Fore
557 44 m 2,0,1
 557 22 557 22 541.5 11 c 128,-1,2
 526 0 526 0 504 0 c 256,3,4
 482 0 482 0 465.5 10.5 c 128,-1,5
 449 21 449 21 449 43 c 2,6,-1
 449 383 l 2,7,8
 449 432 449 432 416 464 c 128,-1,9
 383 496 383 496 308 496 c 0,10,11
 247 496 247 496 202.5 467.5 c 128,-1,12
 158 439 158 439 141 411 c 0,13,14
 130 392 130 392 108.5 391 c 128,-1,15
 87 390 87 390 68 402 c 0,16,17
 25 426 25 426 49 466 c 0,18,19
 82 523 82 523 153 563.5 c 128,-1,20
 224 604 224 604 308 604 c 0,21,22
 361 604 361 604 406.5 588 c 128,-1,23
 452 572 452 572 485.5 542.5 c 128,-1,24
 519 513 519 513 538 472.5 c 128,-1,25
 557 432 557 432 557 383 c 2,26,-1
 557 44 l 2,0,1
-184 835 m 0,27,28
 -184 773 -184 773 -229.5 735.5 c 128,-1,29
 -275 698 -275 698 -340 698 c 0,30,31
 -408 698 -408 698 -452 737 c 128,-1,32
 -496 776 -496 776 -496 835 c 0,33,34
 -496 863 -496 863 -483.5 888 c 128,-1,35
 -471 913 -471 913 -450 931.5 c 128,-1,36
 -429 950 -429 950 -401 961 c 128,-1,37
 -373 972 -373 972 -340 972 c 0,38,39
 -309 972 -309 972 -281 962.5 c 128,-1,40
 -253 953 -253 953 -232 934.5 c 128,-1,41
 -211 916 -211 916 -197.5 891 c 128,-1,42
 -184 866 -184 866 -184 835 c 0,27,28
-268 835 m 0,43,44
 -268 859 -268 859 -285 873.5 c 128,-1,45
 -302 888 -302 888 -340 888 c 0,46,47
 -377 888 -377 888 -394.5 872.5 c 128,-1,48
 -412 857 -412 857 -412 835 c 0,49,50
 -412 807 -412 807 -390 794.5 c 128,-1,51
 -368 782 -368 782 -340 782 c 0,52,53
 -311 782 -311 782 -289.5 794.5 c 128,-1,54
 -268 807 -268 807 -268 835 c 0,43,44
EndSplineSet
EndChar
StartChar: quotedbl
Encoding: 34 34 97
Width: 380
VWidth: 1473
Flags: W
HStem: 435 282<60.9257 138.468 234.895 313.983>
VStem: 47 109<453.565 697.405> 222 109<453.565 697.405>
Fore
331 499 m 2,0,1
 331 463 331 463 314.5 449 c 128,-1,2
 298 435 298 435 277 435 c 0,3,4
 247 435 247 435 234.5 453 c 128,-1,5
 222 471 222 471 222 499 c 2,6,-1
 222 653 l 2,7,8
 222 681 222 681 234.5 699 c 128,-1,9
 247 717 247 717 277 717 c 0,10,11
 305 717 305 717 318 698 c 128,-1,12
 331 679 331 679 331 653 c 2,13,-1
 331 499 l 2,0,1
156 499 m 2,14,15
 156 463 156 463 139 449 c 128,-1,16
 122 435 122 435 103 435 c 0,17,18
 74 435 74 435 60.5 453 c 128,-1,19
 47 471 47 471 47 499 c 2,20,-1
 47 653 l 2,21,22
 47 681 47 681 60.5 699 c 128,-1,23
 74 717 74 717 103 717 c 0,24,25
 130 717 130 717 143 698 c 128,-1,26
 156 679 156 679 156 653 c 2,27,-1
 156 499 l 2,14,15
EndSplineSet
EndChar
StartChar: exclam
Encoding: 33 33 98
Width: 307
VWidth: 1473
Flags: W
HStem: -7 132<110.535 203.374>
VStem: 93 131<11.0497 105.919> 102 110<579.733 707.871> 116 81<202.676 332.267>
Fore
197 224 m 2,0,1
 196 203 196 203 187 187.5 c 128,-1,2
 178 172 178 172 158 172 c 0,3,4
 133 172 133 172 125.5 189 c 128,-1,5
 118 206 118 206 116 224 c 2,6,-1
 102 688 l 2,7,8
 102 704 102 704 110.5 721 c 128,-1,9
 119 738 119 738 158 738 c 0,10,11
 194 738 194 738 203 721 c 128,-1,12
 212 704 212 704 212 688 c 2,13,-1
 197 224 l 2,0,1
224 57 m 0,14,15
 224 21 224 21 204 7 c 128,-1,16
 184 -7 184 -7 159 -7 c 0,17,18
 127 -7 127 -7 110 10.5 c 128,-1,19
 93 28 93 28 93 57 c 0,20,21
 93 88 93 88 110 106.5 c 128,-1,22
 127 125 127 125 159 125 c 0,23,24
 190 125 190 125 207 106.5 c 128,-1,25
 224 88 224 88 224 57 c 0,14,15
EndSplineSet
EndChar
StartChar: uni0E4E.alt1
Encoding: 65540 -1 99
Width: 0
VWidth: 1473
Flags: W
HStem: 671 356<-396 -373 -227 -189 -396 -189 -189 -189> 831 49<-285.307 -232.128>
VStem: -466 307.5<756 1002.5 718 756>
Fore
-189 1027 m 0,0,1
 -175 1024 -175 1024 -167 1016.5 c 128,-1,2
 -159 1009 -159 1009 -158.5 1002.5 c 128,-1,3
 -158 996 -158 996 -163.5 991.5 c 128,-1,4
 -169 987 -169 987 -184 987 c 1,5,6
 -224 993 -224 993 -258.5 972.5 c 128,-1,7
 -293 952 -293 952 -290 918 c 128,-1,8
 -287 884 -287 884 -246 880 c 0,9,10
 -231 877 -231 877 -228 865.5 c 128,-1,11
 -225 854 -225 854 -227 850 c 256,12,13
 -228 846 -228 846 -232 839 c 128,-1,14
 -236 832 -236 832 -253 831 c 0,15,16
 -370 829 -370 829 -373 765 c 1,17,18
 -365 725 -365 725 -319.5 725 c 128,-1,19
 -274 725 -274 725 -261 735 c 1,20,-1
 -273 681 l 1,21,22
 -337 653 -337 653 -396 671 c 128,-1,23
 -455 689 -455 689 -466 756 c 1,24,25
 -460 863 -460 863 -340 866 c 1,26,27
 -377 905 -377 905 -369 949.5 c 128,-1,28
 -361 994 -361 994 -312.5 1019 c 128,-1,29
 -264 1044 -264 1044 -189 1027 c 0,0,1
EndSplineSet
EndChar
StartChar: exclamdown
Encoding: 161 161 100
Width: 307
VWidth: 1473
Flags: W
HStem: 399 133<110.535 203.374>
VStem: 93 131<418.081 513.435> 102 110<-183.871 -55.5> 116 81<192.5 321.529>
Fore
212 -164 m 2,0,1
 212 -180 212 -180 203 -197 c 128,-1,2
 194 -214 194 -214 158 -214 c 0,3,4
 119 -214 119 -214 110.5 -197 c 128,-1,5
 102 -180 102 -180 102 -164 c 2,6,-1
 116 301 l 2,7,8
 118 318 118 318 125.5 335 c 128,-1,9
 133 352 133 352 158 352 c 0,10,11
 178 352 178 352 187 336.5 c 128,-1,12
 196 321 196 321 197 301 c 2,13,-1
 212 -164 l 2,0,1
224 467 m 0,14,15
 224 436 224 436 207 417.5 c 128,-1,16
 190 399 190 399 159 399 c 0,17,18
 127 399 127 399 110 417.5 c 128,-1,19
 93 436 93 436 93 467 c 0,20,21
 93 496 93 496 110 514 c 128,-1,22
 127 532 127 532 159 532 c 0,23,24
 184 532 184 532 204 518 c 128,-1,25
 224 504 224 504 224 467 c 0,14,15
EndSplineSet
EndChar
StartChar: cent
Encoding: 162 162 101
Width: 636
VWidth: 1473
Flags: W
HStem: 67.5 112.5<315.18 421.342> 511.5 106<264.5 296.5 296.5 342.466>
VStem: 62 106<252.115 434.799>
Fore
552 242 m 0,0,1
 572 230 572 230 576 208.5 c 128,-1,2
 580 187 580 187 569 168 c 0,3,4
 555 144 555 144 526.5 123 c 128,-1,5
 498 102 498 102 460.5 87 c 128,-1,6
 423 72 423 72 378 67.5 c 128,-1,7
 333 63 333 63 286 75 c 1,8,-1
 253 -31 l 2,9,10
 250 -43 250 -43 238.5 -49 c 128,-1,11
 227 -55 227 -55 215 -50 c 0,12,13
 203 -47 203 -47 196.5 -37.5 c 128,-1,14
 190 -28 190 -28 193 -18 c 2,15,-1
 227 91 l 1,16,17
 62 153 62 153 62 342 c 0,18,19
 62 421 62 421 90.5 478 c 128,-1,20
 119 535 119 535 164 569.5 c 128,-1,21
 209 604 209 604 264.5 617.5 c 128,-1,22
 320 631 320 631 373 622 c 1,23,-1
 402 722 l 2,24,25
 405 732 405 732 416 737 c 128,-1,26
 427 742 427 742 439 740 c 0,27,28
 467 732 467 732 460 709 c 2,29,-1
 435 614 l 1,30,31
 483 603 483 603 517.5 578.5 c 128,-1,32
 552 554 552 554 569 523 c 0,33,34
 580 505 580 505 576 484 c 128,-1,35
 572 463 572 463 552 451 c 128,-1,36
 532 439 532 439 510 443.5 c 128,-1,37
 488 448 488 448 476 467 c 0,38,39
 470 476 470 476 452.5 487.5 c 128,-1,40
 435 499 435 499 405 507 c 1,41,-1
 314 183 l 1,42,43
 345 177 345 177 373 180 c 128,-1,44
 401 183 401 183 422 190 c 128,-1,45
 443 197 443 197 457 207 c 128,-1,46
 471 217 471 217 476 224 c 0,47,48
 488 245 488 245 510 250.5 c 128,-1,49
 532 256 532 256 552 242 c 0,0,1
168 342 m 0,50,51
 168 290 168 290 188.5 252.5 c 128,-1,52
 209 215 209 215 255 196 c 1,53,-1
 343 513 l 1,54,55
 326 516 326 516 296.5 511.5 c 128,-1,56
 267 507 267 507 238 488.5 c 128,-1,57
 209 470 209 470 188.5 434.5 c 128,-1,58
 168 399 168 399 168 342 c 0,50,51
EndSplineSet
EndChar
StartChar: sterling
Encoding: 163 163 102
Width: 586
VWidth: 1473
Flags: W
HStem: -2 102<369.672 434.406> 28.5 91.5<165.91 185.5 213.5 252.743> 330 57<69 130 249 327>
VStem: 156 96<221 264.859>
Fore
49 387 m 1,0,-1
 130 387 l 1,1,2
 127 395 127 395 115 411 c 128,-1,3
 103 427 103 427 91.5 449 c 128,-1,4
 80 471 80 471 71 498.5 c 128,-1,5
 62 526 62 526 65 557 c 0,6,7
 71 620 71 620 115 663 c 128,-1,8
 159 706 159 706 220 723.5 c 128,-1,9
 281 741 281 741 346.5 730.5 c 128,-1,10
 412 720 412 720 460 676 c 0,11,12
 491 647 491 647 513 599 c 128,-1,13
 535 551 535 551 536 496 c 1,14,-1
 432 496 l 1,15,16
 430 516 430 516 421 543 c 128,-1,17
 412 570 412 570 394.5 593.5 c 128,-1,18
 377 617 377 617 348.5 632 c 128,-1,19
 320 647 320 647 278 644 c 0,20,21
 249 641 249 641 224 627.5 c 128,-1,22
 199 614 199 614 185 592 c 128,-1,23
 171 570 171 570 169.5 540.5 c 128,-1,24
 168 511 168 511 186 477 c 0,25,26
 196 460 196 460 210.5 436 c 128,-1,27
 225 412 225 412 234 387 c 1,28,-1
 327 387 l 1,29,-1
 348 330 l 1,30,-1
 249 330 l 1,31,32
 259 298 259 298 259 271.5 c 128,-1,33
 259 245 259 245 252 224 c 0,34,35
 245 200 245 200 233.5 182 c 128,-1,36
 222 164 222 164 209.5 149 c 128,-1,37
 197 134 197 134 185.5 123 c 128,-1,38
 174 112 174 112 165 103 c 1,39,40
 194 115 194 115 237 120 c 128,-1,41
 280 125 280 125 334 113 c 0,42,43
 349 109 349 109 365.5 104.5 c 128,-1,44
 382 100 382 100 401.5 100 c 128,-1,45
 421 100 421 100 447 106 c 128,-1,46
 473 112 473 112 508 130 c 1,47,-1
 550 41 l 1,48,49
 536 35 536 35 517 25.5 c 128,-1,50
 498 16 498 16 471.5 8 c 128,-1,51
 445 0 445 0 412 -2 c 128,-1,52
 379 -4 379 -4 339 6 c 0,53,54
 301 16 301 16 270.5 22 c 128,-1,55
 240 28 240 28 213.5 28.5 c 128,-1,56
 187 29 187 29 160.5 22 c 128,-1,57
 134 15 134 15 103 -1 c 1,58,-1
 50 97 l 1,59,60
 66 112 66 112 86 126.5 c 128,-1,61
 106 141 106 141 128 171 c 0,62,63
 147 197 147 197 156 221 c 128,-1,64
 165 245 165 245 167 265.5 c 128,-1,65
 169 286 169 286 166.5 302 c 128,-1,66
 164 318 164 318 159 330 c 1,67,-1
 69 330 l 1,68,-1
 49 387 l 1,0,-1
EndSplineSet
EndChar
StartChar: currency
Encoding: 164 164 103
Width: 715
VWidth: 1473
Flags: W
HStem: 85 95<279.142 421> 488 97<294.13 422.796>
VStem: 108 98<268.027 415.521> 514 99<255.961 415.089>
Fore
613 337 m 0,0,1
 613 295 613 295 599 259.5 c 128,-1,2
 585 224 585 224 563 194 c 1,3,-1
 597 161 l 2,4,5
 613 144 613 144 611.5 128 c 128,-1,6
 610 112 610 112 600 100 c 0,7,8
 588 88 588 88 567.5 85 c 128,-1,9
 547 82 547 82 530 99 c 2,10,-1
 495 133 l 1,11,12
 460 106 460 106 429 95.5 c 128,-1,13
 398 85 398 85 358 85 c 0,14,15
 311 85 311 85 280 97 c 128,-1,16
 249 109 249 109 218 134 c 1,17,-1
 183 99 l 2,18,19
 166 82 166 82 148.5 85 c 128,-1,20
 131 88 131 88 119 100 c 0,21,22
 109 112 109 112 104 130.5 c 128,-1,23
 99 149 99 149 113 165 c 2,24,-1
 149 202 l 1,25,26
 127 233 127 233 117.5 260 c 128,-1,27
 108 287 108 287 108 331 c 0,28,29
 108 386 108 386 122.5 419 c 128,-1,30
 137 452 137 452 153 477 c 1,31,-1
 113 517 l 2,32,33
 97 532 97 532 102.5 550.5 c 128,-1,34
 108 569 108 569 118 580 c 0,35,36
 130 591 130 591 149 597 c 128,-1,37
 168 603 168 603 184 588 c 2,38,-1
 224 545 l 1,39,40
 256 569 256 569 287 577 c 128,-1,41
 318 585 318 585 358 585 c 0,42,43
 405 585 405 585 434.5 574.5 c 128,-1,44
 464 564 464 564 494 542 c 1,45,-1
 532 582 l 2,46,47
 547 597 547 597 568 593 c 128,-1,48
 589 589 589 589 600 579 c 0,49,50
 611 567 611 567 615 547 c 128,-1,51
 619 527 619 527 603 513 c 2,52,-1
 566 476 l 1,53,54
 582 452 582 452 597.5 421 c 128,-1,55
 613 390 613 390 613 337 c 0,0,1
206 333 m 256,56,57
 206 267 206 267 249.5 223.5 c 128,-1,58
 293 180 293 180 359 180 c 256,59,60
 426 180 426 180 470 223.5 c 128,-1,61
 514 267 514 267 514 333 c 256,62,63
 514 399 514 399 470 443.5 c 128,-1,64
 426 488 426 488 359 488 c 256,65,66
 293 488 293 488 249.5 443.5 c 128,-1,67
 206 399 206 399 206 333 c 256,56,57
EndSplineSet
EndChar
StartChar: yen
Encoding: 165 165 104
Width: 562
VWidth: 1473
Flags: W
HStem: -4 21G<271 295.5> 156 68<71 222 343 492> 275 70<71 220 346 492>
VStem: 222 121<13.0175 156 224 275>
Fore
519 716 m 0,0,1
 541 700 541 700 546 675.5 c 128,-1,2
 551 651 551 651 536 631 c 2,3,-1
 346 345 l 1,4,-1
 492 345 l 1,5,-1
 492 275 l 1,6,-1
 343 275 l 1,7,-1
 343 224 l 1,8,-1
 492 224 l 1,9,-1
 492 156 l 1,10,-1
 343 156 l 1,11,-1
 343 53 l 2,12,13
 343 28 343 28 325.5 12 c 128,-1,14
 308 -4 308 -4 283 -4 c 0,15,16
 259 -4 259 -4 240.5 12.5 c 128,-1,17
 222 29 222 29 222 53 c 2,18,-1
 222 156 l 1,19,-1
 71 156 l 1,20,-1
 71 224 l 1,21,-1
 222 224 l 1,22,-1
 222 275 l 1,23,-1
 71 275 l 1,24,-1
 71 345 l 1,25,-1
 220 345 l 1,26,-1
 31 632 l 2,27,28
 19 654 19 654 24 677.5 c 128,-1,29
 29 701 29 701 50 716 c 0,30,31
 72 728 72 728 97 721.5 c 128,-1,32
 122 715 122 715 134 691 c 2,33,34
 150 663.5 l 2,35,36
 166 636 166 636 190 598.5 c 128,-1,37
 214 561 214 561 240.5 520.5 c 128,-1,38
 267 480 267 480 284 452 c 1,39,-1
 436 692 l 2,40,41
 448 716 448 716 473 722 c 128,-1,42
 498 728 498 728 519 716 c 0,0,1
EndSplineSet
EndChar
StartChar: brokenbar
Encoding: 166 166 105
Width: 241
VWidth: 1473
Flags: W
VStem: 80 79<-198.563 162.689 377.437 737.023 411 703 -165 -165>
Fore
119 765 m 0,0,1
 143 765 143 765 151 750 c 128,-1,2
 159 735 159 735 159 703 c 2,3,-1
 159 411 l 2,4,5
 159 380 159 380 151 364 c 128,-1,6
 143 348 143 348 119 348 c 0,7,8
 97 348 97 348 88.5 364 c 128,-1,9
 80 380 80 380 80 411 c 2,10,-1
 80 703 l 2,11,12
 80 735 80 735 88.5 750 c 128,-1,13
 97 765 97 765 119 765 c 0,0,1
119 190 m 0,14,15
 143 190 143 190 151 175.5 c 128,-1,16
 159 161 159 161 159 128 c 2,17,-1
 159 -165 l 2,18,19
 159 -196 159 -196 151 -212 c 128,-1,20
 143 -228 143 -228 119 -228 c 0,21,22
 97 -228 97 -228 88.5 -212 c 128,-1,23
 80 -196 80 -196 80 -165 c 2,24,-1
 80 128 l 2,25,26
 80 161 80 161 88.5 175.5 c 128,-1,27
 97 190 97 190 119 190 c 0,14,15
EndSplineSet
EndChar
StartChar: section
Encoding: 167 167 106
Width: 695
VWidth: 1473
Flags: W
HStem: 529 21G<497.5 521.5> 691 100<304.084 403.953>
VStem: 95.5 105<352.191 418.922> 136 111<23.5599 89.3307> 146.5 122.5<555.626 630.731> 441 113.5<0.568848 27 27 69.3743> 457 109<560.539 616.547>
Fore
588 193 m 0,0,1
 573 169 573 169 553 151 c 128,-1,2
 533 133 533 133 519 130 c 1,3,4
 555 82 555 82 554.5 32 c 128,-1,5
 554 -18 554 -18 526 -59 c 128,-1,6
 498 -100 498 -100 450 -126 c 128,-1,7
 402 -152 402 -152 346 -149 c 0,8,9
 243 -143 243 -143 189.5 -92 c 128,-1,10
 136 -41 136 -41 136 62 c 0,11,12
 136 88 136 88 152 103.5 c 128,-1,13
 168 119 168 119 193 119 c 256,14,15
 218 119 218 119 234 103.5 c 128,-1,16
 250 88 250 88 247 59 c 0,17,18
 246 24 246 24 260 -1.5 c 128,-1,19
 274 -27 274 -27 296 -40 c 128,-1,20
 318 -53 318 -53 344.5 -55 c 128,-1,21
 371 -57 371 -57 395 -47 c 256,22,23
 418 -37 418 -37 430 -16.5 c 128,-1,24
 442 4 442 4 441 27 c 128,-1,25
 440 50 440 50 429 70 c 128,-1,26
 418 90 418 90 399 99 c 2,27,-1
 290 161 l 2,28,29
 249 184 249 184 214.5 203 c 128,-1,30
 180 222 180 222 178 224 c 2,31,32
 140 242 140 242 118.5 281 c 128,-1,33
 97 320 97 320 95.5 364 c 128,-1,34
 94 408 94 408 113.5 451.5 c 128,-1,35
 133 495 133 495 177 523 c 1,36,37
 147 561 147 561 146.5 610.5 c 128,-1,38
 146 660 146 660 171 701 c 256,39,40
 196 742 196 742 244.5 766.5 c 128,-1,41
 293 791 293 791 352 791 c 0,42,43
 396 791 396 791 435 775.5 c 128,-1,44
 474 760 474 760 503 733 c 128,-1,45
 532 706 532 706 549 668.5 c 128,-1,46
 566 631 566 631 566 586 c 0,47,48
 566 561 566 561 549.5 545 c 128,-1,49
 533 529 533 529 510 529 c 0,50,51
 485 529 485 529 469.5 546.5 c 128,-1,52
 454 564 454 564 457 588 c 0,53,54
 457 603 457 603 452.5 621 c 128,-1,55
 448 639 448 639 436 654.5 c 128,-1,56
 424 670 424 670 405 680.5 c 128,-1,57
 386 691 386 691 357 691 c 0,58,59
 330 691 330 691 308.5 677 c 128,-1,60
 287 663 287 663 277 642.5 c 128,-1,61
 267 622 267 622 269 598.5 c 128,-1,62
 271 575 271 575 289 555 c 0,63,64
 301 544 301 544 335.5 524 c 128,-1,65
 370 504 370 504 409.5 482 c 128,-1,66
 449 460 449 460 486.5 439 c 128,-1,67
 524 418 524 418 544 405 c 0,68,69
 569 387 569 387 585 362 c 128,-1,70
 601 337 601 337 607 309 c 128,-1,71
 613 281 613 281 608.5 251 c 128,-1,72
 604 221 604 221 588 193 c 0,0,1
448 202 m 1,73,74
 464 206 464 206 477.5 221.5 c 128,-1,75
 491 237 491 237 496 257 c 128,-1,76
 501 277 501 277 494.5 297 c 128,-1,77
 488 317 488 317 464 329 c 2,78,79
 438 343.5 l 2,80,81
 412 358 412 358 377 378 c 128,-1,82
 342 398 342 398 306 417 c 128,-1,83
 270 436 270 436 249 446 c 1,84,85
 224 438 224 438 213 419.5 c 128,-1,86
 202 401 202 401 200.5 381 c 128,-1,87
 199 361 199 361 207 345 c 128,-1,88
 215 329 215 329 227 323 c 2,89,-1
 254 307.5 l 2,90,91
 281 292 281 292 299.5 282 c 0,92,-1
 373.5 242 l 0,93,94
 429 212 429 212 448 202 c 1,73,74
EndSplineSet
EndChar
StartChar: dieresis
Encoding: 168 168 107
Width: 402
VWidth: 1473
Flags: W
HStem: 575 138<43.1437 143.373 260.143 359.373>
VStem: 22 142<595.111 691.857> 239 141<595.111 691.857>
Fore
96 575 m 0,0,1
 63 575 63 575 42.5 594.5 c 128,-1,2
 22 614 22 614 22 642 c 0,3,4
 22 672 22 672 42.5 692.5 c 128,-1,5
 63 713 63 713 96 713 c 0,6,7
 124 713 124 713 144 692.5 c 128,-1,8
 164 672 164 672 164 642 c 0,9,10
 164 614 164 614 144 594.5 c 128,-1,11
 124 575 124 575 96 575 c 0,0,1
312 575 m 0,12,13
 280 575 280 575 259.5 594.5 c 128,-1,14
 239 614 239 614 239 642 c 0,15,16
 239 672 239 672 259.5 692.5 c 128,-1,17
 280 713 280 713 312 713 c 0,18,19
 340 713 340 713 360 692.5 c 128,-1,20
 380 672 380 672 380 642 c 0,21,22
 380 614 380 614 360 594.5 c 128,-1,23
 340 575 340 575 312 575 c 0,12,13
EndSplineSet
EndChar
StartChar: copyright
Encoding: 169 169 108
Width: 847
VWidth: 1473
Flags: W
HStem: -21 73<307.336 536.575> 513 67<354.354 509.375> 666 68<309.331 534.595>
VStem: 43 73<245.056 472.374> 211 72<279.261 441.483> 729 69<245.056 472.374>
Fore
423 734 m 0,0,1
 501 734 501 734 569.5 704.5 c 128,-1,2
 638 675 638 675 689 624 c 128,-1,3
 740 573 740 573 769 504.5 c 128,-1,4
 798 436 798 436 798 359 c 0,5,6
 798 280 798 280 769 210.5 c 128,-1,7
 740 141 740 141 689 89.5 c 128,-1,8
 638 38 638 38 569.5 8.5 c 128,-1,9
 501 -21 501 -21 423 -21 c 0,10,11
 343 -21 343 -21 274 8.5 c 128,-1,12
 205 38 205 38 153.5 89.5 c 128,-1,13
 102 141 102 141 72.5 210.5 c 128,-1,14
 43 280 43 280 43 359 c 0,15,16
 43 436 43 436 72.5 504.5 c 128,-1,17
 102 573 102 573 153.5 624 c 128,-1,18
 205 675 205 675 274 704.5 c 128,-1,19
 343 734 343 734 423 734 c 0,0,1
423 52 m 0,20,21
 486 52 486 52 541.5 75.5 c 128,-1,22
 597 99 597 99 639 141 c 128,-1,23
 681 183 681 183 705 239 c 128,-1,24
 729 295 729 295 729 359 c 128,-1,25
 729 423 729 423 705 478 c 128,-1,26
 681 533 681 533 639 575 c 128,-1,27
 597 617 597 617 541.5 641.5 c 128,-1,28
 486 666 486 666 423 666 c 0,29,30
 358 666 358 666 302.5 641.5 c 128,-1,31
 247 617 247 617 205.5 575 c 128,-1,32
 164 533 164 533 140 478 c 128,-1,33
 116 423 116 423 116 359 c 128,-1,34
 116 295 116 295 140 239 c 128,-1,35
 164 183 164 183 205.5 141 c 128,-1,36
 247 99 247 99 302.5 75.5 c 128,-1,37
 358 52 358 52 423 52 c 0,20,21
594 514 m 0,38,39
 563 547 563 547 521 563.5 c 128,-1,40
 479 580 479 580 436 580 c 0,41,42
 392 580 392 580 350.5 564 c 128,-1,43
 309 548 309 548 278 518.5 c 128,-1,44
 247 489 247 489 229 447 c 128,-1,45
 211 405 211 405 211 355 c 0,46,47
 211 306 211 306 226.5 268.5 c 128,-1,48
 242 231 242 231 266 203 c 128,-1,49
 290 175 290 175 318 157.5 c 128,-1,50
 346 140 346 140 373 134 c 0,51,52
 423 118 423 118 482 129 c 128,-1,53
 541 140 541 140 592 192 c 0,54,55
 598 197 598 197 601.5 212 c 128,-1,56
 605 227 605 227 592 242 c 0,57,58
 580 253 580 253 565.5 251 c 128,-1,59
 551 249 551 249 544 240 c 0,60,61
 519 217 519 217 478.5 201.5 c 128,-1,62
 438 186 438 186 390 203 c 0,63,64
 377 208 377 208 358 216.5 c 128,-1,65
 339 225 339 225 322.5 243 c 128,-1,66
 306 261 306 261 294.5 288 c 128,-1,67
 283 315 283 315 283 355 c 0,68,69
 283 426 283 426 326.5 469.5 c 128,-1,70
 370 513 370 513 436 513 c 0,71,72
 496 513 496 513 544 463 c 0,73,74
 554 451 554 451 568 451 c 128,-1,75
 582 451 582 451 592 461 c 256,76,77
 603 471 603 471 603.5 487.5 c 128,-1,78
 604 504 604 504 594 514 c 0,38,39
EndSplineSet
EndChar
StartChar: ordfeminine
Encoding: 170 170 109
Width: 431
VWidth: 1473
Flags: W
HStem: 271 59<126.399 258.535> 271 354<197 343> 454 62<128.487 260.748> 558 67<156.474 293.778>
VStem: 35 65<351.215 431.406> 35 344<330 443> 312 67<283.438 302 353.507 432.281>
Fore
379 464 m 2,0,-1
 379 305 l 2,1,2
 379 289 379 289 368.5 280 c 128,-1,3
 358 271 358 271 343 271 c 0,4,5
 331 271 331 271 321.5 279 c 128,-1,6
 312 287 312 287 314 302 c 1,7,8
 293 289 293 289 263 280 c 128,-1,9
 233 271 233 271 200 271 c 0,10,11
 122 271 122 271 78.5 300.5 c 128,-1,12
 35 330 35 330 35 392 c 0,13,14
 35 443 35 443 81 479.5 c 128,-1,15
 127 516 127 516 206 516 c 0,16,17
 242 516 242 516 273.5 505.5 c 128,-1,18
 305 495 305 495 315 480 c 1,19,20
 317 517 317 517 293.5 537.5 c 128,-1,21
 270 558 270 558 200 558 c 0,22,23
 171 558 171 558 146.5 551.5 c 128,-1,24
 122 545 122 545 102 533 c 256,25,26
 81 522 81 522 70.5 528.5 c 128,-1,27
 60 535 60 535 57 538 c 0,28,29
 47 550 47 550 50 566 c 128,-1,30
 53 582 53 582 69 591 c 0,31,32
 96 608 96 608 128.5 616.5 c 128,-1,33
 161 625 161 625 197 625 c 0,34,35
 283 625 283 625 334 587.5 c 128,-1,36
 385 550 385 550 379 464 c 2,0,-1
200 330 m 0,37,38
 246 330 246 330 279 345.5 c 128,-1,39
 312 361 312 361 312 390 c 0,40,41
 312 427 312 427 277.5 440.5 c 128,-1,42
 243 454 243 454 203 454 c 0,43,44
 166 454 166 454 134 439 c 128,-1,45
 102 424 102 424 100 395 c 0,46,47
 100 361 100 361 130.5 345.5 c 128,-1,48
 161 330 161 330 200 330 c 0,37,38
EndSplineSet
EndChar
StartChar: guillemotleft
Encoding: 171 171 110
Width: 578
VWidth: 1473
Flags: W
HStem: 39.5 456.5<197.5 215 215 218 197.5 197.5 197.5 197.5>
VStem: 46 450<274 456.5 291.5 294.5>
Fore
158 268 m 1,0,1
 166 252 166 252 174.5 239.5 c 0,2,-1
 215 177 l 0,3,4
 233 149 233 149 253 118 c 0,5,6
 264 102 264 102 259.5 79 c 128,-1,7
 255 56 255 56 237 47 c 0,8,9
 220 35 220 35 197.5 39.5 c 128,-1,10
 175 44 175 44 166 65 c 1,11,12
 158 78 l 2,13,14
 150 91 150 91 137.5 112 c 128,-1,15
 125 133 125 133 110.5 156.5 c 128,-1,16
 96 180 96 180 83.5 200 c 128,-1,17
 71 220 71 220 63 233 c 128,-1,18
 55 246 55 246 53 247 c 0,19,20
 43 264 43 264 46 274 c 128,-1,21
 49 284 49 284 56 296 c 2,22,-1
 166 473 l 2,23,24
 177 491 177 491 197.5 496 c 128,-1,25
 218 501 218 501 237 489 c 0,26,27
 255 477 255 477 260 456.5 c 128,-1,28
 265 436 265 436 253 418 c 0,29,30
 233 387 233 387 215 359 c 0,31,-1
 190.5 321.5 l 0,32,33
 166 284 166 284 158 268 c 1,0,1
393 268 m 1,34,35
 402 252 402 252 410 239.5 c 0,36,-1
 451 177 l 0,37,38
 468 149 468 149 489 118 c 0,39,40
 499 102 499 102 495 79 c 128,-1,41
 491 56 491 56 473 47 c 0,42,43
 455 35 455 35 433 39.5 c 128,-1,44
 411 44 411 44 402 65 c 1,45,-1
 394 78 l 2,46,47
 386 91 386 91 373.5 112 c 128,-1,48
 361 133 361 133 346 156.5 c 128,-1,49
 331 180 331 180 318.5 200 c 128,-1,50
 306 220 306 220 298 233 c 128,-1,51
 290 246 290 246 289 247 c 0,52,53
 278 264 278 264 281 274 c 128,-1,54
 284 284 284 284 292 296 c 2,55,-1
 402 473 l 2,56,57
 412 491 412 491 433 496 c 128,-1,58
 454 501 454 501 473 489 c 0,59,60
 491 477 491 477 496 456.5 c 128,-1,61
 501 436 501 436 489 418 c 0,62,63
 468 387 468 387 451 359 c 0,64,-1
 426.5 321.5 l 0,65,66
 402 284 402 284 393 268 c 1,34,35
EndSplineSet
EndChar
StartChar: logicalnot
Encoding: 172 172 111
Width: 855
VWidth: 1473
Flags: W
HStem: 327 109<55.0172 659>
VStem: 659 113<99.017 327>
Fore
772 436 m 1,0,-1
 772 137 l 2,1,2
 772 115 772 115 756 98.5 c 128,-1,3
 740 82 740 82 717 82 c 128,-1,4
 694 82 694 82 676.5 97.5 c 128,-1,5
 659 113 659 113 659 137 c 2,6,-1
 659 327 l 1,7,-1
 94 327 l 2,8,9
 71 327 71 327 54.5 343 c 128,-1,10
 38 359 38 359 38 383 c 0,11,12
 38 408 38 408 53.5 422 c 128,-1,13
 69 436 69 436 94 436 c 2,14,-1
 772 436 l 1,0,-1
EndSplineSet
EndChar
StartChar: registered
Encoding: 174 174 112
Width: 782
VWidth: 1473
Flags: W
HStem: -19 71<275.553 504.301> 524 65<352.901 442.83> 666 72<275.553 505.405>
VStem: 12 70<246.547 471.781> 208 63<164.813 490.06> 697 72<244.553 473.773>
Fore
769 359 m 256,0,1
 769 281 769 281 739 212 c 128,-1,2
 709 143 709 143 657 91.5 c 128,-1,3
 605 40 605 40 536.5 10.5 c 128,-1,4
 468 -19 468 -19 390 -19 c 256,5,6
 312 -19 312 -19 243 10.5 c 128,-1,7
 174 40 174 40 122.5 91.5 c 128,-1,8
 71 143 71 143 41.5 212 c 128,-1,9
 12 281 12 281 12 359 c 256,10,11
 12 438 12 438 41.5 506.5 c 128,-1,12
 71 575 71 575 122.5 626.5 c 128,-1,13
 174 678 174 678 243 708 c 128,-1,14
 312 738 312 738 390 738 c 256,15,16
 468 738 468 738 536.5 708 c 128,-1,17
 605 678 605 678 657 626.5 c 128,-1,18
 709 575 709 575 739 506.5 c 128,-1,19
 769 438 769 438 769 359 c 256,0,1
697 359 m 128,-1,21
 697 423 697 423 673.5 479 c 128,-1,22
 650 535 650 535 608 577 c 128,-1,23
 566 619 566 619 510 642.5 c 128,-1,24
 454 666 454 666 390 666 c 128,-1,25
 326 666 326 666 270 642.5 c 128,-1,26
 214 619 214 619 172.5 577 c 128,-1,27
 131 535 131 535 106.5 479 c 128,-1,28
 82 423 82 423 82 359 c 128,-1,29
 82 295 82 295 106.5 239 c 128,-1,30
 131 183 131 183 172.5 141.5 c 128,-1,31
 214 100 214 100 270 76 c 128,-1,32
 326 52 326 52 390 52 c 128,-1,33
 454 52 454 52 510 76 c 128,-1,34
 566 100 566 100 608 141.5 c 128,-1,35
 650 183 650 183 673.5 239 c 128,-1,20
 697 295 697 295 697 359 c 128,-1,21
329 329 m 1,36,37
 312 336 312 336 304 346.5 c 128,-1,38
 296 357 296 357 303 373 c 0,39,40
 311 387 311 387 327 388.5 c 128,-1,41
 343 390 343 390 355 385 c 0,42,43
 374 376 374 376 401.5 370.5 c 128,-1,44
 429 365 429 365 454.5 368 c 128,-1,45
 480 371 480 371 500 385 c 128,-1,46
 520 399 520 399 523 429 c 0,47,48
 527 466 527 466 497 496 c 128,-1,49
 467 526 467 526 398 524 c 0,50,51
 333 522 333 522 302 499 c 128,-1,52
 271 476 271 476 271 418 c 2,53,-1
 271 186 l 2,54,55
 271 169 271 169 265 157.5 c 128,-1,56
 259 146 259 146 242 146 c 0,57,58
 222 146 222 146 215 157.5 c 128,-1,59
 208 169 208 169 208 186 c 2,60,-1
 208 445 l 2,61,62
 208 482 208 482 224 509 c 128,-1,63
 240 536 240 536 267.5 554 c 128,-1,64
 295 572 295 572 328.5 580.5 c 128,-1,65
 362 589 362 589 398 589 c 0,66,67
 429 589 429 589 462.5 582 c 128,-1,68
 496 575 496 575 524 558 c 128,-1,69
 552 541 552 541 570.5 513 c 128,-1,70
 589 485 589 485 589 442 c 0,71,72
 589 408 589 408 578 383 c 128,-1,73
 567 358 567 358 548 342 c 128,-1,74
 529 326 529 326 505.5 318.5 c 128,-1,75
 482 311 482 311 458 311 c 1,76,77
 488 292 488 292 516.5 260 c 128,-1,78
 545 228 545 228 566 190 c 0,79,80
 573 178 573 178 573 165 c 128,-1,81
 573 152 573 152 554 144 c 0,82,83
 547 141 547 141 539 141 c 256,84,85
 532 141 532 141 524.5 145.5 c 128,-1,86
 517 150 517 150 510 165 c 0,87,88
 492 192 492 192 468.5 217 c 128,-1,89
 445 242 445 242 419 262.5 c 128,-1,90
 393 283 393 283 369.5 300 c 128,-1,91
 346 317 346 317 329 329 c 1,36,37
EndSplineSet
EndChar
StartChar: macron
Encoding: 175 175 113
Width: 483
VWidth: 1473
Flags: W
HStem: 622 101<67.5742 426.014>
VStem: 37 405<636.955 707.015>
Fore
88 622 m 1,0,1
 69 620 69 620 53 635.5 c 128,-1,2
 37 651 37 651 37 672 c 256,3,4
 37 692 37 692 52.5 707.5 c 128,-1,5
 68 723 68 723 88 723 c 2,6,-1
 390 723 l 2,7,8
 411 723 411 723 426.5 708.5 c 128,-1,9
 442 694 442 694 442 672 c 0,10,11
 442 651 442 651 426.5 636.5 c 128,-1,12
 411 622 411 622 390 622 c 2,13,-1
 88 622 l 1,0,1
EndSplineSet
EndChar
StartChar: degree
Encoding: 176 176 114
Width: 318
VWidth: 1473
Flags: W
HStem: 466 63<109.968 205.423> 661 64<109.968 205.423>
VStem: 28 63<547.577 642.79> 224 63<547.577 642.79>
Fore
28 595 m 256,0,1
 28 650 28 650 65.5 687.5 c 128,-1,2
 103 725 103 725 158 725 c 256,3,4
 212 725 212 725 249.5 687.5 c 128,-1,5
 287 650 287 650 287 595 c 256,6,7
 287 541 287 541 249.5 503.5 c 128,-1,8
 212 466 212 466 158 466 c 256,9,10
 103 466 103 466 65.5 503.5 c 128,-1,11
 28 541 28 541 28 595 c 256,0,1
91 595 m 256,12,13
 91 567 91 567 110.5 548 c 128,-1,14
 130 529 130 529 158 529 c 256,15,16
 186 529 186 529 205 548 c 128,-1,17
 224 567 224 567 224 595 c 256,18,19
 224 623 224 623 205 642 c 128,-1,20
 186 661 186 661 158 661 c 256,21,22
 130 661 130 661 110.5 642 c 128,-1,23
 91 623 91 623 91 595 c 256,12,13
EndSplineSet
EndChar
StartChar: plusminus
Encoding: 177 177 115
Width: 632
VWidth: 1473
Flags: W
HStem: 0 109<77.111 547.404> 299 109<75.5959 259 370 553.404>
VStem: 259 111<167.111 299 408 542.889>
Fore
573 355 m 0,0,1
 573 334 573 334 558.5 316.5 c 128,-1,2
 544 299 544 299 507 299 c 2,3,-1
 370 299 l 1,4,-1
 370 214 l 2,5,6
 370 177 370 177 353 162 c 128,-1,7
 336 147 336 147 315 147 c 0,8,9
 286 147 286 147 272.5 166.5 c 128,-1,10
 259 186 259 186 259 214 c 2,11,-1
 259 299 l 1,12,-1
 122 299 l 2,13,14
 94 299 94 299 75 312.5 c 128,-1,15
 56 326 56 326 56 355 c 0,16,17
 56 383 56 383 75 395.5 c 128,-1,18
 94 408 94 408 122 408 c 2,19,-1
 259 408 l 1,20,-1
 259 498 l 2,21,22
 259 526 259 526 272.5 544.5 c 128,-1,23
 286 563 286 563 315 563 c 0,24,25
 342 563 342 563 356 543.5 c 128,-1,26
 370 524 370 524 370 498 c 2,27,-1
 370 408 l 1,28,-1
 507 408 l 2,29,30
 535 408 535 408 554 395.5 c 128,-1,31
 573 383 573 383 573 355 c 0,0,1
567 56 m 0,32,33
 567 35 567 35 553 17.5 c 128,-1,34
 539 0 539 0 502 0 c 2,35,-1
 122 0 l 2,36,37
 94 0 94 0 75.5 13.5 c 128,-1,38
 57 27 57 27 57 56 c 0,39,40
 57 84 57 84 76.5 96.5 c 128,-1,41
 96 109 96 109 122 109 c 2,42,-1
 502 109 l 2,43,44
 529 109 529 109 548 96.5 c 128,-1,45
 567 84 567 84 567 56 c 0,32,33
EndSplineSet
EndChar
StartChar: twosuperior
Encoding: 178 178 116
Width: 455
VWidth: 1473
Flags: W
HStem: 280 84<217 385.624> 631 84<172.586 271.827>
VStem: 65 82<547.277 616.552>
Fore
386 352 m 1,0,1
 398 340 398 340 398 321 c 0,2,3
 398 305 398 305 386 292.5 c 128,-1,4
 374 280 374 280 358 280 c 2,5,-1
 103 280 l 2,6,7
 87 280 87 280 76.5 289 c 128,-1,8
 66 298 66 298 61.5 310.5 c 128,-1,9
 57 323 57 323 60 337 c 128,-1,10
 63 351 63 351 74 359 c 2,11,-1
 100 380 l 2,12,13
 121 396 121 396 161.5 429.5 c 128,-1,14
 202 463 202 463 280 526 c 0,15,16
 302 541 302 541 305.5 559 c 128,-1,17
 309 577 309 577 300.5 592.5 c 128,-1,18
 292 608 292 608 274 619.5 c 128,-1,19
 256 631 256 631 236 631 c 0,20,21
 193 631 193 631 171.5 608.5 c 128,-1,22
 150 586 150 586 147 557 c 0,23,24
 146 541 146 541 132.5 529 c 128,-1,25
 119 517 119 517 102 519 c 0,26,27
 85 522 85 522 74 534.5 c 128,-1,28
 63 547 63 547 65 564 c 0,29,30
 71 635 71 635 115 675 c 128,-1,31
 159 715 159 715 236 715 c 0,32,33
 287 715 287 715 324.5 689 c 128,-1,34
 362 663 362 663 378.5 624 c 128,-1,35
 395 585 395 585 387 540.5 c 128,-1,36
 379 496 379 496 339 461 c 0,37,38
 315 443 315 443 293 426 c 0,39,40
 274 410 274 410 253.5 393 c 128,-1,41
 233 376 233 376 217 364 c 1,42,-1
 358 364 l 2,43,44
 377 364 377 364 386 352 c 1,0,1
EndSplineSet
EndChar
StartChar: threesuperior
Encoding: 179 179 117
Width: 412
VWidth: 1473
Flags: W
HStem: 274 77<169.83 244.603> 471 80<166.6 251.457> 636 79<167.417 255.02>
VStem: 55 88<366.988 441.623 567.377 622.594> 289 75<366.12 424.657>
Fore
305 516 m 1,0,1
 329 508 329 508 346.5 478 c 128,-1,2
 364 448 364 448 364 410 c 0,3,4
 364 379 364 379 351.5 354 c 128,-1,5
 339 329 339 329 318.5 311 c 128,-1,6
 298 293 298 293 270.5 283.5 c 128,-1,7
 243 274 243 274 214 274 c 0,8,9
 183 274 183 274 154 280.5 c 128,-1,10
 125 287 125 287 103 303.5 c 128,-1,11
 81 320 81 320 68 346.5 c 128,-1,12
 55 373 55 373 55 411 c 0,13,14
 55 430 55 430 66.5 442 c 128,-1,15
 78 454 78 454 97 454 c 0,16,17
 118 454 118 454 130.5 442 c 128,-1,18
 143 430 143 430 143 411 c 0,19,20
 143 382 143 382 163 366.5 c 128,-1,21
 183 351 183 351 215 351 c 0,22,23
 240 351 240 351 261.5 362.5 c 128,-1,24
 283 374 283 374 289 405 c 0,25,26
 290 414 290 414 288.5 425 c 128,-1,27
 287 436 287 436 281 446.5 c 128,-1,28
 275 457 275 457 266.5 464 c 128,-1,29
 258 471 258 471 245 471 c 2,30,-1
 183 471 l 2,31,32
 165 471 165 471 153 484.5 c 128,-1,33
 141 498 141 498 141 514 c 0,34,35
 141 529 141 529 154.5 540 c 128,-1,36
 168 551 168 551 183 551 c 2,37,-1
 242 551 l 2,38,39
 249 551 249 551 261 562 c 128,-1,40
 273 573 273 573 270 595 c 0,41,42
 268 608 268 608 252 622 c 128,-1,43
 236 636 236 636 212 636 c 0,44,45
 171 636 171 636 159 623 c 128,-1,46
 147 610 147 610 146 598 c 0,47,48
 138 555 138 555 100 555 c 0,49,50
 81 555 81 555 69 567 c 128,-1,51
 57 579 57 579 57 598 c 0,52,53
 57 622 57 622 69.5 643 c 128,-1,54
 82 664 82 664 103 680.5 c 128,-1,55
 124 697 124 697 152.5 706 c 128,-1,56
 181 715 181 715 214 715 c 0,57,58
 274 715 274 715 308.5 682.5 c 128,-1,59
 343 650 343 650 351 610 c 0,60,61
 357 585 357 585 343.5 556 c 128,-1,62
 330 527 330 527 305 516 c 1,0,1
EndSplineSet
EndChar
StartChar: acute
Encoding: 180 180 118
Width: 372
VWidth: 1473
Flags: W
HStem: 588 149<192 206 206 206>
Fore
206 737 m 1,0,-1
 331 737 l 1,1,-1
 192 588 l 1,2,-1
 125 588 l 1,3,-1
 206 737 l 1,0,-1
EndSplineSet
EndChar
StartChar: mu
Encoding: 181 181 119
Width: 707
VWidth: 1473
Flags: W
HStem: -7 109<257.744 443.935> 507 20G<129.5 152 553 574.5>
VStem: 87 106<167.594 511.014> 87 79<6.47119 72> 511 106<9.98645 56 161.031 259 259 496.119>
Fore
166 46 m 2,0,1
 168 21 168 21 169.5 6 c 128,-1,2
 171 -9 171 -9 172.5 -19 c 128,-1,3
 174 -29 174 -29 176 -38 c 128,-1,4
 178 -47 178 -47 183 -59 c 0,5,6
 190 -82 190 -82 193.5 -113 c 128,-1,7
 197 -144 197 -144 193.5 -171.5 c 128,-1,8
 190 -199 190 -199 176 -217.5 c 128,-1,9
 162 -236 162 -236 134 -236 c 0,10,11
 100 -236 100 -236 84 -217.5 c 128,-1,12
 68 -199 68 -199 62.5 -172.5 c 128,-1,13
 57 -146 57 -146 61 -115.5 c 128,-1,14
 65 -85 65 -85 69 -62 c 0,15,16
 74 -49 74 -49 78 -28 c 0,17,18
 84 4 84 4 87 74 c 2,19,-1
 87 474 l 2,20,21
 87 496 87 496 103 511.5 c 128,-1,22
 119 527 119 527 140 527 c 0,23,24
 164 527 164 527 178.5 512.5 c 128,-1,25
 193 498 193 498 193 474 c 2,26,-1
 193 259 l 2,27,28
 193 187 193 187 232 144.5 c 128,-1,29
 271 102 271 102 352 102 c 0,30,31
 435 102 435 102 473 139.5 c 128,-1,32
 511 177 511 177 511 259 c 2,33,-1
 511 474 l 2,34,35
 511 496 511 496 526.5 511.5 c 128,-1,36
 542 527 542 527 564 527 c 0,37,38
 585 527 585 527 602 511.5 c 128,-1,39
 619 496 619 496 617 474 c 2,40,-1
 617 49 l 2,41,42
 617 25 617 25 601.5 9.5 c 128,-1,43
 586 -6 586 -6 564 -6 c 0,44,45
 544 -6 544 -6 527 8 c 128,-1,46
 510 22 510 22 511 44 c 2,47,-1
 511 56 l 1,48,49
 480 27 480 27 439.5 10 c 128,-1,50
 399 -7 399 -7 352 -7 c 0,51,52
 290 -7 290 -7 241 15.5 c 128,-1,53
 192 38 192 38 165 72 c 1,54,-1
 166 46 l 2,0,1
EndSplineSet
EndChar
StartChar: paragraph
Encoding: 182 182 120
Width: 593
VWidth: 1473
Flags: W
HStem: 589 112<315 331.773 331.773 373.515 373.515 413.869>
VStem: 225 90<-191.518 277> 414 94<-199.306 589>
Fore
477 673 m 0,0,1
 491 659 491 659 499.5 636 c 128,-1,2
 508 613 508 613 508 589 c 2,3,-1
 508 -175 l 2,4,5
 508 -199 508 -199 496.5 -216.5 c 128,-1,6
 485 -234 485 -234 460 -234 c 0,7,8
 432 -234 432 -234 423 -216.5 c 128,-1,9
 414 -199 414 -199 414 -175 c 2,10,-1
 414 589 l 1,11,-1
 315 589 l 1,12,-1
 315 -169 l 2,13,14
 315 -192 315 -192 304 -208.5 c 128,-1,15
 293 -225 293 -225 270 -225 c 256,16,17
 246 -225 246 -225 235.5 -207.5 c 128,-1,18
 225 -190 225 -190 225 -169 c 2,19,-1
 225 277 l 1,20,21
 190 277 190 277 156 291 c 128,-1,22
 122 305 122 305 96.5 331 c 128,-1,23
 71 357 71 357 54.5 395 c 128,-1,24
 38 433 38 433 37 482 c 0,25,26
 35 529 35 529 52 568.5 c 128,-1,27
 69 608 69 608 98 637.5 c 128,-1,28
 127 667 127 667 166.5 684 c 128,-1,29
 206 701 206 701 250 701 c 2,30,-1
 302 701 l 2,31,32
 324 701 324 701 349 700.5 c 128,-1,33
 374 700 374 700 398 701 c 0,34,35
 399 701 399 701 408 701 c 128,-1,36
 417 701 417 701 428.5 698 c 128,-1,37
 440 695 440 695 453 689.5 c 128,-1,38
 466 684 466 684 477 673 c 0,0,1
EndSplineSet
EndChar
StartChar: periodcentered
Encoding: 183 183 121
Width: 338
VWidth: 1473
Flags: W
HStem: 253 190<109.773 229.812>
VStem: 74 191<287.57 407.828>
Fore
265 348 m 256,0,1
 265 308 265 308 237 280.5 c 128,-1,2
 209 253 209 253 169 253 c 0,3,4
 131 253 131 253 102.5 280.5 c 128,-1,5
 74 308 74 308 74 348 c 256,6,7
 74 387 74 387 102.5 415 c 128,-1,8
 131 443 131 443 169 443 c 0,9,10
 209 443 209 443 237 415 c 128,-1,11
 265 387 265 387 265 348 c 256,0,1
EndSplineSet
EndChar
StartChar: cedilla
Encoding: 184 184 122
Width: 318
VWidth: 1473
Flags: W
HStem: -222.5 228.5<153.5 159 119.5 147 147 147>
VStem: 180 98<-150.263 -95.5024>
Fore
278 -131 m 0,0,1
 271 -165 271 -165 248 -187 c 128,-1,2
 225 -209 225 -209 192 -218 c 128,-1,3
 159 -227 159 -227 119.5 -222.5 c 128,-1,4
 80 -218 80 -218 38 -197 c 1,5,-1
 71 -136 l 1,6,7
 81 -144 81 -144 99.5 -150 c 128,-1,8
 118 -156 118 -156 135.5 -157 c 128,-1,9
 153 -158 153 -158 166.5 -150.5 c 128,-1,10
 180 -143 180 -143 180 -125 c 0,11,12
 180 -100 180 -100 153.5 -93.5 c 128,-1,13
 127 -87 127 -87 88 -84 c 1,14,-1
 147 6 l 1,15,-1
 234 6 l 1,16,-1
 177 -47 l 1,17,18
 227 -40 227 -40 255.5 -67 c 128,-1,19
 284 -94 284 -94 278 -131 c 0,0,1
EndSplineSet
EndChar
StartChar: onesuperior
Encoding: 185 185 123
Width: 355
VWidth: 1473
Flags: W
HStem: 271 435<187 227.145 187 202 187 187>
VStem: 159 88<285.438 605>
Fore
230 701 m 0,0,1
 240 694 240 694 243.5 684.5 c 128,-1,2
 247 675 247 675 247 666 c 2,3,-1
 247 315 l 2,4,5
 247 298 247 298 234.5 284.5 c 128,-1,6
 222 271 222 271 202 271 c 0,7,8
 186 271 186 271 172.5 285 c 128,-1,9
 159 299 159 299 159 315 c 2,10,-1
 159 605 l 1,11,-1
 113 588 l 2,12,13
 97 580 97 580 79.5 587.5 c 128,-1,14
 62 595 62 595 56 611 c 0,15,16
 49 628 49 628 57 644 c 128,-1,17
 65 660 65 660 84 667 c 2,18,-1
 187 706 l 2,19,20
 212 712 212 712 230 701 c 0,0,1
EndSplineSet
EndChar
StartChar: ordmasculine
Encoding: 186 186 124
Width: 433
VWidth: 1473
Flags: W
HStem: 275 80<157.136 265.533> 548 80<169.542 263.63>
VStem: 40 85<386.127 515.268> 312 84<385.037 483.674>
Fore
396 454 m 0,0,1
 396 407 396 407 379 373 c 128,-1,2
 362 339 362 339 335.5 317.5 c 128,-1,3
 309 296 309 296 277.5 285.5 c 128,-1,4
 246 275 246 275 217 275 c 0,5,6
 178 275 178 275 145.5 288.5 c 128,-1,7
 113 302 113 302 89.5 325 c 128,-1,8
 66 348 66 348 53 379.5 c 128,-1,9
 40 411 40 411 40 448 c 0,10,11
 40 489 40 489 55.5 523 c 128,-1,12
 71 557 71 557 95 580 c 128,-1,13
 119 603 119 603 151 615.5 c 128,-1,14
 183 628 183 628 217 628 c 0,15,16
 258 628 258 628 292 614 c 128,-1,17
 326 600 326 600 348.5 576 c 128,-1,18
 371 552 371 552 383.5 520.5 c 128,-1,19
 396 489 396 489 396 454 c 0,0,1
312 451 m 0,20,21
 312 467 312 467 307 484 c 128,-1,22
 302 501 302 501 291 515.5 c 128,-1,23
 280 530 280 530 261.5 539 c 128,-1,24
 243 548 243 548 218 548 c 0,25,26
 171 548 171 548 148 517 c 128,-1,27
 125 486 125 486 125 449 c 0,28,29
 125 401 125 401 155.5 378 c 128,-1,30
 186 355 186 355 218 355 c 0,31,32
 253 355 253 355 282.5 378 c 128,-1,33
 312 401 312 401 312 451 c 0,20,21
EndSplineSet
EndChar
StartChar: guillemotright
Encoding: 187 187 125
Width: 576
VWidth: 1473
Flags: W
HStem: 39.5 456.5<352 355 372.5 373 372.5 373 372.5 372.5>
VStem: 74.5 450<274 456.5 456.5 457>
Fore
412 268 m 1,0,1
 402 284 402 284 386.5 309 c 128,-1,2
 371 334 371 334 355 359 c 0,3,4
 337 387 337 387 317 418 c 0,5,6
 305 436 305 436 310 456.5 c 128,-1,7
 315 477 315 477 333 489 c 0,8,9
 352 501 352 501 372.5 496 c 128,-1,10
 393 491 393 491 404 473 c 2,11,-1
 514 296 l 2,12,13
 522 284 522 284 524.5 274 c 128,-1,14
 527 264 527 264 517 247 c 2,15,16
 508 233.5 l 2,17,18
 499 220 499 220 486.5 200 c 128,-1,19
 474 180 474 180 459.5 156.5 c 128,-1,20
 445 133 445 133 432.5 112 c 128,-1,21
 420 91 420 91 412.5 78.5 c 128,-1,22
 405 66 405 66 404 65 c 2,23,24
 395 44 395 44 373 39.5 c 128,-1,25
 351 35 351 35 333 47 c 0,26,27
 315 56 315 56 310.5 79 c 128,-1,28
 306 102 306 102 317 118 c 0,29,30
 337 149 337 149 355 177 c 0,31,32
 371 202 371 202 386.5 227 c 128,-1,33
 402 252 402 252 412 268 c 1,0,1
177 268 m 1,34,35
 166 284 166 284 151 309 c 128,-1,36
 136 334 136 334 119 359 c 0,37,38
 102 387 102 387 81 418 c 0,39,40
 69 436 69 436 74.5 456.5 c 128,-1,41
 80 477 80 477 97 489 c 0,42,43
 116 501 116 501 137 496 c 128,-1,44
 158 491 158 491 168 473 c 2,45,-1
 278 296 l 2,46,47
 286 284 286 284 289 274 c 128,-1,48
 292 264 292 264 281 247 c 2,49,-1
 272.5 233.5 l 2,50,51
 264 220 264 220 251.5 200 c 128,-1,52
 239 180 239 180 224 156.5 c 128,-1,53
 209 133 209 133 196.5 112 c 128,-1,54
 184 91 184 91 176.5 78.5 c 128,-1,55
 169 66 169 66 168 65 c 2,56,57
 159 44 159 44 137 39.5 c 128,-1,58
 115 35 115 35 97 47 c 0,59,60
 80 56 80 56 75.5 79 c 128,-1,61
 71 102 71 102 81 118 c 0,62,63
 102 149 102 149 119 177 c 0,64,65
 136 202 136 202 151 227 c 128,-1,66
 166 252 166 252 177 268 c 1,34,35
EndSplineSet
EndChar
StartChar: onequarter
Encoding: 188 188 126
Width: 894
VWidth: 1473
Flags: W
HStem: 1 21G<751 768> 77 82<598 716 801 829.767>
VStem: 159 88<285.438 605> 719 82<27.2477 77 161 298>
Fore
178 -15 m 1,0,-1
 597 712 l 1,1,-1
 684 712 l 1,2,-1
 265 -15 l 1,3,-1
 178 -15 l 1,0,-1
846 149 m 0,4,5
 856 137 856 137 858 124.5 c 128,-1,6
 860 112 860 112 853.5 101 c 128,-1,7
 847 90 847 90 834 82.5 c 128,-1,8
 821 75 821 75 801 77 c 1,9,-1
 801 44 l 2,10,11
 801 28 801 28 788.5 14.5 c 128,-1,12
 776 1 776 1 760 1 c 0,13,14
 742 1 742 1 730.5 14.5 c 128,-1,15
 719 28 719 28 719 44 c 2,16,-1
 719 77 l 1,17,-1
 517 77 l 2,18,19
 504 75 504 75 494.5 81.5 c 128,-1,20
 485 88 485 88 479.5 99 c 128,-1,21
 474 110 474 110 475 123.5 c 128,-1,22
 476 137 476 137 485 146 c 2,23,-1
 722 421 l 1,24,25
 723 424 723 424 734 432 c 128,-1,26
 745 440 745 440 762 439 c 0,27,28
 779 436 779 436 790 423.5 c 128,-1,29
 801 411 801 411 801 395 c 2,30,-1
 801 161 l 1,31,32
 834 161 834 161 846 149 c 0,4,5
598 159 m 1,33,-1
 716 159 l 1,34,-1
 716 298 l 1,35,-1
 598 159 l 1,33,-1
230 701 m 0,36,37
 240 694 240 694 243.5 684.5 c 128,-1,38
 247 675 247 675 247 666 c 2,39,-1
 247 315 l 2,40,41
 247 298 247 298 234.5 284.5 c 128,-1,42
 222 271 222 271 202 271 c 0,43,44
 186 271 186 271 172.5 285 c 128,-1,45
 159 299 159 299 159 315 c 2,46,-1
 159 605 l 1,47,-1
 113 588 l 2,48,49
 97 580 97 580 79.5 587.5 c 128,-1,50
 62 595 62 595 56 611 c 0,51,52
 49 628 49 628 57 644 c 128,-1,53
 65 660 65 660 84 667 c 2,54,-1
 187 706 l 2,55,56
 212 712 212 712 230 701 c 0,36,37
EndSplineSet
Ligature2: "'frac' Diagonal Fractions in Latin lookup 0 subtable" one fraction four
Ligature2: "'frac' Diagonal Fractions in Latin lookup 0 subtable" one slash four
EndChar
StartChar: onehalf
Encoding: 189 189 127
Width: 875
VWidth: 1473
Flags: W
HStem: 0 84<648 805.555> 351 84<604.385 704.528> 696 20G<538.457 638>
VStem: 144 84<291.453 600> 496 83<255.808 336.636>
Fore
131 -10 m 1,0,-1
 550 716 l 1,1,-1
 638 716 l 1,2,-1
 218 -10 l 1,3,-1
 131 -10 l 1,0,-1
214 695 m 0,4,5
 222 688 222 688 225 678.5 c 128,-1,6
 228 669 228 669 228 660 c 2,7,-1
 228 309 l 2,8,9
 228 292 228 292 216.5 278.5 c 128,-1,10
 205 265 205 265 189 265 c 256,11,12
 172 265 172 265 158 279 c 128,-1,13
 144 293 144 293 144 309 c 2,14,-1
 144 600 l 1,15,-1
 96 582 l 2,16,17
 80 575 80 575 64.5 582 c 128,-1,18
 49 589 49 589 43 605 c 0,19,20
 35 622 35 622 42.5 638 c 128,-1,21
 50 654 50 654 66 661 c 2,22,-1
 174 700 l 2,23,24
 200 706 200 706 214 695 c 0,4,5
818 72 m 1,25,26
 826 63 826 63 828.5 50.5 c 128,-1,27
 831 38 831 38 826.5 27 c 128,-1,28
 822 16 822 16 812.5 8 c 128,-1,29
 803 0 803 0 790 0 c 2,30,-1
 535 0 l 2,31,32
 519 0 519 0 508.5 9 c 128,-1,33
 498 18 498 18 493.5 30.5 c 128,-1,34
 489 43 489 43 492 57 c 128,-1,35
 495 71 495 71 505 80 c 2,36,-1
 532 100 l 2,37,38
 552 116 552 116 592.5 149.5 c 128,-1,39
 633 183 633 183 712 246 c 0,40,41
 734 261 734 261 737.5 279.5 c 128,-1,42
 741 298 741 298 732 313.5 c 128,-1,43
 723 329 723 329 705.5 340 c 128,-1,44
 688 351 688 351 667 351 c 0,45,46
 625 351 625 351 603.5 328.5 c 128,-1,47
 582 306 582 306 579 277 c 0,48,49
 577 261 577 261 564 249 c 128,-1,50
 551 237 551 237 533 239 c 0,51,52
 517 242 517 242 506 254.5 c 128,-1,53
 495 267 495 267 496 284 c 0,54,55
 502 355 502 355 546.5 395 c 128,-1,56
 591 435 591 435 667 435 c 0,57,58
 719 435 719 435 756.5 409 c 128,-1,59
 794 383 794 383 810 344 c 128,-1,60
 826 305 826 305 818 261 c 128,-1,61
 810 217 810 217 770 181 c 0,62,63
 747 164 747 164 725 146 c 0,64,65
 706 130 706 130 685 113 c 128,-1,66
 664 96 664 96 648 84 c 1,67,-1
 790 84 l 2,68,69
 809 84 809 84 818 72 c 1,25,26
EndSplineSet
Ligature2: "'frac' Diagonal Fractions in Latin lookup 0 subtable" one fraction two
Ligature2: "'frac' Diagonal Fractions in Latin lookup 0 subtable" one slash two
EndChar
StartChar: threequarters
Encoding: 190 190 128
Width: 900
VWidth: 1473
Flags: W
HStem: 1 21G<751 768> 77 82<598 716 801 842.559> 274 77<162.17 237.357> 461 80<159.408 253.141> 638 77<160.248 247.586>
VStem: 47 89<366.988 441.623> 281 76<366.048 433.04> 719 82<27.2477 77 161 298>
Fore
303 -13 m 1,0,-1
 725 713 l 1,1,-1
 636 713 l 1,2,-1
 217 -13 l 1,3,-1
 303 -13 l 1,0,-1
846 149 m 256,4,5
 857 137 857 137 857 118 c 0,6,7
 857 102 857 102 843 89.5 c 128,-1,8
 829 77 829 77 801 77 c 1,9,-1
 801 44 l 2,10,11
 801 28 801 28 788.5 14.5 c 128,-1,12
 776 1 776 1 760 1 c 0,13,14
 742 1 742 1 730.5 14.5 c 128,-1,15
 719 28 719 28 719 44 c 2,16,-1
 719 77 l 1,17,-1
 517 77 l 2,18,19
 504 75 504 75 494.5 81.5 c 128,-1,20
 485 88 485 88 479.5 99 c 128,-1,21
 474 110 474 110 475 123.5 c 128,-1,22
 476 137 476 137 485 146 c 2,23,-1
 722 421 l 1,24,25
 723 424 723 424 734 432 c 128,-1,26
 745 440 745 440 762 439 c 0,27,28
 779 436 779 436 790 423.5 c 128,-1,29
 801 411 801 411 801 395 c 2,30,-1
 801 161 l 1,31,32
 834 161 834 161 846 149 c 256,4,5
598 159 m 1,33,-1
 716 159 l 1,34,-1
 716 298 l 1,35,-1
 598 159 l 1,33,-1
298 505 m 1,36,37
 321 498 321 498 339 473 c 128,-1,38
 357 448 357 448 357 410 c 0,39,40
 357 379 357 379 344 354 c 128,-1,41
 331 329 331 329 310.5 311 c 128,-1,42
 290 293 290 293 263 283.5 c 128,-1,43
 236 274 236 274 206 274 c 0,44,45
 175 274 175 274 146.5 280.5 c 128,-1,46
 118 287 118 287 96 303.5 c 128,-1,47
 74 320 74 320 60.5 346.5 c 128,-1,48
 47 373 47 373 47 411 c 0,49,50
 47 430 47 430 59 442 c 128,-1,51
 71 454 71 454 90 454 c 0,52,53
 110 454 110 454 123 442 c 128,-1,54
 136 430 136 430 136 411 c 0,55,56
 136 382 136 382 155.5 366.5 c 128,-1,57
 175 351 175 351 208 351 c 0,58,59
 233 351 233 351 254 362.5 c 128,-1,60
 275 374 275 374 281 405 c 0,61,62
 284 421 284 421 274 441 c 128,-1,63
 264 461 264 461 237 461 c 2,64,-1
 175 461 l 2,65,66
 158 461 158 461 146 474.5 c 128,-1,67
 134 488 134 488 134 504 c 0,68,69
 134 519 134 519 147.5 530 c 128,-1,70
 161 541 161 541 175 541 c 2,71,-1
 234 541 l 2,72,73
 242 541 242 541 253.5 557 c 128,-1,74
 265 573 265 573 262 595 c 0,75,76
 261 608 261 608 244.5 623 c 128,-1,77
 228 638 228 638 205 638 c 0,78,79
 164 638 164 638 152 624 c 128,-1,80
 140 610 140 610 138 598 c 0,81,82
 131 555 131 555 93 555 c 0,83,84
 74 555 74 555 62 567 c 128,-1,85
 50 579 50 579 50 598 c 0,86,87
 50 622 50 622 62.5 643 c 128,-1,88
 75 664 75 664 95.5 680.5 c 128,-1,89
 116 697 116 697 145 706 c 128,-1,90
 174 715 174 715 206 715 c 0,91,92
 267 715 267 715 301.5 682.5 c 128,-1,93
 336 650 336 650 343 610 c 0,94,95
 346 597 346 597 344 581.5 c 128,-1,96
 342 566 342 566 336 551 c 128,-1,97
 330 536 330 536 320.5 523.5 c 128,-1,98
 311 511 311 511 298 505 c 1,36,37
EndSplineSet
Ligature2: "'frac' Diagonal Fractions in Latin lookup 0 subtable" three fraction four
Ligature2: "'frac' Diagonal Fractions in Latin lookup 0 subtable" three slash four
EndChar
StartChar: questiondown
Encoding: 191 191 129
Width: 683
VWidth: 1473
Flags: W
HStem: -225 107<263.749 420.627> 398 144<357.205 461.795>
VStem: 72 109<-59.9895 51.9236> 334 151<419.658 519.826> 355 109<263.217 329.92>
Fore
72 4 m 256,0,1
 72 52 72 52 87.5 88 c 128,-1,2
 103 124 103 124 130.5 149 c 128,-1,3
 158 174 158 174 193 190 c 128,-1,4
 228 206 228 206 268 215 c 0,5,6
 284 218 284 218 299 221.5 c 128,-1,7
 314 225 314 225 326 234 c 0,8,9
 339 243 339 243 347 254 c 128,-1,10
 355 265 355 265 355 290 c 0,11,12
 355 327 355 327 372 338 c 128,-1,13
 389 349 389 349 410 349 c 0,14,15
 440 349 440 349 451.5 330.5 c 128,-1,16
 463 312 463 312 464 284 c 0,17,18
 464 239 464 239 448 208 c 128,-1,19
 432 177 432 177 377 143 c 0,20,21
 358 131 358 131 336.5 124.5 c 128,-1,22
 315 118 315 118 295 113 c 0,23,24
 271 108 271 108 250.5 100.5 c 128,-1,25
 230 93 230 93 214.5 81 c 128,-1,26
 199 69 199 69 190 50.5 c 128,-1,27
 181 32 181 32 181 4 c 0,28,29
 181 -29 181 -29 193.5 -53 c 128,-1,30
 206 -77 206 -77 227.5 -91 c 128,-1,31
 249 -105 249 -105 275.5 -111.5 c 128,-1,32
 302 -118 302 -118 330 -118 c 0,33,34
 377 -118 377 -118 421.5 -96.5 c 128,-1,35
 466 -75 466 -75 499 -38 c 0,36,37
 516 -22 516 -22 539.5 -21.5 c 128,-1,38
 563 -21 563 -21 579 -37 c 256,39,40
 595 -53 595 -53 596 -76 c 128,-1,41
 597 -99 597 -99 580 -115 c 0,42,43
 529 -168 529 -168 467 -196.5 c 128,-1,44
 405 -225 405 -225 333 -225 c 0,45,46
 267 -225 267 -225 218 -207 c 128,-1,47
 169 -189 169 -189 137 -158 c 128,-1,48
 105 -127 105 -127 88.5 -85 c 128,-1,49
 72 -43 72 -43 72 4 c 256,0,1
334 470 m 256,50,51
 334 499 334 499 356.5 520.5 c 128,-1,52
 379 542 379 542 410 542 c 256,53,54
 440 542 440 542 462.5 520.5 c 128,-1,55
 485 499 485 499 485 470 c 256,56,57
 485 440 485 440 462.5 419 c 128,-1,58
 440 398 440 398 410 398 c 256,59,60
 379 398 379 398 356.5 419 c 128,-1,61
 334 440 334 440 334 470 c 256,50,51
EndSplineSet
EndChar
StartChar: Aring
Encoding: 197 197 134
Width: 736
VWidth: 1473
Flags: W
HStem: 0 21G<107.5 125.5 612.5 630.5> 302 109<169 564> 617 103<262.674 471.974> 772 53<336.446 402.279> 909 54<335.916 402.279>
VStem: 60 109<14.9586 302 411 482.59> 274 53<834.446 899.912> 411 55<833.916 900.437> 564 109<14.9586 302 411 480.629>
Fore
274 868 m 256,0,1
 274 907 274 907 302 935 c 128,-1,2
 330 963 330 963 370 963 c 256,3,4
 410 963 410 963 438 935 c 128,-1,5
 466 907 466 907 466 868 c 256,6,7
 466 828 466 828 438 800 c 128,-1,8
 410 772 410 772 370 772 c 256,9,10
 330 772 330 772 302 800 c 128,-1,11
 274 828 274 828 274 868 c 256,0,1
327 868 m 256,12,13
 327 850 327 850 339.5 837.5 c 128,-1,14
 352 825 352 825 370 825 c 256,15,16
 387 825 387 825 399 837.5 c 128,-1,17
 411 850 411 850 411 868 c 256,18,19
 411 885 411 885 399 897 c 128,-1,20
 387 909 387 909 370 909 c 256,21,22
 352 909 352 909 339.5 897 c 128,-1,23
 327 885 327 885 327 868 c 256,12,13
673 66 m 2,24,25
 673 29 673 29 657 14.5 c 128,-1,26
 641 0 641 0 620 0 c 0,27,28
 605 0 605 0 584.5 12 c 128,-1,29
 564 24 564 24 564 66 c 2,30,-1
 564 302 l 1,31,-1
 169 302 l 1,32,-1
 169 66 l 2,33,34
 169 29 169 29 152.5 14.5 c 128,-1,35
 136 0 136 0 115 0 c 0,36,37
 100 0 100 0 80 12 c 128,-1,38
 60 24 60 24 60 66 c 2,39,-1
 60 433 l 2,40,41
 60 491 60 491 76.5 542.5 c 128,-1,42
 93 594 93 594 129 633.5 c 128,-1,43
 165 673 165 673 224 696.5 c 128,-1,44
 283 720 283 720 368 720 c 0,45,46
 452 720 452 720 510.5 697.5 c 128,-1,47
 569 675 569 675 605 636 c 128,-1,48
 641 597 641 597 657 545.5 c 128,-1,49
 673 494 673 494 673 438 c 2,50,-1
 673 66 l 2,24,25
566 442 m 2,51,52
 566 474 566 474 557 505 c 128,-1,53
 548 536 548 536 526 561 c 128,-1,54
 504 586 504 586 465.5 601.5 c 128,-1,55
 427 617 427 617 368 617 c 0,56,57
 308 617 308 617 269 601.5 c 128,-1,58
 230 586 230 586 208 561 c 128,-1,59
 186 536 186 536 177.5 505 c 128,-1,60
 169 474 169 474 169 442 c 2,61,-1
 169 411 l 1,62,-1
 566 411 l 1,63,-1
 566 442 l 2,51,52
EndSplineSet
EndChar
StartChar: AE
Encoding: 198 198 135
Width: 1231
VWidth: 1473
Flags: W
HStem: -3 106<846.475 977.836> 302 109<169 564 673 983.404> 617 103<262.674 471.276 810.823 976.36>
VStem: 60 109<14.9586 302 411 482.59> 564 109<14.9586 97 200.57 302 412 480.629>
Fore
566 442 m 2,0,1
 566 474 566 474 557 505 c 128,-1,2
 548 536 548 536 526 561 c 128,-1,3
 504 586 504 586 465.5 601.5 c 128,-1,4
 427 617 427 617 368 617 c 0,5,6
 308 617 308 617 269 601.5 c 128,-1,7
 230 586 230 586 208 561 c 128,-1,8
 186 536 186 536 177.5 505 c 128,-1,9
 169 474 169 474 169 442 c 2,10,-1
 169 411 l 1,11,-1
 566 411 l 1,12,-1
 566 442 l 2,0,1
673 66 m 2,13,14
 673 29 673 29 657 14.5 c 128,-1,15
 641 0 641 0 620 0 c 0,16,17
 605 0 605 0 584.5 12 c 128,-1,18
 564 24 564 24 564 66 c 2,19,-1
 564 302 l 1,20,-1
 169 302 l 1,21,-1
 169 66 l 2,22,23
 169 29 169 29 152.5 14.5 c 128,-1,24
 136 0 136 0 115 0 c 0,25,26
 100 0 100 0 80 12 c 128,-1,27
 60 24 60 24 60 66 c 2,28,-1
 60 433 l 2,29,30
 60 491 60 491 76.5 542.5 c 128,-1,31
 93 594 93 594 129 633.5 c 128,-1,32
 165 673 165 673 224 696.5 c 128,-1,33
 283 720 283 720 368 720 c 0,34,35
 463 720 463 720 524.5 691.5 c 128,-1,36
 586 663 586 663 622 616 c 1,37,38
 666 672 666 672 738 697.5 c 128,-1,39
 810 723 810 723 885 723 c 0,40,41
 933 723 933 723 977 715 c 128,-1,42
 1021 707 1021 707 1058.5 691 c 128,-1,43
 1096 675 1096 675 1125.5 652 c 128,-1,44
 1155 629 1155 629 1173 600 c 0,45,46
 1184 579 1184 579 1181.5 558.5 c 128,-1,47
 1179 538 1179 538 1158 526 c 256,48,49
 1137 514 1137 514 1116 520.5 c 128,-1,50
 1095 527 1095 527 1080 545 c 0,51,52
 1058 575 1058 575 1009.5 594 c 128,-1,53
 961 613 961 613 885 613 c 0,54,55
 853 613 853 613 815.5 605 c 128,-1,56
 778 597 778 597 746.5 579 c 128,-1,57
 715 561 715 561 694 531.5 c 128,-1,58
 673 502 673 502 673 460 c 2,59,-1
 673 412 l 1,60,-1
 937 411 l 2,61,62
 965 411 965 411 984 399 c 128,-1,63
 1003 387 1003 387 1003 358 c 0,64,65
 1003 337 1003 337 988.5 319.5 c 128,-1,66
 974 302 974 302 937 302 c 2,67,-1
 673 302 l 1,68,-1
 673 273 l 2,69,70
 675 230 675 230 697 197.5 c 128,-1,71
 719 165 719 165 750 144.5 c 128,-1,72
 781 124 781 124 817 113.5 c 128,-1,73
 853 103 853 103 885 103 c 0,74,75
 961 103 961 103 1009.5 122 c 128,-1,76
 1058 141 1058 141 1080 171 c 0,77,78
 1095 189 1095 189 1116 195.5 c 128,-1,79
 1137 202 1137 202 1158 190 c 256,80,81
 1179 178 1179 178 1181.5 157.5 c 128,-1,82
 1184 137 1184 137 1173 116 c 0,83,84
 1155 87 1155 87 1125.5 65 c 128,-1,85
 1096 43 1096 43 1058.5 27.5 c 128,-1,86
 1021 12 1021 12 977 4.5 c 128,-1,87
 933 -3 933 -3 885 -3 c 0,88,89
 856 -3 856 -3 823 5 c 128,-1,90
 790 13 790 13 759.5 26.5 c 128,-1,91
 729 40 729 40 705.5 58.5 c 128,-1,92
 682 77 682 77 673 97 c 1,93,-1
 673 66 l 2,13,14
EndSplineSet
EndChar
StartChar: Eth
Encoding: 208 208 145
Width: 769
VWidth: 1473
Flags: W
HStem: 0 109<200.5 332.296 332.296 375.279> 331 90<0 90 199 359> 610 110<200.316 331.327 331.327 373.261>
VStem: 90 109<111.125 331 421 609.114> 603.5 109<268.985 456.562>
Fore
608 614 m 0,0,1
 656 569 656 569 683 502 c 128,-1,2
 710 435 710 435 712.5 362.5 c 128,-1,3
 715 290 715 290 689.5 221.5 c 128,-1,4
 664 153 664 153 608 105 c 0,5,6
 566 63 566 63 516 42 c 128,-1,7
 466 21 466 21 422.5 11 c 128,-1,8
 379 1 379 1 348.5 0.5 c 128,-1,9
 318 0 318 0 317 0 c 2,10,-1
 228 0 l 2,11,12
 171 1 171 1 130 41 c 0,13,14
 90 78 90 78 90 141 c 2,15,-1
 90 331 l 1,16,-1
 0 331 l 1,17,-1
 0 421 l 1,18,-1
 90 421 l 1,19,-1
 90 579 l 2,20,21
 90 638 90 638 130 681 c 0,22,23
 172 720 172 720 230 720 c 2,24,-1
 315 720 l 2,25,26
 318 720 318 720 348.5 719.5 c 128,-1,27
 379 719 379 719 422.5 709.5 c 128,-1,28
 466 700 466 700 516 678 c 128,-1,29
 566 656 566 656 608 614 c 0,0,1
532 184 m 0,30,31
 569 220 569 220 586.5 267.5 c 128,-1,32
 604 315 604 315 603.5 363.5 c 128,-1,33
 603 412 603 412 584.5 458 c 128,-1,34
 566 504 566 504 532 538 c 0,35,36
 502 566 502 566 466 580.5 c 128,-1,37
 430 595 430 595 396 603 c 0,38,39
 358 610 358 610 318 610 c 2,40,-1
 230 610 l 2,41,42
 199 610 199 610 199 580 c 2,43,-1
 199 421 l 1,44,-1
 359 421 l 1,45,-1
 359 331 l 1,46,-1
 199 331 l 1,47,-1
 199 138 l 2,48,49
 199 109 199 109 230 109 c 2,50,-1
 318 109 l 1,51,52
 341 109.5 l 2,53,54
 364 110 364 110 396.5 117 c 128,-1,55
 429 124 429 124 465.5 139.5 c 128,-1,56
 502 155 502 155 532 184 c 0,30,31
EndSplineSet
EndChar
StartChar: multiply
Encoding: 215 215 152
Width: 677
VWidth: 1473
Flags: W
HStem: 22.5 468<511 512 512 533 511 512 511 511>
VStem: 103.5 468.5<59 100 75 81 81 82>
Fore
572 75 m 0,0,1
 572 55 572 55 555 38 c 0,2,3
 535 18 535 18 512 22.5 c 128,-1,4
 489 27 489 27 470 46 c 2,5,-1
 337 177 l 1,6,-1
 205 46 l 2,7,8
 186 27 186 27 163 22.5 c 128,-1,9
 140 18 140 18 119 38 c 256,10,11
 99 59 99 59 103.5 81 c 128,-1,12
 108 103 108 103 128 122 c 2,13,-1
 261 255 l 1,14,-1
 130 386 l 2,15,16
 105 411 105 411 106.5 434 c 128,-1,17
 108 457 108 457 122 471 c 0,18,19
 143 492 143 492 165 487.5 c 128,-1,20
 187 483 187 483 206 463 c 2,21,-1
 337 331 l 1,22,-1
 470 466 l 2,23,24
 489 486 489 486 511 490.5 c 128,-1,25
 533 495 533 495 554 474 c 0,26,27
 569 460 569 460 570.5 437 c 128,-1,28
 572 414 572 414 547 389 c 2,29,-1
 414 255 l 1,30,-1
 547 122 l 2,31,32
 572 100 572 100 572 75 c 0,0,1
EndSplineSet
EndChar
StartChar: Oslash
Encoding: 216 216 153
Width: 798
VWidth: 1473
Flags: W
VStem: 46 109<258.501 453.015> 641 110<253.735 457.023>
Fore
644 616 m 2,0,1
 698 564 698 564 724.5 495.5 c 128,-1,2
 751 427 751 427 751 355 c 128,-1,3
 751 283 751 283 724 214.5 c 128,-1,4
 697 146 697 146 644 96 c 0,5,6
 605 56 605 56 556.5 31 c 128,-1,7
 508 6 508 6 455 -3 c 128,-1,8
 402 -12 402 -12 348.5 -4.5 c 128,-1,9
 295 3 295 3 247 28 c 1,10,-1
 192 -57 l 2,11,12
 181 -72 181 -72 165 -76 c 128,-1,13
 149 -80 149 -80 134 -71 c 0,14,15
 121 -62 121 -62 117 -45.5 c 128,-1,16
 113 -29 113 -29 124 -15 c 2,17,-1
 174 74 l 1,18,19
 113 125 113 125 81 194.5 c 128,-1,20
 49 264 49 264 46 338 c 128,-1,21
 43 412 43 412 68.5 484.5 c 128,-1,22
 94 557 94 557 150 616 c 0,23,24
 190 656 190 656 239.5 681 c 128,-1,25
 289 706 289 706 343.5 714.5 c 128,-1,26
 398 723 398 723 453 715 c 128,-1,27
 508 707 508 707 558 682 c 1,28,-1
 610 765 l 2,29,30
 619 781 619 781 636 785.5 c 128,-1,31
 653 790 653 790 669 781 c 0,32,33
 685 769 685 769 688.5 752 c 128,-1,34
 692 735 692 735 684 720 c 2,35,-1
 626 636 l 1,36,37
 631 632 631 632 635 627 c 128,-1,38
 639 622 639 622 644 616 c 2,0,1
231 175 m 2,39,40
 233 172 233 172 234.5 171.5 c 128,-1,41
 236 171 236 171 237 168 c 1,42,-1
 495 585 l 1,43,44
 463 601 463 601 426.5 605.5 c 128,-1,45
 390 610 390 610 355 603.5 c 128,-1,46
 320 597 320 597 287.5 580 c 128,-1,47
 255 563 255 563 231 538 c 0,48,49
 193 502 193 502 174 454.5 c 128,-1,50
 155 407 155 407 155 356 c 128,-1,51
 155 305 155 305 174 257 c 128,-1,52
 193 209 193 209 231 175 c 2,39,40
567 175 m 0,53,54
 604 209 604 209 622.5 257 c 128,-1,55
 641 305 641 305 641 356 c 128,-1,56
 641 407 641 407 622.5 454.5 c 128,-1,57
 604 502 604 502 567 538 c 1,58,-1
 305 121 l 1,59,60
 371 97 371 97 443.5 108 c 128,-1,61
 516 119 516 119 567 175 c 0,53,54
EndSplineSet
EndChar
StartChar: Thorn
Encoding: 222 222 159
Width: 698
VWidth: 1473
Flags: W
HStem: 138 86<199 451.25> 517 102<199 438.561>
VStem: 90 109<-13.6531 138 224 517 619 725.653> 539 106<281.489 461.526>
Fore
395 619 m 2,0,1
 420 619 420 619 462 612 c 128,-1,2
 504 605 504 605 545 580 c 128,-1,3
 586 555 586 555 615.5 506.5 c 128,-1,4
 645 458 645 458 645 374 c 0,5,6
 645 312 645 312 623 267 c 128,-1,7
 601 222 601 222 567 193.5 c 128,-1,8
 533 165 533 165 492 151.5 c 128,-1,9
 451 138 451 138 411 138 c 2,10,-1
 197 138 l 1,11,-1
 199 21 l 2,12,13
 199 -3 199 -3 180.5 -14 c 128,-1,14
 162 -25 162 -25 146 -25 c 256,15,16
 130 -25 130 -25 110 -14 c 128,-1,17
 90 -3 90 -3 90 21 c 2,18,-1
 90 691 l 2,19,20
 90 715 90 715 110 726 c 128,-1,21
 130 737 130 737 146 737 c 256,22,23
 162 737 162 737 180.5 726 c 128,-1,24
 199 715 199 715 199 691 c 2,25,-1
 199 619 l 1,26,-1
 395 619 l 2,0,1
410 224 m 2,27,28
 461 224 461 224 500 261 c 128,-1,29
 539 298 539 298 539 367 c 0,30,31
 539 445 539 445 502.5 481 c 128,-1,32
 466 517 466 517 410 517 c 2,33,-1
 199 517 l 1,34,-1
 199 224 l 1,35,-1
 410 224 l 2,27,28
EndSplineSet
EndChar
StartChar: uni00DF
Encoding: 223 223 160
Width: 671
VWidth: 1473
Flags: W
HStem: 3 99<274.125 409.562> 415 93<258 354.304>
VStem: 91 96<13.439 591.214> 482 101<170.578 295.806>
Fore
293 102 m 2,0,-1
 323 102 l 2,1,2
 398 105 398 105 441.5 147 c 128,-1,3
 485 189 485 189 482 261 c 0,4,5
 482 293 482 293 468.5 321 c 128,-1,6
 455 349 455 349 433 369.5 c 128,-1,7
 411 390 411 390 382.5 402.5 c 128,-1,8
 354 415 354 415 323 415 c 2,9,-1
 258 415 l 1,10,-1
 258 508 l 1,11,-1
 331 508 l 2,12,13
 373 508 373 508 392.5 528 c 128,-1,14
 412 548 412 548 414 575 c 0,15,16
 415 605 415 605 395.5 625 c 128,-1,17
 376 645 376 645 348 652.5 c 128,-1,18
 320 660 320 660 288 655 c 128,-1,19
 256 650 256 650 233 632 c 0,20,21
 215 617 215 617 201 592 c 128,-1,22
 187 567 187 567 187 524 c 2,23,-1
 187 47 l 2,24,25
 187 25 187 25 173 12 c 128,-1,26
 159 -1 159 -1 138 -1 c 256,27,28
 118 -1 118 -1 104.5 13 c 128,-1,29
 91 27 91 27 91 47 c 2,30,-1
 91 532 l 2,31,32
 91 629 91 629 149.5 683 c 128,-1,33
 208 737 208 737 302 737 c 0,34,35
 385 737 385 737 435.5 703.5 c 128,-1,36
 486 670 486 670 504.5 624.5 c 128,-1,37
 523 579 523 579 511 533.5 c 128,-1,38
 499 488 499 488 457 463 c 1,39,40
 489 449 489 449 512.5 426.5 c 128,-1,41
 536 404 536 404 551.5 376 c 128,-1,42
 567 348 567 348 575 317 c 128,-1,43
 583 286 583 286 583 256 c 0,44,45
 583 205 583 205 565.5 159 c 128,-1,46
 548 113 548 113 515.5 79.5 c 128,-1,47
 483 46 483 46 436.5 25 c 128,-1,48
 390 4 390 4 334 3 c 2,49,-1
 305 3 l 2,50,51
 280 1 280 1 259.5 13 c 128,-1,52
 239 25 239 25 239 52 c 0,53,54
 239 72 239 72 256 86 c 128,-1,55
 273 100 273 100 293 102 c 2,0,-1
EndSplineSet
EndChar
StartChar: ae
Encoding: 230 230 167
Width: 1087
VWidth: 1473
Flags: W
HStem: -12 92<201.512 391.236 707.125 865.875> 221 102<607 934.98> 274 93<239.271 391.647> 442 96<226.347 421.508 693.648 842.742>
VStem: 46 106<126.166 224.74> 480 120<162.783 220.651>
Fore
977 466 m 0,0,1
 1005 435 1005 435 1018 405.5 c 128,-1,2
 1031 376 1031 376 1035 349.5 c 128,-1,3
 1039 323 1039 323 1036.5 303 c 128,-1,4
 1034 283 1034 283 1030 273 c 0,5,6
 1017 240 1017 240 990 230.5 c 128,-1,7
 963 221 963 221 931 221 c 2,8,-1
 600 221 l 1,9,10
 601 187 601 187 616.5 162 c 128,-1,11
 632 137 632 137 656.5 120 c 128,-1,12
 681 103 681 103 711 94 c 128,-1,13
 741 85 741 85 773 85 c 0,14,15
 825 85 825 85 858 98.5 c 128,-1,16
 891 112 891 112 910 133 c 0,17,18
 934 156 934 156 953 159 c 128,-1,19
 972 162 972 162 989 150 c 0,20,21
 1006 136 1006 136 1006 108.5 c 128,-1,22
 1006 81 1006 81 990 65 c 0,23,24
 949 29 949 29 899.5 8 c 128,-1,25
 850 -13 850 -13 773 -13 c 0,26,27
 703 -13 703 -13 643 12 c 128,-1,28
 583 37 583 37 545 85 c 1,29,30
 522 56 522 56 492.5 37 c 128,-1,31
 463 18 463 18 430.5 7 c 128,-1,32
 398 -4 398 -4 364.5 -8 c 128,-1,33
 331 -12 331 -12 302 -12 c 0,34,35
 183 -12 183 -12 114.5 36 c 128,-1,36
 46 84 46 84 46 177 c 0,37,38
 46 218 46 218 65.5 252.5 c 128,-1,39
 85 287 85 287 120.5 312 c 128,-1,40
 156 337 156 337 205.5 352 c 128,-1,41
 255 367 255 367 315 367 c 0,42,43
 373 367 373 367 419.5 346.5 c 128,-1,44
 466 326 466 326 491 306 c 1,45,-1
 491 309 l 2,46,47
 482 382 482 382 437 412 c 128,-1,48
 392 442 392 442 303 442 c 0,49,50
 259 442 259 442 221 430 c 128,-1,51
 183 418 183 418 153 401 c 0,52,53
 121 383 121 383 105.5 389.5 c 128,-1,54
 90 396 90 396 85 401 c 0,55,56
 65 423 65 423 73 445.5 c 128,-1,57
 81 468 81 468 103 485 c 0,58,59
 187 538 187 538 302 538 c 0,60,61
 389 538 389 538 448.5 513.5 c 128,-1,62
 508 489 508 489 550 436 c 1,63,64
 588 486 588 486 646 512 c 128,-1,65
 704 538 704 538 773 538 c 0,66,67
 853 538 853 538 900 514.5 c 128,-1,68
 947 491 947 491 977 466 c 0,0,1
306 80 m 0,69,70
 382 80 382 80 431 105.5 c 128,-1,71
 480 131 480 131 480 174 c 0,72,73
 480 203 480 203 465.5 222.5 c 128,-1,74
 451 242 451 242 427.5 253.5 c 128,-1,75
 404 265 404 265 373 269.5 c 128,-1,76
 342 274 342 274 311 274 c 0,77,78
 284 274 284 274 256 268 c 128,-1,79
 228 262 228 262 205.5 250.5 c 128,-1,80
 183 239 183 239 168 222 c 128,-1,81
 153 205 153 205 152 183 c 1,82,83
 156 130 156 130 199 105 c 128,-1,84
 242 80 242 80 306 80 c 0,69,70
935 323 m 1,85,86
 930 346 930 346 918.5 367.5 c 128,-1,87
 907 389 907 389 888 406 c 128,-1,88
 869 423 869 423 842 432.5 c 128,-1,89
 815 442 815 442 776 442 c 0,90,91
 734 442 734 442 703 429.5 c 128,-1,92
 672 417 672 417 650.5 398.5 c 128,-1,93
 629 380 629 380 618 359.5 c 128,-1,94
 607 339 607 339 607 323 c 1,95,-1
 935 323 l 1,85,86
EndSplineSet
EndChar
StartChar: eth
Encoding: 240 240 177
Width: 696
VWidth: 1473
Flags: W
HStem: 1 111<248.337 428.929> 436 108<249.645 429.934>
VStem: 47 106<218.28 330.201> 510 109<15.502 56 184.972 277 359 364.611>
Fore
538 648 m 1,0,1
 572 600 572 600 595.5 524.5 c 128,-1,2
 619 449 619 449 619 359 c 2,3,-1
 619 55 l 2,4,5
 619 31 619 31 602 15 c 128,-1,6
 585 -1 585 -1 563 -1 c 256,7,8
 541 -1 541 -1 524.5 15 c 128,-1,9
 508 31 508 31 510 55 c 2,10,-1
 510 56 l 1,11,12
 476 28 476 28 429.5 14.5 c 128,-1,13
 383 1 383 1 331 1 c 0,14,15
 261 1 261 1 207 24 c 128,-1,16
 153 47 153 47 117.5 84.5 c 128,-1,17
 82 122 82 122 64.5 171.5 c 128,-1,18
 47 221 47 221 47 274 c 256,19,20
 47 327 47 327 67 375.5 c 128,-1,21
 87 424 87 424 124.5 461.5 c 128,-1,22
 162 499 162 499 214.5 521.5 c 128,-1,23
 267 544 267 544 331 544 c 0,24,25
 398 544 398 544 440.5 528.5 c 128,-1,26
 483 513 483 513 510 489 c 1,27,28
 502 526 502 526 483 559 c 128,-1,29
 464 592 464 592 446 613 c 1,30,-1
 373 583 l 1,31,-1
 330 632 l 1,32,-1
 396 663 l 1,33,34
 380 673 380 673 360 688 c 128,-1,35
 340 703 340 703 326 709 c 256,36,37
 311 715 311 715 304.5 724.5 c 128,-1,38
 298 734 298 734 296.5 743.5 c 128,-1,39
 295 753 295 753 298 761.5 c 128,-1,40
 301 770 301 770 306 776 c 0,41,42
 326 796 326 796 345.5 791.5 c 128,-1,43
 365 787 365 787 376 784 c 1,44,45
 405 770 405 770 437.5 746.5 c 128,-1,46
 470 723 470 723 492 703 c 1,47,-1
 564 734 l 1,48,-1
 613 679 l 1,49,-1
 538 648 l 1,0,1
507 277 m 2,50,51
 507 358 507 358 457 397 c 128,-1,52
 407 436 407 436 331 436 c 0,53,54
 292 436 292 436 258.5 423 c 128,-1,55
 225 410 225 410 201.5 387.5 c 128,-1,56
 178 365 178 365 165.5 335.5 c 128,-1,57
 153 306 153 306 153 274 c 256,58,59
 153 242 153 242 165.5 212.5 c 128,-1,60
 178 183 178 183 201 160.5 c 128,-1,61
 224 138 224 138 257 125 c 128,-1,62
 290 112 290 112 331 112 c 0,63,64
 407 112 407 112 456 151 c 128,-1,65
 505 190 505 190 507 275 c 2,66,-1
 507 277 l 2,50,51
EndSplineSet
EndChar
StartChar: divide
Encoding: 247 247 184
Width: 738
VWidth: 1473
Flags: W
HStem: 6 141<309.689 406.373> 194 121<59.5637 100 633 674.498> 368 140<309.689 406.373>
VStem: 287 140<27.1429 125.857 389.658 486.857>
Fore
100 194 m 2,0,-1
 633 194 l 2,1,2
 659 194 659 194 675 212 c 128,-1,3
 691 230 691 230 691 255 c 256,4,5
 691 280 691 280 675.5 297.5 c 128,-1,6
 660 315 660 315 633 315 c 2,7,-1
 100 315 l 2,8,9
 75 315 75 315 58 297.5 c 128,-1,10
 41 280 41 280 41 255 c 256,11,12
 41 230 41 230 59 212 c 128,-1,13
 77 194 77 194 100 194 c 2,0,-1
359 368 m 256,14,15
 331 368 331 368 309 389 c 128,-1,16
 287 410 287 410 287 438 c 0,17,18
 287 467 287 467 309 487.5 c 128,-1,19
 331 508 331 508 359 508 c 256,20,21
 387 508 387 508 407 487.5 c 128,-1,22
 427 467 427 467 427 438 c 0,23,24
 427 410 427 410 407 389 c 128,-1,25
 387 368 387 368 359 368 c 256,14,15
359 6 m 256,26,27
 331 6 331 6 309 26.5 c 128,-1,28
 287 47 287 47 287 77 c 256,29,30
 287 106 287 106 309 126.5 c 128,-1,31
 331 147 331 147 359 147 c 256,32,33
 387 147 387 147 407 126.5 c 128,-1,34
 427 106 427 106 427 77 c 256,35,36
 427 47 427 47 407 26.5 c 128,-1,37
 387 6 387 6 359 6 c 256,26,27
EndSplineSet
EndChar
StartChar: oslash
Encoding: 248 248 185
Width: 649
VWidth: 1473
Flags: W
HStem: 446 73<364.007 426.246>
VStem: 46.5 84.5<171.737 356.957> 516 85<181.809 348.674>
Fore
519 468 m 2,0,1
 558 429 558 429 579.5 376 c 128,-1,2
 601 323 601 323 601 267 c 0,3,4
 601 147 601 147 519 60 c 0,5,6
 486 28 486 28 445.5 9 c 128,-1,7
 405 -10 405 -10 361.5 -16 c 128,-1,8
 318 -22 318 -22 274 -14.5 c 128,-1,9
 230 -7 230 -7 190 15 c 1,10,-1
 146 -52 l 2,11,12
 138 -63 138 -63 125.5 -66 c 128,-1,13
 113 -69 113 -69 102 -60 c 0,14,15
 90 -53 90 -53 87.5 -40 c 128,-1,16
 85 -27 85 -27 93 -15 c 2,17,-1
 137 53 l 1,18,19
 94 94 94 94 71.5 148 c 128,-1,20
 49 202 49 202 46.5 258 c 128,-1,21
 44 314 44 314 64.5 369 c 128,-1,22
 85 424 85 424 128 468 c 0,23,24
 159 499 159 499 199 519 c 128,-1,25
 239 539 239 539 281.5 546.5 c 128,-1,26
 324 554 324 554 367.5 547.5 c 128,-1,27
 411 541 411 541 448 519 c 1,28,-1
 491 583 l 2,29,30
 513 608 513 608 533 594 c 0,31,32
 545 586 545 586 550 572 c 128,-1,33
 555 558 555 558 548 547 c 2,34,-1
 507 480 l 1,35,-1
 519 468 l 2,0,1
131 267 m 0,36,37
 131 184 131 184 184 128 c 1,38,-1
 402 446 l 1,39,40
 351 470 351 470 292 460.5 c 128,-1,41
 233 451 233 451 189 408 c 0,42,43
 131 346 131 346 131 267 c 0,36,37
454 124 m 1,44,45
 485 150 485 150 500.5 187.5 c 128,-1,46
 516 225 516 225 516 265 c 128,-1,47
 516 305 516 305 500.5 342.5 c 128,-1,48
 485 380 485 380 454 408 c 1,49,-1
 242 87 l 1,50,51
 293 57 293 57 354 68.5 c 128,-1,52
 415 80 415 80 454 124 c 1,44,45
EndSplineSet
EndChar
StartChar: thorn
Encoding: 254 254 191
Width: 674
VWidth: 1473
Flags: W
HStem: -16 101<308.168 442.68> 430 109<273.797 397.494>
VStem: 91 109<-211.527 32 482 691.995 692 737.92> 522 103<168.125 300.039>
Fore
200 32 m 1,0,-1
 200 -184 l 2,1,2
 202 -211 202 -211 186.5 -229 c 128,-1,3
 171 -247 171 -247 146 -247 c 0,4,5
 116 -247 116 -247 103.5 -229 c 128,-1,6
 91 -211 91 -211 91 -184 c 2,7,-1
 91 692 l 2,8,9
 91 720 91 720 103.5 738.5 c 128,-1,10
 116 757 116 757 146 757 c 0,11,12
 174 757 174 757 187 738.5 c 128,-1,13
 200 720 200 720 200 692 c 1,14,15
 199 692 199 692 199 670 c 2,16,-1
 199 482 l 1,17,18
 231 505 231 505 272.5 522 c 128,-1,19
 314 539 314 539 357 539 c 0,20,21
 426 539 426 539 478 511 c 128,-1,22
 530 483 530 483 565 439 c 128,-1,23
 600 395 600 395 614.5 339.5 c 128,-1,24
 629 284 629 284 625 230 c 0,25,26
 619 178 619 178 598 134 c 128,-1,27
 577 90 577 90 542.5 56 c 128,-1,28
 508 22 508 22 459 3 c 128,-1,29
 410 -16 410 -16 348 -16 c 0,30,31
 314 -16 314 -16 275 -5 c 128,-1,32
 236 6 236 6 202 31 c 1,33,-1
 200 32 l 1,0,-1
346 85 m 0,34,35
 426 81 426 81 474 131 c 128,-1,36
 522 181 522 181 522 270 c 0,37,38
 522 299 522 299 509 328.5 c 128,-1,39
 496 358 496 358 474 381.5 c 128,-1,40
 452 405 452 405 422 418.5 c 128,-1,41
 392 432 392 432 355 430 c 0,42,43
 286 427 286 427 239.5 385 c 128,-1,44
 193 343 193 343 187 287 c 0,45,46
 178 199 178 199 220 144.5 c 128,-1,47
 262 90 262 90 346 85 c 0,34,35
EndSplineSet
EndChar
StartChar: Lslash
Encoding: 321 321 193
Width: 701
VWidth: 1473
Flags: W
HStem: -1 109<217.399 649.465> 697 20G<138.5 167>
VStem: 94 111<121.637 323 467 696.889>
Fore
650 91 m 0,0,1
 664 78 664 78 664 55 c 0,2,3
 664 34 664 34 650 16.5 c 128,-1,4
 636 -1 636 -1 601 -1 c 2,5,-1
 234 -1 l 2,6,7
 158 -1 158 -1 126 40.5 c 128,-1,8
 94 82 94 82 94 141 c 2,9,-1
 94 323 l 1,10,-1
 4 265 l 1,11,-1
 4 342 l 1,12,-1
 94 399 l 1,13,-1
 94 651 l 2,14,15
 94 679 94 679 109 698 c 128,-1,16
 124 717 124 717 153 717 c 0,17,18
 181 717 181 717 193 697.5 c 128,-1,19
 205 678 205 678 205 651 c 2,20,-1
 205 467 l 1,21,-1
 289 517 l 1,22,-1
 289 440 l 1,23,-1
 205 390 l 1,24,-1
 205 138 l 2,25,26
 205 125 205 125 211.5 116.5 c 128,-1,27
 218 108 218 108 234 108 c 2,28,-1
 601 108 l 2,29,30
 633 108 633 108 650 91 c 0,0,1
EndSplineSet
EndChar
StartChar: lslash
Encoding: 322 322 194
Width: 296
VWidth: 1473
Flags: W
HStem: -1 21G<128 154> 818 20G<128 159>
VStem: 12 268<255 569 255 277> 90 109<17.5654 329 404 426 501 801.303>
Fore
280 569 m 1,0,-1
 280 495 l 1,1,-1
 199 426 l 1,2,-1
 199 65 l 2,3,4
 199 28 199 28 181.5 13.5 c 128,-1,5
 164 -1 164 -1 144 -1 c 0,6,7
 112 -1 112 -1 101 17 c 128,-1,8
 90 35 90 35 90 65 c 2,9,-1
 90 329 l 1,10,-1
 12 255 l 1,11,-1
 12 331 l 1,12,-1
 90 404 l 1,13,-1
 90 772 l 2,14,15
 90 801 90 801 101 819.5 c 128,-1,16
 112 838 112 838 144 838 c 0,17,18
 174 838 174 838 186.5 820.5 c 128,-1,19
 199 803 199 803 199 772 c 2,20,-1
 199 501 l 1,21,-1
 280 569 l 1,0,-1
EndSplineSet
EndChar
StartChar: OE
Encoding: 338 338 195
Width: 1311
VWidth: 1473
Flags: W
HStem: -9 112<299.596 490.961 896.428 1053.29> 302 110<750 1060.4> 607 112<299.596 491.175 823.486 929.558 929.558 931.202 930.38 1053.29>
VStem: 41 112<254.91 453.915>
Fore
667 121 m 1,0,1
 619 62 619 62 549 26.5 c 128,-1,2
 479 -9 479 -9 396 -9 c 0,3,4
 323 -9 323 -9 258 20.5 c 128,-1,5
 193 50 193 50 145 100 c 128,-1,6
 97 150 97 150 69 215.5 c 128,-1,7
 41 281 41 281 41 355 c 0,8,9
 41 427 41 427 69 493.5 c 128,-1,10
 97 560 97 560 145 610 c 128,-1,11
 193 660 193 660 258 689.5 c 128,-1,12
 323 719 323 719 396 719 c 0,13,14
 477 719 477 719 546.5 683.5 c 128,-1,15
 616 648 616 648 664 591 c 1,16,17
 684 628 684 628 717 653.5 c 128,-1,18
 750 679 750 679 789.5 694.5 c 128,-1,19
 829 710 829 710 873.5 716.5 c 128,-1,20
 918 723 918 723 962 723 c 0,21,22
 1009 723 1009 723 1053.5 715 c 128,-1,23
 1098 707 1098 707 1135.5 691 c 128,-1,24
 1173 675 1173 675 1202.5 652 c 128,-1,25
 1232 629 1232 629 1249 600 c 0,26,27
 1261 579 1261 579 1258 558.5 c 128,-1,28
 1255 538 1255 538 1235 526 c 256,29,30
 1214 514 1214 514 1192.5 520.5 c 128,-1,31
 1171 527 1171 527 1156 545 c 0,32,33
 1134 575 1134 575 1085.5 594 c 128,-1,34
 1037 613 1037 613 962 613 c 0,35,36
 930 613 930 613 892 608.5 c 128,-1,37
 854 604 854 604 822.5 590 c 128,-1,38
 791 576 791 576 770.5 550 c 128,-1,39
 750 524 750 524 750 482 c 2,40,-1
 750 412 l 1,41,-1
 1014 411 l 2,42,43
 1042 411 1042 411 1061 399 c 128,-1,44
 1080 387 1080 387 1080 358 c 0,45,46
 1080 337 1080 337 1065 319.5 c 128,-1,47
 1050 302 1050 302 1014 302 c 2,48,-1
 750 302 l 1,49,-1
 750 236 l 2,50,51
 750 190 750 190 770.5 163.5 c 128,-1,52
 791 137 791 137 822.5 123.5 c 128,-1,53
 854 110 854 110 892 106.5 c 128,-1,54
 930 103 930 103 962 103 c 0,55,56
 1037 103 1037 103 1085.5 122 c 128,-1,57
 1134 141 1134 141 1156 171 c 0,58,59
 1171 189 1171 189 1192.5 195.5 c 128,-1,60
 1214 202 1214 202 1235 190 c 256,61,62
 1255 178 1255 178 1258 157.5 c 128,-1,63
 1261 137 1261 137 1249 116 c 0,64,65
 1232 87 1232 87 1202.5 64 c 128,-1,66
 1173 41 1173 41 1135.5 25 c 128,-1,67
 1098 9 1098 9 1053.5 1 c 128,-1,68
 1009 -7 1009 -7 962 -7 c 0,69,70
 919 -7 919 -7 875 -0.5 c 128,-1,71
 831 6 831 6 791 20.5 c 128,-1,72
 751 35 751 35 719 60 c 128,-1,73
 687 85 687 85 667 121 c 1,0,1
639 355 m 256,74,75
 639 405 639 405 620 450.5 c 128,-1,76
 601 496 601 496 568.5 531 c 128,-1,77
 536 566 536 566 491 586.5 c 128,-1,78
 446 607 446 607 396 607 c 0,79,80
 345 607 345 607 300.5 586.5 c 128,-1,81
 256 566 256 566 223 532 c 128,-1,82
 190 498 190 498 171.5 451.5 c 128,-1,83
 153 405 153 405 153 355 c 0,84,85
 153 303 153 303 171.5 257.5 c 128,-1,86
 190 212 190 212 223 178 c 128,-1,87
 256 144 256 144 300.5 123.5 c 128,-1,88
 345 103 345 103 396 103 c 0,89,90
 446 103 446 103 491 123.5 c 128,-1,91
 536 144 536 144 568.5 179 c 128,-1,92
 601 214 601 214 620 259.5 c 128,-1,93
 639 305 639 305 639 355 c 256,74,75
EndSplineSet
EndChar
